SplineFontDB: 3.0
FontName: GoudyStMTT
FullName: Sorts Mill Goudy TT
FamilyName: Sorts Mill Goudy TT
Weight: Medium
Copyright: Copyright (c) 2009 Barry Schwartz
Version: 003.001
ItalicAngle: 0
UnderlinePosition: -99
UnderlineWidth: 49
Ascent: 777
Descent: 223
sfntRevision: 0x00030041
LayerCount: 2
Layer: 0 1 "Back"  1
Layer: 1 1 "Fore"  0
NeedsXUIDChange: 1
XUID: [1021 80 2080662067 8091804]
FSType: 0
OS2Version: 4
OS2_WeightWidthSlopeOnly: 0
OS2_UseTypoMetrics: 1
CreationTime: 1245830276
ModificationTime: 1332096389
PfmFamily: 17
TTFWeight: 500
TTFWidth: 5
LineGap: 90
VLineGap: 0
Panose: 2 0 5 3 0 0 0 0 0 0
OS2TypoAscent: 0
OS2TypoAOffset: 1
OS2TypoDescent: 0
OS2TypoDOffset: 1
OS2TypoLinegap: 90
OS2WinAscent: 0
OS2WinAOffset: 1
OS2WinDescent: 0
OS2WinDOffset: 1
HheadAscent: 0
HheadAOffset: 1
HheadDescent: 0
HheadDOffset: 1
OS2SubXSize: 650
OS2SubYSize: 700
OS2SubXOff: 0
OS2SubYOff: 140
OS2SupXSize: 650
OS2SupYSize: 700
OS2SupXOff: 0
OS2SupYOff: 480
OS2StrikeYSize: 49
OS2StrikeYPos: 258
OS2Vendor: 'PfEd'
OS2CodePages: 00000093.00000000
OS2UnicodeRanges: 8000006f.00000042.00000000.00000000
Lookup: 3 0 0 "'aalt' Access All Alternates lookup 0"  {"'aalt' Access All Alternates lookup 0 subtable"  } ['aalt' ('DFLT' <'dflt' > ) ]
Lookup: 3 0 0 "'aalt' Access All Alternates in Latin lookup 1"  {"'aalt' Access All Alternates in Latin lookup 1 subtable"  } ['aalt' ('latn' <'AZE ' 'CRT ' 'TRK ' 'dflt' > ) ]
Lookup: 1 0 0 "'locl' Localized Forms in Latin lookup 2"  {"'locl' Localized Forms in Latin lookup 2 subtable"  } ['locl' ('latn' <'AZE ' 'CRT ' 'TRK ' > ) ]
Lookup: 1 0 0 "'numr' Numerators in Latin lookup 3"  {"'numr' Numerators in Latin lookup 3 subtable"  } ['frac' ('DFLT' <'dflt' > 'latn' <'AZE ' 'CRT ' 'TRK ' 'dflt' > ) 'numr' ('DFLT' <'dflt' > 'latn' <'AZE ' 'CRT ' 'TRK ' 'dflt' > ) ]
Lookup: 1 0 0 "'dnom' Denominators in Latin lookup 4"  {"'dnom' Denominators in Latin lookup 4 subtable"  } ['dnom' ('DFLT' <'dflt' > 'latn' <'AZE ' 'CRT ' 'TRK ' 'dflt' > ) ]

StartChar: .notdef
Encoding: 65536 -1 0
Width: 362
Flags: HW
LayerCount: 2
Fore
SplineSet
-1.59961 -64 m 1,0,-1
 -1.59961 710 l 1,1,-1
 326.4 710 l 1,2,-1
 326.4 -64 l 1,3,-1
 -1.59961 -64 l 1,0,-1
50.4004 612 m 0,4,5
 50.4004 603 50.4004 603 59.4004 603 c 0,6,7
 60.4004 603 60.4004 603 78.4004 615.5 c 128,-1,8
 96.4004 628 96.4004 628 114.25 628 c 0,9,10
 137.2 628 137.2 628 168.3 607.5 c 128,-1,11
 199.4 587 199.4 587 199.4 548 c 0,12,13
 199.4 518 199.4 518 156.4 414 c 128,-1,14
 113.4 310 113.4 310 113.4 274 c 0,15,16
 113.4 251 113.4 251 120.625 223 c 128,-1,17
 127.85 195 127.85 195 140.6 195 c 0,18,19
 147.4 195 147.4 195 147.4 205 c 0,20,21
 147.4 209 147.4 209 145.275 224.5 c 128,-1,22
 143.15 240 143.15 240 143.15 251 c 0,23,24
 143.15 286 143.15 286 164.775 330 c 128,-1,25
 186.4 374 186.4 374 212.4 408 c 128,-1,26
 238.4 442 238.4 442 260.4 484 c 128,-1,27
 282.4 526 282.4 526 282.4 559 c 0,28,29
 282.4 613 282.4 613 242.4 643 c 128,-1,30
 202.4 673 202.4 673 148.4 673 c 0,31,32
 114.25 673 114.25 673 82.3252 651 c 128,-1,33
 50.4004 629 50.4004 629 50.4004 612 c 0,4,5
72.4004 59 m 0,34,35
 72.4004 51 72.4004 51 87.4004 39 c 128,-1,36
 102.4 27 102.4 27 105.4 24 c 0,37,38
 114.25 13 114.25 13 124.875 2 c 128,-1,39
 135.5 -9 135.5 -9 140.6 -9 c 128,-1,40
 145.7 -9 145.7 -9 151.55 -3.5 c 128,-1,41
 157.4 2 157.4 2 164.9 12 c 128,-1,42
 172.4 22 172.4 22 176.4 26 c 0,43,44
 179.4 29 179.4 29 189.4 35.5 c 128,-1,45
 199.4 42 199.4 42 204.9 48 c 128,-1,46
 210.4 54 210.4 54 210.4 62 c 0,47,48
 210.4 66 210.4 66 203.4 73.5 c 128,-1,49
 196.4 81 196.4 81 186.4 89 c 2,50,-1
 176.4 97 l 1,51,-1
 169.4 107 l 2,52,53
 161.4 117 161.4 117 153.55 124.5 c 128,-1,54
 145.7 132 145.7 132 142.3 132 c 0,55,56
 137.2 132 137.2 132 131.675 127 c 128,-1,57
 126.15 122 126.15 122 119.275 112.5 c 128,-1,58
 112.4 103 112.4 103 108.4 100 c 0,59,60
 72.4004 69 72.4004 69 72.4004 59 c 0,34,35
EndSplineSet
Validated: 524289
EndChar

StartChar: exclam
Encoding: 33 33 4
Width: 244
GlyphClass: 2
Flags: HW
LayerCount: 2
Fore
SplineSet
34.4004 63 m 0,0,1
 34.4004 70 34.4004 70 63.4004 95 c 0,2,3
 67.4004 98 67.4004 98 75.9004 109 c 128,-1,4
 84.4004 120 84.4004 120 92.4004 126.5 c 128,-1,5
 100.4 133 100.4 133 108.4 133 c 0,6,7
 112.4 133 112.4 133 115.4 131 c 128,-1,8
 118.4 129 118.4 129 124.4 122.5 c 128,-1,9
 130.4 116 130.4 116 131.4 115 c 0,10,11
 142.4 103 142.4 103 153.9 94 c 128,-1,12
 165.4 85 165.4 85 170.9 81 c 128,-1,13
 176.4 77 176.4 77 180.4 72.5 c 128,-1,14
 184.4 68 184.4 68 184.4 62 c 0,15,16
 184.4 54 184.4 54 177.9 47 c 128,-1,17
 171.4 40 171.4 40 160.4 32.5 c 128,-1,18
 149.4 25 149.4 25 146.4 22 c 0,19,20
 142.4 18 142.4 18 135.4 8 c 128,-1,21
 128.4 -2 128.4 -2 121.9 -7.5 c 128,-1,22
 115.4 -13 115.4 -13 109.4 -13 c 128,-1,23
 103.4 -13 103.4 -13 89.4004 -1.5 c 128,-1,24
 75.4004 10 75.4004 10 67.4004 21 c 0,25,26
 64.4004 25 64.4004 25 55.4004 32.5 c 128,-1,27
 46.4004 40 46.4004 40 40.4004 47.5 c 128,-1,28
 34.4004 55 34.4004 55 34.4004 63 c 0,0,1
64.4004 651 m 0,29,30
 64.4004 689 64.4004 689 113.4 689 c 0,31,32
 137.4 689 137.4 689 148.4 682 c 128,-1,33
 159.4 675 159.4 675 159.4 657 c 0,34,35
 159.4 654 159.4 654 158.9 650 c 128,-1,36
 158.4 646 158.4 646 156.9 636.5 c 128,-1,37
 155.4 627 155.4 627 154.4 618 c 0,38,39
 150.4 584 150.4 584 142.4 456.5 c 128,-1,40
 134.4 329 134.4 329 119.4 210 c 0,41,42
 117.4 199 117.4 199 105.4 199 c 128,-1,43
 93.4004 199 93.4004 199 93.4004 208 c 0,44,45
 84.4004 311 84.4004 311 80.4004 371.5 c 128,-1,46
 76.4004 432 76.4004 432 75.9004 447 c 128,-1,47
 75.4004 462 75.4004 462 74.9004 476.5 c 128,-1,48
 74.4004 491 74.4004 491 73.4004 507 c 0,49,50
 64.4004 633 64.4004 633 64.4004 651 c 0,29,30
EndSplineSet
Validated: 524289
Position2: "'cpsp' Capital Spacing in Latin lookup 0 subtable" dx=10 dy=0 dh=20 dv=0
EndChar

StartChar: numbersign
Encoding: 35 35 6
Width: 484
GlyphClass: 2
Flags: HW
LayerCount: 2
Fore
SplineSet
27.2002 139 m 2,0,1
 27.2002 139 27.2002 139 27.2002 142 c 0,2,3
 27.2002 154 27.2002 154 29.2002 158.5 c 128,-1,4
 31.2002 163 31.2002 163 41.2002 163 c 2,5,-1
 123.2 163 l 2,6,7
 126.2 163 126.2 163 126.2 165 c 0,8,9
 128.2 183 128.2 183 133.125 217 c 128,-1,10
 138.05 251 138.05 251 141.025 274.5 c 128,-1,11
 144 298 144 298 144 300 c 0,12,13
 144 305 144 305 138.05 305 c 2,14,-1
 43.2002 305 l 2,15,16
 34.2002 305 34.2002 305 30.7002 308.5 c 128,-1,17
 27.2002 312 27.2002 312 27.2002 325 c 0,18,19
 27.2002 347 27.2002 347 43.2002 347 c 2,20,-1
 144 347 l 2,21,22
 151.65 347 151.65 347 151.65 354 c 0,23,24
 163.55 454 163.55 454 170.35 521 c 0,25,26
 172.9 541 172.9 541 173.75 543 c 0,27,28
 178 550 178 550 192.45 550 c 0,29,30
 209.45 550 209.45 550 209.45 538 c 0,31,32
 209.45 535 209.45 535 198.4 445 c 128,-1,33
 187.35 355 187.35 355 187.35 352 c 0,34,35
 187.35 347 187.35 347 192.45 347 c 2,36,-1
 282.95 347 l 2,37,38
 290.95 347 290.95 347 291.95 354 c 0,39,40
 317.95 542 317.95 542 319.95 544 c 0,41,42
 323.95 550 323.95 550 342.95 550 c 0,43,44
 358.95 550 358.95 550 358.95 540 c 0,45,46
 358.95 536 358.95 536 346.45 446 c 128,-1,47
 333.95 356 333.95 356 333.95 352 c 0,48,49
 333.95 347 333.95 347 338.95 347 c 2,50,-1
 407.95 347 l 2,51,52
 425.95 347 425.95 347 425.95 322 c 0,53,54
 425.95 305 425.95 305 410.95 305 c 2,55,-1
 329.95 305 l 2,56,57
 326.95 305 326.95 305 324.95 299 c 1,58,59
 306.95 170 306.95 170 306.95 169 c 0,60,61
 306.95 163 306.95 163 313.95 163 c 2,62,-1
 408.95 163 l 2,63,64
 414.95 163 414.95 163 417.95 162 c 128,-1,65
 420.95 161 420.95 161 423.45 156.5 c 128,-1,66
 425.95 152 425.95 152 425.95 143 c 0,67,68
 425.95 121 425.95 121 408.95 121 c 2,69,-1
 310.95 121 l 2,70,71
 301.95 121 301.95 121 299.95 111 c 0,72,73
 294.95 76 294.95 76 287.95 25 c 0,74,75
 278.95 -43 278.95 -43 274.95 -54.5 c 128,-1,76
 270.95 -66 270.95 -66 253.95 -66 c 0,77,78
 234.95 -66 234.95 -66 234.95 -53 c 0,79,80
 234.95 -50 234.95 -50 246.45 31.5 c 128,-1,81
 257.95 113 257.95 113 257.95 115 c 0,82,83
 257.95 121 257.95 121 250.95 121 c 2,84,-1
 192.45 121 l 2,85,86
 176.3 121 176.3 121 168.65 120 c 128,-1,87
 161 119 161 119 159.725 117.5 c 128,-1,88
 158.45 116 158.45 116 157.6 113 c 0,89,90
 138.9 -53 138.9 -53 137.2 -58 c 0,91,92
 132.2 -66 132.2 -66 114.2 -66 c 128,-1,93
 96.2002 -66 96.2002 -66 96.2002 -53 c 0,94,95
 96.2002 -50 96.2002 -50 107.7 31 c 128,-1,96
 119.2 112 119.2 112 119.2 114 c 0,97,98
 119.2 121 119.2 121 111.2 121 c 2,99,-1
 41.2002 121 l 2,100,101
 27.2002 121 27.2002 121 27.2002 139 c 2,0,1
164.4 168 m 0,102,103
 164.4 163 164.4 163 171.2 163 c 2,104,-1
 254.95 163 l 2,105,106
 263.95 163 263.95 163 264.95 170 c 0,107,108
 267.95 196 267.95 196 271.45 219 c 128,-1,109
 274.95 242 274.95 242 276.95 254.5 c 128,-1,110
 278.95 267 278.95 267 280.45 277.5 c 128,-1,111
 281.95 288 281.95 288 282.45 293 c 128,-1,112
 282.95 298 282.95 298 282.95 300 c 0,113,114
 282.95 305 282.95 305 276.95 305 c 2,115,-1
 187.35 305 l 2,116,117
 181.4 305 181.4 305 179.7 298 c 1,118,119
 164.4 169 164.4 169 164.4 168 c 0,102,103
EndSplineSet
Validated: 524289
EndChar

StartChar: dollar
Encoding: 36 36 7
Width: 483
GlyphClass: 2
Flags: HW
LayerCount: 2
Fore
SplineSet
31.2002 96 m 0,0,1
 31.2002 102 31.2002 102 32.7002 115.5 c 128,-1,2
 34.2002 129 34.2002 129 39.7002 147.5 c 128,-1,3
 45.2002 166 45.2002 166 54.2002 166 c 0,4,5
 64.2002 166 64.2002 166 69.7002 159.5 c 128,-1,6
 75.2002 153 75.2002 153 85.7002 130.5 c 128,-1,7
 96.2002 108 96.2002 108 101.2 98 c 0,8,9
 117.2 69 117.2 69 150.2 48 c 128,-1,10
 183.2 27 183.2 27 211.2 27 c 0,11,12
 221.2 27 221.2 27 221.2 42 c 0,13,14
 221.2 106 221.2 106 222.7 186.5 c 128,-1,15
 224.2 267 224.2 267 224.2 324 c 0,16,17
 224.2 338 224.2 338 188.2 349 c 0,18,19
 129.2 368 129.2 368 91.7002 405 c 128,-1,20
 54.2002 442 54.2002 442 54.2002 513 c 128,-1,21
 54.2002 584 54.2002 584 103.2 634 c 128,-1,22
 152.2 684 152.2 684 219.2 693 c 0,23,24
 226.2 694 226.2 694 229.2 698 c 128,-1,25
 232.2 702 232.2 702 232.2 716 c 0,26,27
 232.2 722 232.2 722 231.7 730 c 128,-1,28
 231.2 738 231.2 738 231.2 743 c 0,29,30
 231.2 766 231.2 766 253.2 766 c 0,31,32
 266.85 766 266.85 766 269.825 762 c 128,-1,33
 272.8 758 272.8 758 272.8 748 c 0,34,35
 272.8 736 272.8 736 272.8 726 c 128,-1,36
 272.8 716 272.8 716 272.375 710 c 128,-1,37
 271.95 704 271.95 704 271.95 703 c 0,38,39
 271.95 694 271.95 694 276.2 694 c 0,40,41
 303.4 690 303.4 690 326.35 680 c 128,-1,42
 349.3 670 349.3 670 362.05 659 c 128,-1,43
 374.8 648 374.8 648 385.3 636.5 c 128,-1,44
 395.8 625 395.8 625 399.8 617.5 c 128,-1,45
 403.8 610 403.8 610 403.8 607 c 0,46,47
 403.8 592 403.8 592 393.3 567.5 c 128,-1,48
 382.8 543 382.8 543 374.55 543 c 128,-1,49
 366.3 543 366.3 543 362.9 554 c 0,50,51
 348.45 591 348.45 591 323.8 621.5 c 128,-1,52
 299.15 652 299.15 652 276.2 652 c 0,53,54
 268.55 652 268.55 652 268.55 633 c 0,55,56
 268.55 549 268.55 549 266.425 503 c 128,-1,57
 264.3 457 264.3 457 264.3 437 c 0,58,59
 264.3 421 264.3 421 266 416 c 128,-1,60
 267.7 411 267.7 411 275.35 409 c 0,61,62
 351.85 384 351.85 384 393.325 336 c 128,-1,63
 434.8 288 434.8 288 434.8 208 c 0,64,65
 434.8 158 434.8 158 418.3 118 c 128,-1,66
 401.8 78 401.8 78 375.975 54 c 128,-1,67
 350.15 30 350.15 30 326.775 15.5 c 128,-1,68
 303.4 1 303.4 1 277.05 -7 c 0,69,70
 274.5 -8 274.5 -8 271.1 -9 c 0,71,72
 260.9 -12 260.9 -12 260.05 -17 c 0,73,74
 259.2 -20 259.2 -20 259.2 -26 c 2,75,-1
 259.2 -45 l 1,76,-1
 259.2 -108 l 2,77,78
 259.2 -135 259.2 -135 254.7 -142.5 c 128,-1,79
 250.2 -150 250.2 -150 237.2 -150 c 0,80,81
 216.2 -150 216.2 -150 216.2 -129 c 0,82,83
 216.2 -111 216.2 -111 217.7 -76.5 c 128,-1,84
 219.2 -42 219.2 -42 219.2 -31 c 0,85,86
 219.2 -12 219.2 -12 213.2 -12 c 0,87,88
 166.2 -12 166.2 -12 115.2 10.5 c 128,-1,89
 64.2002 33 64.2002 33 42.2002 60 c 0,90,91
 31.2002 73 31.2002 73 31.2002 96 c 0,0,1
113.2 539 m 0,92,93
 113.2 455 113.2 455 218.2 428 c 1,94,-1
 220.2 428 l 2,95,96
 229.2 428 229.2 428 229.2 445 c 0,97,98
 229.2 489 229.2 489 229.7 544 c 128,-1,99
 230.2 599 230.2 599 230.2 641 c 0,100,101
 230.2 653 230.2 653 219.2 653 c 0,102,103
 192.2 653 192.2 653 152.7 622.5 c 128,-1,104
 113.2 592 113.2 592 113.2 539 c 0,92,93
260.05 40 m 0,105,106
 260.05 27 260.05 27 266 27 c 0,107,108
 270.25 27 270.25 27 279.6 29 c 128,-1,109
 288.95 31 288.95 31 306.375 41 c 128,-1,110
 323.8 51 323.8 51 338.25 66.5 c 128,-1,111
 352.7 82 352.7 82 363.75 113 c 128,-1,112
 374.8 144 374.8 144 374.8 185 c 0,113,114
 374.8 216 374.8 216 364.175 241 c 128,-1,115
 353.55 266 353.55 266 338.675 280 c 128,-1,116
 323.8 294 323.8 294 307.65 303.5 c 128,-1,117
 291.5 313 291.5 313 281.725 316.5 c 128,-1,118
 271.95 320 271.95 320 269.4 320 c 0,119,120
 263.45 320 263.45 320 263.45 306 c 0,121,122
 263.45 253 263.45 253 261.75 173 c 128,-1,123
 260.05 93 260.05 93 260.05 40 c 0,105,106
EndSplineSet
Validated: 524289
Substitution2: "'lnum' Lining Figures in Latin lookup 11 subtable" dollar.lining
Substitution2: "'subs' Subscript in Latin lookup 10 subtable" dollar.lining.sub
Substitution2: "'sups' Superscript in Latin lookup 9 subtable" dollar.lining.sup
AlternateSubs2: "'aalt' Access All Alternates in Latin lookup 1 subtable" dollar.lining dollar.lining.sub dollar.lining.sup
AlternateSubs2: "'aalt' Access All Alternates lookup 0 subtable" dollar.lining dollar.lining.sub dollar.lining.sup
EndChar

StartChar: percent
Encoding: 37 37 8
Width: 733
GlyphClass: 2
Flags: HW
LayerCount: 2
Fore
SplineSet
27.2002 344 m 0,0,1
 27.2002 425 27.2002 425 81.4746 501 c 128,-1,2
 135.75 577 135.75 577 207.15 577 c 0,3,4
 234.35 577 234.35 577 258.325 559.5 c 128,-1,5
 282.3 542 282.3 542 305.839 525 c 128,-1,6
 329.379 508 329.379 508 358.043 508 c 0,7,8
 379.828 508 379.828 508 406.2 516.5 c 128,-1,9
 432.571 525 432.571 525 453.783 535 c 128,-1,10
 474.995 545 474.995 545 501.94 563.5 c 128,-1,11
 528.885 582 528.885 582 542.071 592 c 128,-1,12
 555.257 602 555.257 602 578.188 620 c 2,13,-1
 599.974 638 l 2,14,15
 609 646 609 646 619 646 c 0,16,17
 628 646 628 646 628 637 c 0,18,19
 628 629 628 629 620 616 c 0,20,21
 316.2 183 316.2 183 171.2 -47 c 0,22,23
 145.2 -87 145.2 -87 140.2 -89 c 0,24,25
 134.2 -91 134.2 -91 130.2 -91 c 0,26,27
 118.2 -91 118.2 -91 107.7 -83 c 128,-1,28
 97.2002 -75 97.2002 -75 97.2002 -67 c 0,29,30
 97.2002 -55 97.2002 -55 126.2 -12 c 0,31,32
 133.2 -3 133.2 -3 137.2 3 c 2,33,-1
 277.3 240 l 2,34,35
 333.965 317 333.965 317 395.308 390 c 128,-1,36
 456.65 463 456.65 463 480.729 492 c 128,-1,37
 504.807 521 504.807 521 504.807 524 c 0,38,39
 504.807 528 504.807 528 500.221 528 c 0,40,41
 499.074 528 499.074 528 477.862 517 c 128,-1,42
 456.65 506 456.65 506 423.973 495 c 128,-1,43
 391.294 484 391.294 484 360.336 484 c 0,44,45
 347.724 484 347.724 484 335.111 486.5 c 128,-1,46
 322.499 489 322.499 489 313.899 491.5 c 128,-1,47
 305.3 494 305.3 494 304.3 494 c 128,-1,48
 303.3 494 303.3 494 303.3 493 c 2,49,-1
 304.3 486 l 2,50,51
 305.3 480 305.3 480 305.3 474 c 0,52,53
 305.3 417 305.3 417 295.3 381 c 128,-1,54
 285.3 345 285.3 345 254.3 300 c 0,55,56
 206.3 220 206.3 220 131.5 220 c 0,57,58
 101.75 220 101.75 220 64.4746 252.5 c 128,-1,59
 27.2002 285 27.2002 285 27.2002 344 c 0,0,1
99.2002 364 m 0,60,61
 99.2002 309 99.2002 309 112.8 278 c 128,-1,62
 126.4 247 126.4 247 150.2 247 c 0,63,64
 191 247 191 247 215.65 313 c 128,-1,65
 240.3 379 240.3 379 240.3 456 c 0,66,67
 240.3 496 240.3 496 229.25 522 c 128,-1,68
 218.2 548 218.2 548 200.35 548 c 0,69,70
 152.75 548 152.75 548 125.975 491.5 c 128,-1,71
 99.2002 435 99.2002 435 99.2002 364 c 0,60,61
354.2 64 m 0,72,73
 354.2 149 354.2 149 406.571 221 c 128,-1,74
 458.943 293 458.943 293 559.843 293 c 0,75,76
 620 293 620 293 647 259 c 128,-1,77
 674 225 674 225 634.85 170 c 0,78,79
 634.85 83 634.85 83 583.15 2.5 c 128,-1,80
 531.45 -78 531.45 -78 467.7 -78 c 0,81,82
 416.2 -78 416.2 -78 385.2 -37.5 c 128,-1,83
 354.2 3 354.2 3 354.2 64 c 0,72,73
425.2 73 m 0,84,85
 425.2 18 425.2 18 438.8 -14 c 128,-1,86
 452.4 -46 452.4 -46 476.2 -46 c 0,87,88
 514.45 -46 514.45 -46 541.65 22 c 128,-1,89
 568.85 90 568.85 90 568.85 165 c 0,90,91
 608 205 608 205 591.374 233.5 c 128,-1,92
 574.749 262 574.749 262 550.671 262 c 0,93,94
 486.461 262 486.461 262 455.831 203.5 c 128,-1,95
 425.2 145 425.2 145 425.2 73 c 0,84,85
EndSplineSet
Validated: 524321
EndChar

StartChar: ampersand
Encoding: 38 38 9
Width: 821
GlyphClass: 2
Flags: HW
LayerCount: 2
Fore
SplineSet
27.2002 242 m 0,0,1
 27.2002 276 27.2002 276 38.7002 312.5 c 128,-1,2
 50.2002 349 50.2002 349 67.2002 371 c 0,3,4
 91.2002 400 91.2002 400 117.275 416 c 128,-1,5
 143.35 432 143.35 432 159.075 436 c 128,-1,6
 174.8 440 174.8 440 174.8 442 c 0,7,8
 174.8 445 174.8 445 164.6 459.5 c 128,-1,9
 154.4 474 154.4 474 144.2 503.5 c 128,-1,10
 134 533 134 533 134 571 c 0,11,12
 134 637 134 637 183.3 670.5 c 128,-1,13
 232.6 704 232.6 704 293.8 704 c 0,14,15
 323.55 704 323.55 704 349.9 692.5 c 128,-1,16
 376.25 681 376.25 681 379.65 681 c 128,-1,17
 383.05 681 383.05 681 388.575 682.5 c 128,-1,18
 394.1 684 394.1 684 398.35 684 c 0,19,20
 411.95 684 411.95 684 411.95 661 c 0,21,22
 411.95 660 411.95 660 412.8 647.5 c 128,-1,23
 413.65 635 413.65 635 414.5 619 c 128,-1,24
 415.35 603 415.35 603 415.35 593 c 0,25,26
 415.35 564 415.35 564 414.075 558 c 128,-1,27
 412.8 552 412.8 552 406 552 c 0,28,29
 400.9 552 400.9 552 388.15 570 c 128,-1,30
 375.4 588 375.4 588 360.95 609.5 c 128,-1,31
 346.5 631 346.5 631 322.275 649 c 128,-1,32
 298.05 667 298.05 667 272.55 667 c 0,33,34
 232.6 667 232.6 667 213.05 642.5 c 128,-1,35
 193.5 618 193.5 618 193.5 590 c 0,36,37
 193.5 565 193.5 565 216.875 525.5 c 128,-1,38
 240.25 486 240.25 486 264.475 456 c 128,-1,39
 288.7 426 288.7 426 332.9 374 c 0,40,41
 396.65 299 396.65 299 456.15 239 c 128,-1,42
 515.65 179 515.65 179 523.3 179 c 0,43,44
 528.4 179 528.4 179 533.5 187.5 c 128,-1,45
 538.6 196 538.6 196 542 216 c 128,-1,46
 545.4 236 545.4 236 545.4 263 c 0,47,48
 545.4 300 545.4 300 536.475 322.5 c 128,-1,49
 527.55 345 527.55 345 520.75 350.5 c 128,-1,50
 513.95 356 513.95 356 496.95 366 c 0,51,52
 491 369 491 369 482.075 370 c 128,-1,53
 473.15 371 473.15 371 468.9 373.5 c 128,-1,54
 464.65 376 464.65 376 464.65 384 c 0,55,56
 464.65 391 464.65 391 468.475 393 c 128,-1,57
 472.3 395 472.3 395 485.9 395 c 0,58,59
 503.75 395 503.75 395 525.425 394 c 128,-1,60
 547.1 393 547.1 393 612.55 393 c 0,61,62
 628.7 393 628.7 393 628.7 380 c 0,63,64
 628.7 373 628.7 373 624.025 369.5 c 128,-1,65
 619.35 366 619.35 366 612.975 364 c 128,-1,66
 606.6 362 606.6 362 601.075 352 c 128,-1,67
 595.55 342 595.55 342 594.7 324 c 0,68,69
 593.85 312 593.85 312 592.575 297 c 128,-1,70
 591.3 282 591.3 282 589.6 266.5 c 128,-1,71
 587.9 251 587.9 251 587.05 245 c 0,72,73
 584.5 226 584.5 226 576.85 204 c 128,-1,74
 569.2 182 569.2 182 562.825 167 c 128,-1,75
 556.45 152 556.45 152 556.45 149 c 0,76,77
 556.45 140 556.45 140 607.025 102.5 c 128,-1,78
 657.6 65 657.6 65 713.65 35 c 0,79,80
 733.65 25 733.65 25 756.65 25 c 0,81,82
 763.65 25 763.65 25 775.65 26.5 c 128,-1,83
 787.65 28 787.65 28 792.65 28 c 0,84,85
 805.65 28 805.65 28 805.65 19 c 0,86,87
 805.65 3 805.65 3 777.15 -8 c 128,-1,88
 748.65 -19 748.65 -19 708.65 -19 c 0,89,90
 672.05 -19 672.05 -19 641.45 -8.5 c 128,-1,91
 610.85 2 610.85 2 589.6 16.5 c 128,-1,92
 568.35 31 568.35 31 552.2 46 c 128,-1,93
 536.05 61 536.05 61 526.275 71.5 c 128,-1,94
 516.5 82 516.5 82 514.8 82 c 0,95,96
 511.4 82 511.4 82 501.625 71.5 c 128,-1,97
 491.85 61 491.85 61 475.7 45.5 c 128,-1,98
 459.55 30 459.55 30 436.6 14.5 c 128,-1,99
 413.65 -1 413.65 -1 375.4 -11.5 c 128,-1,100
 337.15 -22 337.15 -22 291.25 -22 c 0,101,102
 264.05 -22 264.05 -22 236.85 -17.5 c 128,-1,103
 209.65 -13 209.65 -13 171.825 3 c 128,-1,104
 134 19 134 19 104.1 46 c 128,-1,105
 74.2002 73 74.2002 73 50.7002 124 c 128,-1,106
 27.2002 175 27.2002 175 27.2002 242 c 0,0,1
93.2002 276 m 0,107,108
 93.2002 241 93.2002 241 107.65 203 c 128,-1,109
 122.1 165 122.1 165 149.725 128.5 c 128,-1,110
 177.35 92 177.35 92 226.65 68.5 c 128,-1,111
 275.95 45 275.95 45 337.15 45 c 0,112,113
 373.7 45 373.7 45 408.975 59.5 c 128,-1,114
 444.25 74 444.25 74 462.1 88.5 c 128,-1,115
 479.95 103 479.95 103 479.95 109 c 0,116,117
 479.95 113 479.95 113 457.85 132.5 c 128,-1,118
 435.75 152 435.75 152 384.75 203 c 128,-1,119
 333.75 254 333.75 254 281.05 316 c 0,120,121
 269.15 330 269.15 330 257.675 343.5 c 128,-1,122
 246.2 357 246.2 357 238.55 366 c 128,-1,123
 230.9 375 230.9 375 223.675 383.5 c 128,-1,124
 216.45 392 216.45 392 212.2 397 c 128,-1,125
 207.95 402 207.95 402 204.125 407 c 128,-1,126
 200.3 412 200.3 412 197.75 414 c 128,-1,127
 195.2 416 195.2 416 193.075 418 c 128,-1,128
 190.95 420 190.95 420 189.25 420.5 c 128,-1,129
 187.55 421 187.55 421 185.85 421 c 0,130,131
 157.8 421 157.8 421 125.5 379 c 128,-1,132
 93.2002 337 93.2002 337 93.2002 276 c 0,107,108
EndSplineSet
Validated: 524289
Substitution2: "'c2sc' Capitals to Small Capitals in Latin lookup 13 subtable" ampersand.sc
AlternateSubs2: "'aalt' Access All Alternates in Latin lookup 1 subtable" ampersand.sc
AlternateSubs2: "'aalt' Access All Alternates lookup 0 subtable" ampersand.sc
Position2: "'cpsp' Capital Spacing in Latin lookup 0 subtable" dx=10 dy=0 dh=20 dv=0
EndChar

StartChar: parenleft
Encoding: 40 40 11
Width: 304
GlyphClass: 2
Flags: W
VStem: 38.4004 45<111.362 452.768>
LayerCount: 2
Fore
SplineSet
38.4004 278 m 0,0,1
 38.4004 367 38.4004 367 59.4004 450 c 128,-1,2
 80.4004 533 80.4004 533 110.4 589 c 128,-1,3
 140.4 645 140.4 645 172.9 688 c 128,-1,4
 205.4 731 205.4 731 228.9 751.5 c 128,-1,5
 252.4 772 252.4 772 260.4 772 c 0,6,7
 281.4 772 281.4 772 281.4 751 c 0,8,9
 281.4 745 281.4 745 260.9 725 c 128,-1,10
 240.4 705 240.4 705 211.4 670 c 128,-1,11
 182.4 635 182.4 635 153.4 586 c 128,-1,12
 124.4 537 124.4 537 103.9 455.5 c 128,-1,13
 83.4004 374 83.4004 374 83.4004 277 c 0,14,15
 83.4004 188 83.4004 188 103.4 109.5 c 128,-1,16
 123.4 31 123.4 31 151.9 -19.5 c 128,-1,17
 180.4 -70 180.4 -70 209.4 -107.5 c 128,-1,18
 238.4 -145 238.4 -145 258.4 -167 c 128,-1,19
 278.4 -189 278.4 -189 278.4 -195 c 0,20,21
 278.4 -204 278.4 -204 271.4 -209 c 128,-1,22
 264.4 -214 264.4 -214 258.4 -214 c 0,23,24
 247.4 -214 247.4 -214 222.9 -190 c 128,-1,25
 198.4 -166 198.4 -166 166.9 -120 c 128,-1,26
 135.4 -74 135.4 -74 106.4 -16 c 128,-1,27
 77.4004 42 77.4004 42 57.9004 120.5 c 128,-1,28
 38.4004 199 38.4004 199 38.4004 278 c 0,0,1
EndSplineSet
Validated: 524289
Substitution2: "'case' Case-Sensitive Forms in Latin lookup 15 subtable" parenleft.uppercase
Substitution2: "'subs' Subscript in Latin lookup 10 subtable" parenleft.sub
Substitution2: "'sups' Superscript in Latin lookup 9 subtable" parenleft.sup
AlternateSubs2: "'aalt' Access All Alternates in Latin lookup 1 subtable" parenleft.uppercase parenleft.sub parenleft.sup
AlternateSubs2: "'aalt' Access All Alternates lookup 0 subtable" parenleft.uppercase parenleft.sub parenleft.sup
EndChar

StartChar: parenright
Encoding: 41 41 12
Width: 291
GlyphClass: 2
Flags: HW
LayerCount: 2
Fore
SplineSet
-12 -192 m 0,0,1
 -12 -186 -12 -186 8.5 -166 c 128,-1,2
 29 -146 29 -146 58 -111.5 c 128,-1,3
 87 -77 87 -77 116 -28 c 128,-1,4
 145 21 145 21 165.5 102.5 c 128,-1,5
 186 184 186 184 186 281 c 0,6,7
 186 370 186 370 166 448.5 c 128,-1,8
 146 527 146 527 117.5 577.5 c 128,-1,9
 89 628 89 628 60 665.5 c 128,-1,10
 31 703 31 703 11 725 c 128,-1,11
 -9 747 -9 747 -9 753 c 0,12,13
 -9 762 -9 762 -2 767 c 128,-1,14
 5 772 5 772 11 772 c 0,15,16
 22 772 22 772 46.5 748 c 128,-1,17
 71 724 71 724 102.5 678 c 128,-1,18
 134 632 134 632 163 574 c 128,-1,19
 192 516 192 516 211.5 437.5 c 128,-1,20
 231 359 231 359 231 280 c 0,21,22
 231 191 231 191 210 108 c 128,-1,23
 189 25 189 25 159 -31 c 128,-1,24
 129 -87 129 -87 96.5 -130 c 128,-1,25
 64 -173 64 -173 40.5 -193.5 c 128,-1,26
 17 -214 17 -214 9 -214 c 0,27,28
 -12 -214 -12 -214 -12 -192 c 0,0,1
EndSplineSet
Validated: 1
Substitution2: "'case' Case-Sensitive Forms in Latin lookup 15 subtable" parenright.uppercase
Substitution2: "'subs' Subscript in Latin lookup 10 subtable" parenright.sub
Substitution2: "'sups' Superscript in Latin lookup 9 subtable" parenright.sup
AlternateSubs2: "'aalt' Access All Alternates in Latin lookup 1 subtable" parenright.uppercase parenright.sub parenright.sup
AlternateSubs2: "'aalt' Access All Alternates lookup 0 subtable" parenright.uppercase parenright.sub parenright.sup
EndChar

StartChar: asterisk
Encoding: 42 42 13
Width: 399
GlyphClass: 2
Flags: HW
LayerCount: 2
Fore
SplineSet
27.2002 383 m 0,0,1
 27.2002 396 27.2002 396 81.2002 420 c 128,-1,2
 135.2 444 135.2 444 135.2 447 c 0,3,4
 135.2 451 135.2 451 81.2002 476 c 128,-1,5
 27.2002 501 27.2002 501 27.2002 513 c 0,6,7
 27.2002 522 27.2002 522 36.7002 535 c 128,-1,8
 46.2002 548 46.2002 548 59.2002 548 c 0,9,10
 68.2002 548 68.2002 548 107.2 521.5 c 128,-1,11
 146.2 495 146.2 495 150.2 495 c 0,12,13
 155.2 495 155.2 495 155.2 514 c 0,14,15
 155.2 524 155.2 524 153.7 551.5 c 128,-1,16
 152.2 579 152.2 579 152.2 593 c 0,17,18
 152.2 606 152.2 606 157.2 610 c 128,-1,19
 162.2 614 162.2 614 178.2 614 c 0,20,21
 202.2 614 202.2 614 208.7 608 c 128,-1,22
 215.2 602 215.2 602 215.2 578 c 0,23,24
 215.2 569 215.2 569 213.2 546 c 128,-1,25
 211.2 523 211.2 523 211.2 513 c 0,26,27
 211.2 495 211.2 495 216.2 495 c 128,-1,28
 221.2 495 221.2 495 261.7 522 c 128,-1,29
 302.2 549 302.2 549 308.2 549 c 0,30,31
 320.2 549 320.2 549 330.7 536.5 c 128,-1,32
 341.2 524 341.2 524 341.2 514 c 0,33,34
 341.2 502 341.2 502 286.7 477 c 128,-1,35
 232.2 452 232.2 452 232.2 448 c 0,36,37
 232.2 443 232.2 443 286.7 419 c 128,-1,38
 341.2 395 341.2 395 341.2 383 c 0,39,40
 341.2 373 341.2 373 331.2 360.5 c 128,-1,41
 321.2 348 321.2 348 307.2 348 c 0,42,43
 298.2 348 298.2 348 259.2 374.5 c 128,-1,44
 220.2 401 220.2 401 217.2 401 c 0,45,46
 212.2 401 212.2 401 212.2 382 c 0,47,48
 212.2 372 212.2 372 213.7 351.5 c 128,-1,49
 215.2 331 215.2 331 215.2 324 c 0,50,51
 215.2 295 215.2 295 209.7 288.5 c 128,-1,52
 204.2 282 204.2 282 179.2 282 c 0,53,54
 152.2 282 152.2 282 152.2 306 c 0,55,56
 152.2 314 152.2 314 153.7 340 c 128,-1,57
 155.2 366 155.2 366 155.2 378 c 0,58,59
 155.2 401 155.2 401 150.2 401 c 0,60,61
 146.2 401 146.2 401 105.7 374.5 c 128,-1,62
 65.2002 348 65.2002 348 59.2002 348 c 0,63,64
 46.2002 348 46.2002 348 36.7002 361 c 128,-1,65
 27.2002 374 27.2002 374 27.2002 383 c 0,0,1
EndSplineSet
Validated: 524289
EndChar

StartChar: plus
Encoding: 43 43 14
Width: 473
GlyphClass: 2
Flags: HW
LayerCount: 2
Fore
SplineSet
4.7998 212 m 0,0,1
 4.7998 220 4.7998 220 5.2998 223.5 c 128,-1,2
 5.7998 227 5.7998 227 9.7998 229.5 c 128,-1,3
 13.7998 232 13.7998 232 22.7998 232 c 2,4,-1
 182.6 232 l 2,5,6
 201.3 232 201.3 232 201.3 251 c 2,7,-1
 201.3 427 l 2,8,9
 201.3 434 201.3 434 203.8 437.5 c 128,-1,10
 206.3 441 206.3 441 209.8 441.5 c 128,-1,11
 213.3 442 213.3 442 222.3 442 c 128,-1,12
 231.3 442 231.3 442 235.3 441.5 c 128,-1,13
 239.3 441 239.3 441 242.8 436 c 128,-1,14
 246.3 431 246.3 431 246.3 422 c 2,15,-1
 246.3 259 l 2,16,17
 246.3 232 246.3 232 260.75 232 c 2,18,-1
 426.8 232 l 2,19,20
 434.8 232 434.8 232 438.3 229.5 c 128,-1,21
 441.8 227 441.8 227 442.3 223.5 c 128,-1,22
 442.8 220 442.8 220 442.8 211 c 0,23,24
 442.8 197 442.8 197 439.8 192.5 c 128,-1,25
 436.8 188 436.8 188 421.8 188 c 2,26,-1
 260.75 188 l 2,27,28
 250.55 188 250.55 188 248.425 184.5 c 128,-1,29
 246.3 181 246.3 181 246.3 170 c 2,30,-1
 246.3 -5 l 2,31,32
 246.3 -16 246.3 -16 241.3 -19 c 128,-1,33
 236.3 -22 236.3 -22 226.3 -22 c 0,34,35
 210.3 -22 210.3 -22 205.8 -19.5 c 128,-1,36
 201.3 -17 201.3 -17 201.3 -4 c 2,37,-1
 201.3 170 l 2,38,39
 201.3 182 201.3 182 197.475 185 c 128,-1,40
 193.65 188 193.65 188 180.9 188 c 2,41,-1
 21.7998 188 l 2,42,43
 12.7998 188 12.7998 188 9.2998 191 c 128,-1,44
 5.7998 194 5.7998 194 5.2998 197.5 c 128,-1,45
 4.7998 201 4.7998 201 4.7998 212 c 0,0,1
EndSplineSet
Validated: 524289
EndChar

StartChar: comma
Encoding: 44 44 15
Width: 219
GlyphClass: 2
Flags: HW
LayerCount: 2
Fore
SplineSet
23.2002 54 m 0,0,1
 23.2002 59 23.2002 59 26.2002 64 c 128,-1,2
 29.2002 69 29.2002 69 32.7002 72.5 c 128,-1,3
 36.2002 76 36.2002 76 43.2002 82.5 c 128,-1,4
 50.2002 89 50.2002 89 54.2002 93 c 0,5,6
 57.2002 96 57.2002 96 62.2002 103 c 128,-1,7
 67.2002 110 67.2002 110 71.2002 114 c 128,-1,8
 75.2002 118 75.2002 118 81.7002 121.5 c 128,-1,9
 88.2002 125 88.2002 125 96.2002 125 c 0,10,11
 101.2 125 101.2 125 116.2 113 c 128,-1,12
 131.2 101 131.2 101 148.2 70 c 128,-1,13
 165.2 39 165.2 39 165.2 0 c 0,14,15
 165.2 -63 165.2 -63 120.7 -114.5 c 128,-1,16
 76.2002 -166 76.2002 -166 49.2002 -166 c 0,17,18
 34.2002 -166 34.2002 -166 34.2002 -153 c 0,19,20
 34.2002 -146 34.2002 -146 43.7002 -137 c 128,-1,21
 53.2002 -128 53.2002 -128 65.2002 -118.5 c 128,-1,22
 77.2002 -109 77.2002 -109 86.7002 -90.5 c 128,-1,23
 96.2002 -72 96.2002 -72 96.2002 -48 c 0,24,25
 96.2002 -28 96.2002 -28 87.2002 -12.5 c 128,-1,26
 78.2002 3 78.2002 3 70.7002 9.5 c 128,-1,27
 63.2002 16 63.2002 16 40.2002 33 c 0,28,29
 27.2002 42 27.2002 42 25.2002 44.5 c 128,-1,30
 23.2002 47 23.2002 47 23.2002 54 c 0,0,1
EndSplineSet
Validated: 524289
Substitution2: "'subs' Subscript in Latin lookup 10 subtable" comma.sub
Substitution2: "'sups' Superscript in Latin lookup 9 subtable" comma.sup
Substitution2: "'dnom' Denominators in Latin lookup 6 subtable" comma.denom
Substitution2: "'numr' Numerators in Latin lookup 5 subtable" comma.numer
Substitution2: "'dnom' Denominators in Latin lookup 4 subtable" comma.denom
Substitution2: "'numr' Numerators in Latin lookup 3 subtable" comma.numer
AlternateSubs2: "'aalt' Access All Alternates in Latin lookup 1 subtable" comma.sub comma.sup comma.denom comma.numer
AlternateSubs2: "'aalt' Access All Alternates lookup 0 subtable" comma.sub comma.sup comma.denom comma.numer
EndChar

StartChar: hyphen
Encoding: 45 45 16
Width: 311
GlyphClass: 2
Flags: W
HStem: 124 144
VStem: 15.2002 252
LayerCount: 2
Fore
SplineSet
15.2002 145 m 2,0,-1
 15.2002 156 l 2,1,2
 15.2002 185 15.2002 185 24.7002 193 c 128,-1,3
 34.2002 201 34.2002 201 72.2002 212 c 0,4,5
 125.2 228 125.2 228 166.2 242.5 c 128,-1,6
 207.2 257 207.2 257 221.7 262.5 c 128,-1,7
 236.2 268 236.2 268 245.2 268 c 0,8,9
 267.2 268 267.2 268 267.2 234 c 2,10,-1
 267.2 228 l 2,11,12
 267.2 219 267.2 219 266.7 214 c 128,-1,13
 266.2 209 266.2 209 262.7 204 c 128,-1,14
 259.2 199 259.2 199 256.7 197 c 128,-1,15
 254.2 195 254.2 195 244.7 191 c 128,-1,16
 235.2 187 235.2 187 227.7 185 c 128,-1,17
 220.2 183 220.2 183 202.7 178 c 128,-1,18
 185.2 173 185.2 173 170.2 168 c 0,19,20
 142.2 159 142.2 159 114.7 149 c 128,-1,21
 87.2002 139 87.2002 139 74.7002 134.5 c 128,-1,22
 62.2002 130 62.2002 130 51.2002 127 c 128,-1,23
 40.2002 124 40.2002 124 31.2002 124 c 0,24,25
 15.2002 124 15.2002 124 15.2002 145 c 2,0,-1
EndSplineSet
Validated: 524289
Substitution2: "'case' Case-Sensitive Forms in Latin lookup 15 subtable" hyphen.uppercase
AlternateSubs2: "'aalt' Access All Alternates in Latin lookup 1 subtable" hyphen.uppercase
AlternateSubs2: "'aalt' Access All Alternates lookup 0 subtable" hyphen.uppercase
EndChar

StartChar: period
Encoding: 46 46 17
Width: 221
GlyphClass: 2
Flags: W
HStem: -16 145<67.8721 121.396>
VStem: 23.2002 144<29.5249 82.1677>
LayerCount: 2
Fore
SplineSet
23.2002 55 m 128,-1,1
 23.2002 67 23.2002 67 54.2002 94 c 0,2,3
 58.2002 98 58.2002 98 65.7002 108 c 128,-1,4
 73.2002 118 73.2002 118 80.7002 123.5 c 128,-1,5
 88.2002 129 88.2002 129 96.2002 129 c 128,-1,6
 104.2 129 104.2 129 137.2 90 c 0,7,8
 140.2 87 140.2 87 148.7 79.5 c 128,-1,9
 157.2 72 157.2 72 162.2 65.5 c 128,-1,10
 167.2 59 167.2 59 167.2 55 c 0,11,12
 167.2 50 167.2 50 162.2 44.5 c 128,-1,13
 157.2 39 157.2 39 147.2 31 c 128,-1,14
 137.2 23 137.2 23 132.2 19 c 0,15,16
 128.2 15 128.2 15 120.7 5 c 128,-1,17
 113.2 -5 113.2 -5 106.7 -10.5 c 128,-1,18
 100.2 -16 100.2 -16 94.2002 -16 c 0,19,20
 85.2002 -16 85.2002 -16 71.2002 1.5 c 128,-1,21
 57.2002 19 57.2002 19 54.2002 21 c 0,22,0
 23.2002 43 23.2002 43 23.2002 55 c 128,-1,1
EndSplineSet
Validated: 524289
Substitution2: "'subs' Subscript in Latin lookup 10 subtable" period.sub
Substitution2: "'sups' Superscript in Latin lookup 9 subtable" period.sup
Substitution2: "'dnom' Denominators in Latin lookup 6 subtable" period.denom
Substitution2: "'numr' Numerators in Latin lookup 5 subtable" period.numer
Substitution2: "'dnom' Denominators in Latin lookup 4 subtable" period.denom
Substitution2: "'numr' Numerators in Latin lookup 3 subtable" period.numer
AlternateSubs2: "'aalt' Access All Alternates in Latin lookup 1 subtable" period.sub period.sup period.denom period.numer
AlternateSubs2: "'aalt' Access All Alternates lookup 0 subtable" period.sub period.sup period.denom period.numer
EndChar

StartChar: slash
Encoding: 47 47 18
Width: 371
GlyphClass: 2
Flags: HW
LayerCount: 2
Fore
SplineSet
-4 -170 m 0,0,1
 -4 -168 -4 -168 15 -113 c 1,2,3
 299.6 710 299.6 710 301.6 717 c 0,4,5
 305.6 728 305.6 728 311.1 731.5 c 128,-1,6
 316.6 735 316.6 735 330.6 735 c 0,7,8
 351.6 735 351.6 735 351.6 723 c 0,9,10
 351.6 715 351.6 715 337.6 679 c 2,11,-1
 54 -152 l 2,12,13
 46 -174 46 -174 40.5 -178.5 c 128,-1,14
 35 -183 35 -183 22 -183 c 0,15,16
 -4 -183 -4 -183 -4 -170 c 0,0,1
EndSplineSet
Validated: 524289
Substitution2: "'numr' Numerators in Latin lookup 3 subtable" fraction
AlternateSubs2: "'aalt' Access All Alternates in Latin lookup 1 subtable" fraction
AlternateSubs2: "'aalt' Access All Alternates lookup 0 subtable" fraction
EndChar

StartChar: zero
Encoding: 48 48 19
Width: 449
GlyphClass: 2
Flags: HW
LayerCount: 2
Fore
SplineSet
11.2002 212 m 0,0,1
 11.2002 313 11.2002 313 72.3496 370 c 128,-1,2
 133.5 427 133.5 427 210.85 427 c 0,3,4
 289.9 427 289.9 427 350.4 370.5 c 128,-1,5
 410.9 314 410.9 314 410.9 206 c 0,6,7
 410.9 116 410.9 116 357.625 50.5 c 128,-1,8
 304.35 -15 304.35 -15 216.8 -15 c 0,9,10
 120.75 -15 120.75 -15 65.9746 52 c 128,-1,11
 11.2002 119 11.2002 119 11.2002 212 c 0,0,1
67.2002 207 m 0,12,13
 67.2002 126 67.2002 126 112.25 82.5 c 128,-1,14
 157.3 39 157.3 39 216.8 39 c 0,15,16
 274.6 39 274.6 39 316.25 87 c 128,-1,17
 357.9 135 357.9 135 357.9 214 c 0,18,19
 357.9 288 357.9 288 312.425 332 c 128,-1,20
 266.95 376 266.95 376 207.45 376 c 0,21,22
 148.8 376 148.8 376 108 332.5 c 128,-1,23
 67.2002 289 67.2002 289 67.2002 207 c 0,12,13
EndSplineSet
Validated: 524289
Substitution2: "'lnum' Lining Figures in Latin lookup 11 subtable" zero.lining
Substitution2: "'subs' Subscript in Latin lookup 10 subtable" zero.lining.sub
Substitution2: "'sups' Superscript in Latin lookup 9 subtable" zero.lining.sup
Substitution2: "'dnom' Denominators in Latin lookup 4 subtable" zero.lining.denom
Substitution2: "'numr' Numerators in Latin lookup 3 subtable" zero.lining.numer
AlternateSubs2: "'aalt' Access All Alternates in Latin lookup 1 subtable" zero.lining zero.lining.sub zero.lining.sup zero.lining.denom zero.lining.numer
AlternateSubs2: "'aalt' Access All Alternates lookup 0 subtable" zero.lining zero.lining.sub zero.lining.sup zero.lining.denom zero.lining.numer
EndChar

StartChar: one
Encoding: 49 49 20
Width: 316
GlyphClass: 2
Flags: HW
LayerCount: 2
Fore
SplineSet
-4 12 m 0,0,1
 -4 21 -4 21 10 25.5 c 128,-1,2
 24 30 24 30 41 31 c 128,-1,3
 58 32 58 32 73.5 40.5 c 128,-1,4
 89 49 89 49 92 66 c 0,5,6
 101 120 101 120 101 169 c 2,7,-1
 101 249 l 2,8,9
 101 260 101 260 101.5 277 c 128,-1,10
 102 294 102 294 102 300 c 0,11,12
 102 362 102 362 88.5 376 c 128,-1,13
 75 390 75 390 22 393 c 1,14,15
 4 393 4 393 4 408 c 0,16,17
 4 419 4 419 25 419 c 0,18,19
 27 419 27 419 54 416 c 128,-1,20
 81 413 81 413 141 413 c 0,21,22
 181 413 181 413 209.5 415.5 c 128,-1,23
 238 418 238 418 246 418 c 0,24,25
 257 418 257 418 263 413 c 128,-1,26
 269 408 269 408 269 403 c 0,27,28
 269 397 269 397 265.5 393.5 c 128,-1,29
 262 390 262 390 258 389 c 128,-1,30
 254 388 254 388 246.5 387.5 c 128,-1,31
 239 387 239 387 236 386 c 0,32,33
 231 385 231 385 219 383.5 c 128,-1,34
 207 382 207 382 203.5 381 c 128,-1,35
 200 380 200 380 192.5 374.5 c 128,-1,36
 185 369 185 369 183 359.5 c 128,-1,37
 181 350 181 350 178.5 333 c 128,-1,38
 176 316 176 316 176 291 c 0,39,40
 176 285 176 285 175.5 269 c 128,-1,41
 175 253 175 253 175 240 c 0,42,43
 175 230 175 230 174 189.5 c 128,-1,44
 173 149 173 149 173 126 c 2,45,-1
 173 103 l 2,46,47
 173 77 173 77 177 61 c 1,48,49
 183 43 183 43 212.5 35.5 c 128,-1,50
 242 28 242 28 269 24 c 128,-1,51
 296 20 296 20 296 9 c 0,52,53
 296 0 296 0 290 -2 c 128,-1,54
 284 -4 284 -4 268 -4 c 0,55,56
 254 -4 254 -4 208.5 -1.5 c 128,-1,57
 163 1 163 1 140 1 c 128,-1,58
 117 1 117 1 76.5 -1.5 c 128,-1,59
 36 -4 36 -4 24 -4 c 0,60,61
 -4 -4 -4 -4 -4 12 c 0,0,1
EndSplineSet
Validated: 1
Substitution2: "'lnum' Lining Figures in Latin lookup 11 subtable" one.lining
Substitution2: "'subs' Subscript in Latin lookup 10 subtable" one.lining.sub
Substitution2: "'sups' Superscript in Latin lookup 9 subtable" one.lining.sup
Substitution2: "'dnom' Denominators in Latin lookup 4 subtable" one.lining.denom
Substitution2: "'numr' Numerators in Latin lookup 3 subtable" one.lining.numer
AlternateSubs2: "'aalt' Access All Alternates in Latin lookup 1 subtable" one.lining one.lining.sub one.lining.sup one.lining.denom one.lining.numer
AlternateSubs2: "'aalt' Access All Alternates lookup 0 subtable" one.lining one.lining.sub one.lining.sup one.lining.denom one.lining.numer
EndChar

StartChar: two
Encoding: 50 50 21
Width: 420
GlyphClass: 2
Flags: HW
LayerCount: 2
Fore
SplineSet
3.2002 8 m 0,0,1
 3.2002 14 3.2002 14 8.7002 18 c 128,-1,2
 14.2002 22 14.2002 22 31.2002 29 c 128,-1,3
 48.2002 36 48.2002 36 63.2002 45 c 0,4,5
 166.95 112 166.95 112 211.15 178 c 128,-1,6
 255.35 244 255.35 244 255.35 297 c 0,7,8
 255.35 340 255.35 340 226.875 366 c 128,-1,9
 198.4 392 198.4 392 170.35 392 c 0,10,11
 120.2 392 120.2 392 120.2 346 c 0,12,13
 120.2 335 120.2 335 127 314 c 128,-1,14
 133.8 293 133.8 293 133.8 287 c 0,15,16
 133.8 277 133.8 277 122.75 277 c 0,17,18
 98.2002 277 98.2002 277 75.7002 288.5 c 128,-1,19
 53.2002 300 53.2002 300 53.2002 313 c 0,20,21
 53.2002 325 53.2002 325 61.2002 342 c 128,-1,22
 69.2002 359 69.2002 359 86.2002 378.5 c 128,-1,23
 103.2 398 103.2 398 135.075 411 c 128,-1,24
 166.95 424 166.95 424 207.75 424 c 0,25,26
 258.35 424 258.35 424 295.85 396 c 128,-1,27
 333.35 368 333.35 368 333.35 316 c 0,28,29
 333.35 273 333.35 273 293.925 222 c 128,-1,30
 254.5 171 254.5 171 212 130 c 0,31,32
 160.15 80 160.15 80 160.15 72 c 128,-1,33
 160.15 64 160.15 64 199.25 64 c 0,34,35
 289.35 64 289.35 64 331.35 77 c 0,36,37
 347.35 82 347.35 82 364.85 104.5 c 128,-1,38
 382.35 127 382.35 127 386.35 127 c 0,39,40
 398.35 127 398.35 127 398.35 116 c 0,41,42
 398.35 113 398.35 113 373.35 65.5 c 128,-1,43
 348.35 18 348.35 18 345.35 14 c 0,44,45
 330.35 -3 330.35 -3 324.35 -4 c 0,46,47
 320.35 -4 320.35 -4 308.35 -3.5 c 128,-1,48
 296.35 -3 296.35 -3 258.425 -2 c 128,-1,49
 220.5 -1 220.5 -1 160.15 -1 c 0,50,51
 102.2 -1 102.2 -1 67.7002 -1.5 c 128,-1,52
 33.2002 -2 33.2002 -2 30.2002 -2 c 0,53,54
 3.2002 -2 3.2002 -2 3.2002 8 c 0,0,1
EndSplineSet
Validated: 524289
Substitution2: "'lnum' Lining Figures in Latin lookup 11 subtable" two.lining
Substitution2: "'subs' Subscript in Latin lookup 10 subtable" two.lining.sub
Substitution2: "'sups' Superscript in Latin lookup 9 subtable" two.lining.sup
Substitution2: "'dnom' Denominators in Latin lookup 4 subtable" two.lining.denom
Substitution2: "'numr' Numerators in Latin lookup 3 subtable" two.lining.numer
AlternateSubs2: "'aalt' Access All Alternates in Latin lookup 1 subtable" two.lining two.lining.sub two.lining.sup two.lining.denom two.lining.numer
AlternateSubs2: "'aalt' Access All Alternates lookup 0 subtable" two.lining two.lining.sub two.lining.sup two.lining.denom two.lining.numer
EndChar

StartChar: three
Encoding: 51 51 22
Width: 374
GlyphClass: 2
Flags: HW
LayerCount: 2
Fore
SplineSet
11.2002 -136 m 1,0,1
 11.2002 -104 11.2002 -104 29.2002 -104 c 0,2,3
 33.2002 -104 33.2002 -104 44.2002 -117 c 128,-1,4
 55.2002 -130 55.2002 -130 78.2002 -142.5 c 128,-1,5
 101.2 -155 101.2 -155 134.2 -155 c 0,6,7
 193.2 -155 193.2 -155 233.2 -106.5 c 128,-1,8
 273.2 -58 273.2 -58 273.2 -4 c 0,9,10
 273.2 44 273.2 44 232.2 76 c 128,-1,11
 191.2 108 191.2 108 125.2 108 c 0,12,13
 116.2 108 116.2 108 105.2 107 c 128,-1,14
 94.2002 106 94.2002 106 87.2002 104.5 c 128,-1,15
 80.2002 103 80.2002 103 79.2002 103 c 0,16,17
 66.2002 103 66.2002 103 66.2002 114 c 0,18,19
 66.2002 119 66.2002 119 67.2002 121 c 128,-1,20
 68.2002 123 68.2002 123 73.7002 126 c 128,-1,21
 79.2002 129 79.2002 129 86.7002 132.5 c 128,-1,22
 94.2002 136 94.2002 136 110.2 146 c 128,-1,23
 126.2 156 126.2 156 145.2 169 c 0,24,25
 174.2 190 174.2 190 198.2 223 c 128,-1,26
 222.2 256 222.2 256 222.2 296 c 0,27,28
 222.2 327 222.2 327 194.7 351.5 c 128,-1,29
 167.2 376 167.2 376 130.2 376 c 0,30,31
 98.2002 376 98.2002 376 77.7002 360 c 128,-1,32
 57.2002 344 57.2002 344 51.2002 344 c 0,33,34
 40.2002 344 40.2002 344 40.2002 354 c 0,35,36
 40.2002 371 40.2002 371 80.2002 397.5 c 128,-1,37
 120.2 424 120.2 424 164.2 424 c 0,38,39
 215.2 424 215.2 424 254.7 402.5 c 128,-1,40
 294.2 381 294.2 381 294.2 331 c 0,41,42
 294.2 302 294.2 302 276.7 272.5 c 128,-1,43
 259.2 243 259.2 243 238.7 224 c 128,-1,44
 218.2 205 218.2 205 200.7 190 c 128,-1,45
 183.2 175 183.2 175 183.2 171 c 0,46,47
 183.2 170 183.2 170 193.7 168.5 c 128,-1,48
 204.2 167 204.2 167 223.2 162.5 c 128,-1,49
 242.2 158 242.2 158 258.2 150 c 0,50,51
 330.2 114 330.2 114 330.2 42 c 0,52,53
 330.2 -41 330.2 -41 259.2 -122.5 c 128,-1,54
 188.2 -204 188.2 -204 97.2002 -204 c 0,55,56
 12.2002 -204 12.2002 -204 12.2002 -168 c 0,57,58
 12.2002 -160 12.2002 -160 12.2002 -148 c 2,59,-1
 11.2002 -136 l 1,0,1
EndSplineSet
Validated: 524289
Substitution2: "'lnum' Lining Figures in Latin lookup 11 subtable" three.lining
Substitution2: "'subs' Subscript in Latin lookup 10 subtable" three.lining.sub
Substitution2: "'sups' Superscript in Latin lookup 9 subtable" three.lining.sup
Substitution2: "'dnom' Denominators in Latin lookup 4 subtable" three.lining.denom
Substitution2: "'numr' Numerators in Latin lookup 3 subtable" three.lining.numer
AlternateSubs2: "'aalt' Access All Alternates in Latin lookup 1 subtable" three.lining three.lining.sub three.lining.sup three.lining.denom three.lining.numer
AlternateSubs2: "'aalt' Access All Alternates lookup 0 subtable" three.lining three.lining.sub three.lining.sup three.lining.denom three.lining.numer
EndChar

StartChar: four
Encoding: 52 52 23
Width: 452
GlyphClass: 2
Flags: HW
LayerCount: 2
Fore
SplineSet
-12 14 m 0,0,1
 -12 24 -12 24 -3.5 35 c 128,-1,2
 5 46 5 46 52 97 c 0,3,4
 161.55 226 161.55 226 272.65 369 c 0,5,6
 274.65 372 274.65 372 281.15 379.5 c 128,-1,7
 287.65 387 287.65 387 292.15 392.5 c 128,-1,8
 296.65 398 296.65 398 303.15 404 c 128,-1,9
 309.65 410 309.65 410 314.65 413.5 c 128,-1,10
 319.65 417 319.65 417 323.65 417 c 0,11,12
 334.65 417 334.65 417 334.65 393 c 0,13,14
 334.65 392 334.65 392 331.65 323.5 c 128,-1,15
 328.65 255 328.65 255 325.15 178.5 c 128,-1,16
 321.65 102 321.65 102 321.65 81 c 0,17,18
 321.65 67 321.65 67 339.65 67 c 0,19,20
 363.65 67 363.65 67 378.65 70.5 c 128,-1,21
 393.65 74 393.65 74 397.65 78.5 c 128,-1,22
 401.65 83 401.65 83 405.65 86.5 c 128,-1,23
 409.65 90 409.65 90 414.65 90 c 0,24,25
 427.65 90 427.65 90 427.65 77 c 0,26,27
 427.65 71 427.65 71 425.15 63 c 128,-1,28
 422.65 55 422.65 55 417.65 43.5 c 128,-1,29
 412.65 32 412.65 32 410.65 27 c 0,30,31
 409.65 25 409.65 25 407.65 19.5 c 128,-1,32
 405.65 14 405.65 14 404.15 10.5 c 128,-1,33
 402.65 7 402.65 7 400.15 3 c 128,-1,34
 397.65 -1 397.65 -1 394.65 -3 c 128,-1,35
 391.65 -5 391.65 -5 387.65 -5 c 0,36,37
 379.65 -5 379.65 -5 359.65 -4.5 c 128,-1,38
 339.65 -4 339.65 -4 332.65 -4 c 0,39,40
 323.65 -4 323.65 -4 321.15 -8 c 128,-1,41
 318.65 -12 318.65 -12 318.65 -23 c 0,42,43
 318.65 -38 318.65 -38 320.15 -75.5 c 128,-1,44
 321.65 -113 321.65 -113 321.65 -129 c 0,45,46
 321.65 -131 321.65 -131 322.15 -140 c 128,-1,47
 322.65 -149 322.65 -149 322.65 -155 c 0,48,49
 322.65 -174 322.65 -174 306.65 -179 c 0,50,51
 280.65 -186 280.65 -186 262.65 -186 c 0,52,53
 244.85 -186 244.85 -186 244.85 -172 c 0,54,55
 244.85 -168 244.85 -168 246.125 -162.5 c 128,-1,56
 247.4 -157 247.4 -157 248.25 -147.5 c 128,-1,57
 249.1 -138 249.1 -138 250.375 -104 c 128,-1,58
 251.65 -70 251.65 -70 251.65 -16 c 0,59,60
 251.65 0 251.65 0 244 0 c 0,61,62
 233.8 0 233.8 0 190.45 -1 c 128,-1,63
 147.1 -2 147.1 -2 117.35 -2 c 0,64,65
 97 -2 97 -2 63.5 -1.5 c 128,-1,66
 30 -1 30 -1 16 -1 c 0,67,68
 4 -1 4 -1 -0.5 -0.5 c 128,-1,69
 -5 0 -5 0 -8.5 3.5 c 128,-1,70
 -12 7 -12 7 -12 14 c 0,0,1
81 76 m 0,71,72
 81 64 81 64 117.35 64 c 2,73,-1
 148.8 64 l 2,74,75
 158.15 64 158.15 64 181.525 63.5 c 128,-1,76
 204.9 63 204.9 63 215.95 63 c 0,77,78
 238.9 63 238.9 63 246.775 64.5 c 128,-1,79
 254.65 66 254.65 66 254.65 73 c 0,80,81
 257.65 215 257.65 215 257.65 272 c 0,82,83
 257.65 296 257.65 296 252.95 296 c 128,-1,84
 248.25 296 248.25 296 224.45 266.5 c 128,-1,85
 200.65 237 200.65 237 192.15 225 c 0,86,87
 176 201 176 201 147.525 164.5 c 128,-1,88
 119.05 128 119.05 128 100.025 104.5 c 128,-1,89
 81 81 81 81 81 76 c 0,71,72
EndSplineSet
Validated: 524289
Substitution2: "'lnum' Lining Figures in Latin lookup 11 subtable" four.lining
Substitution2: "'subs' Subscript in Latin lookup 10 subtable" four.lining.sub
Substitution2: "'sups' Superscript in Latin lookup 9 subtable" four.lining.sup
Substitution2: "'dnom' Denominators in Latin lookup 4 subtable" four.lining.denom
Substitution2: "'numr' Numerators in Latin lookup 3 subtable" four.lining.numer
AlternateSubs2: "'aalt' Access All Alternates in Latin lookup 1 subtable" four.lining four.lining.sub four.lining.sup four.lining.denom four.lining.numer
AlternateSubs2: "'aalt' Access All Alternates lookup 0 subtable" four.lining four.lining.sub four.lining.sup four.lining.denom four.lining.numer
EndChar

StartChar: five
Encoding: 53 53 24
Width: 298
GlyphClass: 2
Flags: HW
LayerCount: 2
Fore
SplineSet
-57.5996 -127 m 0,0,1
 -57.5996 -99 -57.5996 -99 -45.5996 -99 c 0,2,3
 -37.5996 -99 -37.5996 -99 -24.0996 -114.5 c 128,-1,4
 -10.5996 -130 -10.5996 -130 13.9004 -146 c 128,-1,5
 38.4004 -162 38.4004 -162 71.75 -162 c 0,6,7
 117.65 -162 117.65 -162 153.35 -98 c 128,-1,8
 189.05 -34 189.05 -34 189.05 43 c 0,9,10
 189.05 90 189.05 90 177.15 118.5 c 128,-1,11
 165.25 147 165.25 147 132.1 175 c 0,12,13
 113.4 190 113.4 190 93.4248 198 c 128,-1,14
 73.4502 206 73.4502 206 60.4248 207.5 c 128,-1,15
 47.4004 209 47.4004 209 37.9004 213.5 c 128,-1,16
 28.4004 218 28.4004 218 28.4004 229 c 0,17,18
 28.4004 239 28.4004 239 32.4004 247.5 c 128,-1,19
 36.4004 256 36.4004 256 50.6748 292.5 c 128,-1,20
 64.9502 329 64.9502 329 80.25 389 c 0,21,22
 86.2002 413 86.2002 413 106.6 413 c 0,23,24
 108.3 413 108.3 413 131.675 412 c 128,-1,25
 155.05 411 155.05 411 169.5 411 c 2,26,-1
 174.05 411 l 2,27,28
 189.05 411 189.05 411 199.05 411 c 128,-1,29
 209.05 411 209.05 411 217.05 411.5 c 128,-1,30
 225.05 412 225.05 412 229.55 412.5 c 128,-1,31
 234.05 413 234.05 413 237.55 413.5 c 128,-1,32
 241.05 414 241.05 414 243.05 415.5 c 128,-1,33
 245.05 417 245.05 417 246.05 417.5 c 128,-1,34
 247.05 418 247.05 418 249.05 421 c 128,-1,35
 251.05 424 251.05 424 252.05 425 c 0,36,37
 256.05 429 256.05 429 260.55 435 c 128,-1,38
 265.05 441 265.05 441 267.55 444 c 128,-1,39
 270.05 447 270.05 447 273.05 449.5 c 128,-1,40
 276.05 452 276.05 452 279.05 452 c 0,41,42
 292.05 452 292.05 452 292.05 441 c 0,43,44
 292.05 436 292.05 436 289.05 429 c 0,45,46
 280.05 411 280.05 411 273.05 394.5 c 128,-1,47
 266.05 378 266.05 378 263.05 370 c 128,-1,48
 260.05 362 260.05 362 257.55 355.5 c 128,-1,49
 255.05 349 255.05 349 252.55 347.5 c 128,-1,50
 250.05 346 250.05 346 247.05 345 c 128,-1,51
 244.05 344 244.05 344 237.05 344 c 0,52,53
 92.1504 343 92.1504 343 89.5996 334 c 0,54,55
 76.8496 299 76.8496 299 76.8496 289 c 128,-1,56
 76.8496 279 76.8496 279 96.8252 272.5 c 128,-1,57
 116.8 266 116.8 266 150.925 250 c 128,-1,58
 185.05 234 185.05 234 211.05 206 c 0,59,60
 224.05 192 224.05 192 239.05 158.5 c 128,-1,61
 254.05 125 254.05 125 254.05 84 c 0,62,63
 254.05 -1 254.05 -1 208.05 -78 c 0,64,65
 138.9 -205 138.9 -205 13.4004 -205 c 0,66,67
 -13.5996 -205 -13.5996 -205 -43.5996 -188 c 0,68,69
 -49.5996 -184 -49.5996 -184 -53.5996 -160.5 c 128,-1,70
 -57.5996 -137 -57.5996 -137 -57.5996 -127 c 0,0,1
EndSplineSet
Validated: 524289
Substitution2: "'lnum' Lining Figures in Latin lookup 11 subtable" five.lining
Substitution2: "'subs' Subscript in Latin lookup 10 subtable" five.lining.sub
Substitution2: "'sups' Superscript in Latin lookup 9 subtable" five.lining.sup
Substitution2: "'dnom' Denominators in Latin lookup 4 subtable" five.lining.denom
Substitution2: "'numr' Numerators in Latin lookup 3 subtable" five.lining.numer
AlternateSubs2: "'aalt' Access All Alternates in Latin lookup 1 subtable" five.lining five.lining.sub five.lining.sup five.lining.denom five.lining.numer
AlternateSubs2: "'aalt' Access All Alternates lookup 0 subtable" five.lining five.lining.sub five.lining.sup five.lining.denom five.lining.numer
EndChar

StartChar: six
Encoding: 54 54 25
Width: 428
GlyphClass: 2
Flags: HW
LayerCount: 2
Fore
SplineSet
15.2002 255 m 0,0,1
 15.2002 369 15.2002 369 76.0996 472 c 128,-1,2
 137 575 137 575 214.35 638 c 0,3,4
 245.8 664 245.8 664 282.775 679 c 128,-1,5
 319.75 694 319.75 694 342.75 694 c 0,6,7
 357.75 694 357.75 694 357.75 681 c 128,-1,8
 357.75 668 357.75 668 347.75 667 c 0,9,10
 306.15 661 306.15 661 279.8 645 c 128,-1,11
 253.45 629 253.45 629 217.75 593 c 0,12,13
 180.35 556 180.35 556 152.725 501 c 128,-1,14
 125.1 446 125.1 446 115.75 414 c 128,-1,15
 106.4 382 106.4 382 106.4 375 c 0,16,17
 106.4 371 106.4 371 108.95 371 c 0,18,19
 109.8 371 109.8 371 122.125 384.5 c 128,-1,20
 134.45 398 134.45 398 158.675 411.5 c 128,-1,21
 182.9 425 182.9 425 214.35 425 c 0,22,23
 288.3 425 288.3 425 336.525 366 c 128,-1,24
 384.75 307 384.75 307 384.75 208 c 0,25,26
 384.75 113 384.75 113 334.4 46.5 c 128,-1,27
 284.05 -20 284.05 -20 206.7 -20 c 0,28,29
 137.85 -20 137.85 -20 74.2002 53 c 0,30,31
 15.2002 115 15.2002 115 15.2002 255 c 0,0,1
96.2002 261 m 0,32,33
 96.2002 193 96.2002 193 108.525 142 c 128,-1,34
 120.85 91 120.85 91 140.4 64 c 128,-1,35
 159.95 37 159.95 37 179.925 24.5 c 128,-1,36
 199.9 12 199.9 12 219.45 12 c 0,37,38
 256.85 12 256.85 12 288.3 53 c 128,-1,39
 319.75 94 319.75 94 319.75 169 c 0,40,41
 319.75 196 319.75 196 311.675 230 c 128,-1,42
 303.6 264 303.6 264 288.3 299 c 128,-1,43
 273 334 273 334 244.1 358 c 128,-1,44
 215.2 382 215.2 382 178.65 382 c 0,45,46
 149.75 382 149.75 382 113.2 351 c 0,47,48
 107.25 345 107.25 345 105.125 342 c 128,-1,49
 103 339 103 339 99.5996 318.5 c 128,-1,50
 96.2002 298 96.2002 298 96.2002 261 c 0,32,33
EndSplineSet
Validated: 524289
Substitution2: "'lnum' Lining Figures in Latin lookup 11 subtable" six.lining
Substitution2: "'subs' Subscript in Latin lookup 10 subtable" six.lining.sub
Substitution2: "'sups' Superscript in Latin lookup 9 subtable" six.lining.sup
Substitution2: "'dnom' Denominators in Latin lookup 4 subtable" six.lining.denom
Substitution2: "'numr' Numerators in Latin lookup 3 subtable" six.lining.numer
AlternateSubs2: "'aalt' Access All Alternates in Latin lookup 1 subtable" six.lining six.lining.sub six.lining.sup six.lining.denom six.lining.numer
AlternateSubs2: "'aalt' Access All Alternates lookup 0 subtable" six.lining six.lining.sub six.lining.sup six.lining.denom six.lining.numer
EndChar

StartChar: seven
Encoding: 55 55 26
Width: 444
GlyphClass: 2
Flags: HW
LayerCount: 2
Fore
SplineSet
-1.59961 -175 m 0,0,1
 -1.59961 -160 -1.59961 -160 168.475 82 c 128,-1,2
 338.55 324 338.55 324 338.55 335 c 128,-1,3
 338.55 346 338.55 346 281.6 346 c 2,4,-1
 215.3 346 l 2,5,6
 184.7 346 184.7 346 165.575 345 c 128,-1,7
 146.45 344 146.45 344 118.425 339.5 c 128,-1,8
 90.4004 335 90.4004 335 72.9004 323 c 128,-1,9
 55.4004 311 55.4004 311 51.4004 293 c 0,10,11
 49.4004 284 49.4004 284 38.4004 284 c 0,12,13
 28.4004 284 28.4004 284 28.4004 292 c 0,14,15
 28.4004 306 28.4004 306 36.9004 344.5 c 128,-1,16
 45.4004 383 45.4004 383 45.4004 398 c 1,17,18
 46.4004 412 46.4004 412 89.4004 412 c 0,19,20
 118.4 412 118.4 412 172.375 410 c 128,-1,21
 226.35 408 226.35 408 259.5 408 c 0,22,23
 308.55 408 308.55 408 344.55 410.5 c 128,-1,24
 380.55 413 380.55 413 390.05 416 c 128,-1,25
 399.55 419 399.55 419 405.05 421.5 c 128,-1,26
 410.55 424 410.55 424 413.55 424 c 0,27,28
 424.55 424 424.55 424 424.55 413 c 0,29,30
 424.55 404 424.55 404 391.55 354 c 2,31,-1
 151.55 -40 l 2,32,33
 137.1 -65 137.1 -65 125.75 -87.5 c 128,-1,34
 114.4 -110 114.4 -110 107.4 -124.5 c 128,-1,35
 100.4 -139 100.4 -139 95.4004 -151 c 128,-1,36
 90.4004 -163 90.4004 -163 88.4004 -169.5 c 128,-1,37
 86.4004 -176 86.4004 -176 84.4004 -180.5 c 128,-1,38
 82.4004 -185 82.4004 -185 79.9004 -186.5 c 128,-1,39
 77.4004 -188 77.4004 -188 72.4004 -188 c 0,40,41
 69.4004 -188 69.4004 -188 51.9004 -187 c 128,-1,42
 34.4004 -186 34.4004 -186 20.4004 -186 c 0,43,44
 -1.59961 -186 -1.59961 -186 -1.59961 -175 c 0,0,1
EndSplineSet
Validated: 524289
Substitution2: "'lnum' Lining Figures in Latin lookup 11 subtable" seven.lining
Substitution2: "'subs' Subscript in Latin lookup 10 subtable" seven.lining.sub
Substitution2: "'sups' Superscript in Latin lookup 9 subtable" seven.lining.sup
Substitution2: "'dnom' Denominators in Latin lookup 4 subtable" seven.lining.denom
Substitution2: "'numr' Numerators in Latin lookup 3 subtable" seven.lining.numer
AlternateSubs2: "'aalt' Access All Alternates in Latin lookup 1 subtable" seven.lining seven.lining.sub seven.lining.sup seven.lining.denom seven.lining.numer
AlternateSubs2: "'aalt' Access All Alternates lookup 0 subtable" seven.lining seven.lining.sub seven.lining.sup seven.lining.denom seven.lining.numer
EndChar

StartChar: eight
Encoding: 56 56 27
Width: 424
GlyphClass: 2
Flags: HW
LayerCount: 2
Fore
SplineSet
11.2002 179 m 0,0,1
 11.2002 219 11.2002 219 24.7002 250 c 128,-1,2
 38.2002 281 38.2002 281 56.0498 298 c 128,-1,3
 73.9004 315 73.9004 315 90.4746 326 c 128,-1,4
 107.05 337 107.05 337 118.525 342.5 c 128,-1,5
 130 348 130 348 130 350 c 128,-1,6
 130 352 130 352 115.125 364 c 128,-1,7
 100.25 376 100.25 376 82.4004 392 c 128,-1,8
 64.5498 408 64.5498 408 47.875 440 c 128,-1,9
 31.2002 472 31.2002 472 31.2002 510 c 0,10,11
 31.2002 587 31.2002 587 76.7754 637 c 128,-1,12
 122.35 687 122.35 687 188.65 687 c 0,13,14
 262.6 687 262.6 687 304.275 641.5 c 128,-1,15
 345.95 596 345.95 596 345.95 524 c 0,16,17
 345.95 491 345.95 491 336.45 464 c 128,-1,18
 326.95 437 326.95 437 314.75 421.5 c 128,-1,19
 302.55 406 302.55 406 290.65 395.5 c 128,-1,20
 278.75 385 278.75 385 270.675 379 c 128,-1,21
 262.6 373 262.6 373 262.6 371 c 0,22,23
 262.6 367 262.6 367 280.45 354 c 128,-1,24
 298.3 341 298.3 341 321.125 323.5 c 128,-1,25
 343.95 306 343.95 306 364.95 269.5 c 128,-1,26
 385.95 233 385.95 233 385.95 188 c 0,27,28
 385.95 106 385.95 106 337.025 42 c 128,-1,29
 288.1 -22 288.1 -22 202.25 -22 c 0,30,31
 135.1 -22 135.1 -22 98.5498 3 c 0,32,33
 60.2998 29 60.2998 29 35.75 75.5 c 128,-1,34
 11.2002 122 11.2002 122 11.2002 179 c 0,0,1
55.2002 180 m 0,35,36
 55.2002 105 55.2002 105 95.5752 57 c 128,-1,37
 135.95 9 135.95 9 197.15 9 c 0,38,39
 260.05 9 260.05 9 291.5 53.5 c 128,-1,40
 322.95 98 322.95 98 322.95 151 c 0,41,42
 322.95 215 322.95 215 264.3 273.5 c 128,-1,43
 205.65 332 205.65 332 177.6 332 c 0,44,45
 170.8 332 170.8 332 158.9 329.5 c 128,-1,46
 147 327 147 327 128.3 317 c 128,-1,47
 109.6 307 109.6 307 93.875 291.5 c 128,-1,48
 78.1504 276 78.1504 276 66.6748 247 c 128,-1,49
 55.2002 218 55.2002 218 55.2002 180 c 0,35,36
84.0996 534 m 0,50,51
 84.0996 482 84.0996 482 141.05 437 c 128,-1,52
 198 392 198 392 226.05 392 c 0,53,54
 247.3 392 247.3 392 279.175 429.5 c 128,-1,55
 311.05 467 311.05 467 311.05 527 c 0,56,57
 311.05 567 311.05 567 280.025 611.5 c 128,-1,58
 249 656 249 656 194.6 656 c 0,59,60
 152.95 656 152.95 656 118.525 623 c 128,-1,61
 84.0996 590 84.0996 590 84.0996 534 c 0,50,51
EndSplineSet
Validated: 524289
Substitution2: "'lnum' Lining Figures in Latin lookup 11 subtable" eight.lining
Substitution2: "'subs' Subscript in Latin lookup 10 subtable" eight.lining.sub
Substitution2: "'sups' Superscript in Latin lookup 9 subtable" eight.lining.sup
Substitution2: "'dnom' Denominators in Latin lookup 4 subtable" eight.lining.denom
Substitution2: "'numr' Numerators in Latin lookup 3 subtable" eight.lining.numer
AlternateSubs2: "'aalt' Access All Alternates in Latin lookup 1 subtable" eight.lining eight.lining.sub eight.lining.sup eight.lining.denom eight.lining.numer
AlternateSubs2: "'aalt' Access All Alternates lookup 0 subtable" eight.lining eight.lining.sub eight.lining.sup eight.lining.denom eight.lining.numer
EndChar

StartChar: nine
Encoding: 57 57 28
Width: 418
GlyphClass: 2
Flags: HW
LayerCount: 2
Fore
SplineSet
11.2002 189 m 0,0,1
 11.2002 276 11.2002 276 64.0498 349 c 128,-1,2
 116.9 422 116.9 422 195.95 422 c 0,3,4
 276.7 422 276.7 422 328.075 351 c 128,-1,5
 379.45 280 379.45 280 379.45 174 c 0,6,7
 379.45 80 379.45 80 335.725 -11 c 128,-1,8
 292 -102 292 -102 216.35 -163 c 0,9,10
 165.35 -205 165.35 -205 85.4502 -205 c 0,11,12
 67.2002 -205 67.2002 -205 67.2002 -188 c 0,13,14
 67.2002 -174 67.2002 -174 91.4004 -174 c 0,15,16
 142.4 -174 142.4 -174 202.75 -114 c 0,17,18
 235.05 -82 235.05 -82 257.15 -38 c 128,-1,19
 279.25 6 279.25 6 279.25 25 c 0,20,21
 279.25 27 279.25 27 277.55 27 c 0,22,23
 276.7 27 276.7 27 266.925 17.5 c 128,-1,24
 257.15 8 257.15 8 235.05 -1.5 c 128,-1,25
 212.95 -11 212.95 -11 181.5 -11 c 0,26,27
 104.15 -11 104.15 -11 57.6748 47 c 128,-1,28
 11.2002 105 11.2002 105 11.2002 189 c 0,0,1
81.2002 240 m 0,29,30
 81.2002 165 81.2002 165 119.45 99.5 c 128,-1,31
 157.7 34 157.7 34 212.1 34 c 0,32,33
 227.4 34 227.4 34 241 38.5 c 128,-1,34
 254.6 43 254.6 43 270.75 55.5 c 128,-1,35
 286.9 68 286.9 68 296.675 96.5 c 128,-1,36
 306.45 125 306.45 125 306.45 167 c 0,37,38
 306.45 265 306.45 265 266.075 325.5 c 128,-1,39
 225.7 386 225.7 386 175.55 386 c 0,40,41
 138.15 386 138.15 386 109.675 347.5 c 128,-1,42
 81.2002 309 81.2002 309 81.2002 240 c 0,29,30
EndSplineSet
Validated: 524289
Substitution2: "'lnum' Lining Figures in Latin lookup 11 subtable" nine.lining
Substitution2: "'subs' Subscript in Latin lookup 10 subtable" nine.lining.sub
Substitution2: "'sups' Superscript in Latin lookup 9 subtable" nine.lining.sup
Substitution2: "'dnom' Denominators in Latin lookup 4 subtable" nine.lining.denom
Substitution2: "'numr' Numerators in Latin lookup 3 subtable" nine.lining.numer
AlternateSubs2: "'aalt' Access All Alternates in Latin lookup 1 subtable" nine.lining nine.lining.sub nine.lining.sup nine.lining.denom nine.lining.numer
AlternateSubs2: "'aalt' Access All Alternates lookup 0 subtable" nine.lining nine.lining.sub nine.lining.sup nine.lining.denom nine.lining.numer
EndChar

StartChar: colon
Encoding: 58 58 29
Width: 228
GlyphClass: 2
Flags: HW
LayerCount: 2
Fore
SplineSet
27.2002 55 m 0,0,1
 27.2002 63 27.2002 63 62.2002 94 c 0,2,3
 65.2002 97 65.2002 97 73.7002 107 c 128,-1,4
 82.2002 117 82.2002 117 88.7002 122 c 128,-1,5
 95.2002 127 95.2002 127 104.2 127 c 0,6,7
 106.2 127 106.2 127 109.2 125 c 128,-1,8
 112.2 123 112.2 123 115.7 119 c 128,-1,9
 119.2 115 119.2 115 122.7 111.5 c 128,-1,10
 126.2 108 126.2 108 131.2 101 c 128,-1,11
 136.2 94 136.2 94 140.2 90 c 0,12,13
 143.2 87 143.2 87 151.7 79.5 c 128,-1,14
 160.2 72 160.2 72 165.2 65.5 c 128,-1,15
 170.2 59 170.2 59 170.2 55 c 0,16,17
 170.2 50 170.2 50 165.2 44.5 c 128,-1,18
 160.2 39 160.2 39 150.2 31 c 128,-1,19
 140.2 23 140.2 23 135.2 19 c 0,20,21
 131.2 15 131.2 15 124.2 5 c 128,-1,22
 117.2 -5 117.2 -5 110.7 -10.5 c 128,-1,23
 104.2 -16 104.2 -16 98.2002 -16 c 0,24,25
 91.2002 -16 91.2002 -16 84.2002 -9 c 128,-1,26
 77.2002 -2 77.2002 -2 69.7002 7.5 c 128,-1,27
 62.2002 17 62.2002 17 57.2002 21 c 0,28,29
 27.2002 42 27.2002 42 27.2002 55 c 0,0,1
34.2002 336 m 0,30,31
 34.2002 347 34.2002 347 64.2002 373 c 0,32,33
 68.2002 377 68.2002 377 74.7002 386 c 128,-1,34
 81.2002 395 81.2002 395 87.7002 400.5 c 128,-1,35
 94.2002 406 94.2002 406 102.2 406 c 128,-1,36
 110.2 406 110.2 406 138.2 369 c 0,37,38
 140.2 366 140.2 366 147.7 359.5 c 128,-1,39
 155.2 353 155.2 353 159.7 347 c 128,-1,40
 164.2 341 164.2 341 164.2 335 c 0,41,42
 164.2 331 164.2 331 161.2 326.5 c 128,-1,43
 158.2 322 158.2 322 154.7 319 c 128,-1,44
 151.2 316 151.2 316 144.2 310 c 128,-1,45
 137.2 304 137.2 304 134.2 301 c 0,46,47
 130.2 297 130.2 297 123.7 288 c 128,-1,48
 117.2 279 117.2 279 111.2 273.5 c 128,-1,49
 105.2 268 105.2 268 98.2002 268 c 128,-1,50
 91.2002 268 91.2002 268 84.7002 274.5 c 128,-1,51
 78.2002 281 78.2002 281 72.7002 290.5 c 128,-1,52
 67.2002 300 67.2002 300 64.2002 303 c 0,53,54
 60.2002 307 60.2002 307 53.7002 312.5 c 128,-1,55
 47.2002 318 47.2002 318 43.7002 321.5 c 128,-1,56
 40.2002 325 40.2002 325 37.2002 329 c 128,-1,57
 34.2002 333 34.2002 333 34.2002 336 c 0,30,31
EndSplineSet
Validated: 524289
EndChar

StartChar: semicolon
Encoding: 59 59 30
Width: 230
GlyphClass: 2
Flags: HW
LayerCount: 2
Fore
SplineSet
27.2002 342 m 0,0,1
 27.2002 352 27.2002 352 58.2002 379 c 0,2,3
 62.2002 383 62.2002 383 68.2002 392 c 128,-1,4
 74.2002 401 74.2002 401 80.7002 407 c 128,-1,5
 87.2002 413 87.2002 413 96.2002 413 c 0,6,7
 104.2 413 104.2 413 133.2 375 c 0,8,9
 136.2 372 136.2 372 143.7 365.5 c 128,-1,10
 151.2 359 151.2 359 156.2 352.5 c 128,-1,11
 161.2 346 161.2 346 161.2 340 c 0,12,13
 161.2 336 161.2 336 158.2 331.5 c 128,-1,14
 155.2 327 155.2 327 151.7 324 c 128,-1,15
 148.2 321 148.2 321 141.2 315 c 128,-1,16
 134.2 309 134.2 309 131.2 306 c 0,17,18
 127.2 303 127.2 303 120.2 293.5 c 128,-1,19
 113.2 284 113.2 284 106.7 278.5 c 128,-1,20
 100.2 273 100.2 273 93.2002 273 c 128,-1,21
 86.2002 273 86.2002 273 79.7002 279.5 c 128,-1,22
 73.2002 286 73.2002 286 67.2002 296 c 128,-1,23
 61.2002 306 61.2002 306 58.2002 309 c 0,24,25
 54.2002 313 54.2002 313 47.7002 318.5 c 128,-1,26
 41.2002 324 41.2002 324 37.2002 327.5 c 128,-1,27
 33.2002 331 33.2002 331 30.2002 335 c 128,-1,28
 27.2002 339 27.2002 339 27.2002 342 c 0,0,1
29.2002 54 m 1,29,30
 29.2002 60 29.2002 60 33.2002 65.5 c 128,-1,31
 37.2002 71 37.2002 71 47.7002 80.5 c 128,-1,32
 58.2002 90 58.2002 90 61.2002 93 c 128,-1,33
 64.2002 96 64.2002 96 71.2002 106 c 128,-1,34
 78.2002 116 78.2002 116 85.2002 120.5 c 128,-1,35
 92.2002 125 92.2002 125 102.2 125 c 0,36,37
 104.2 125 104.2 125 111.2 120.5 c 128,-1,38
 118.2 116 118.2 116 128.7 106 c 128,-1,39
 139.2 96 139.2 96 148.7 82 c 128,-1,40
 158.2 68 158.2 68 165.2 46 c 128,-1,41
 172.2 24 172.2 24 172.2 0 c 0,42,43
 172.2 -63 172.2 -63 126.2 -115.5 c 128,-1,44
 80.2002 -168 80.2002 -168 53.2002 -168 c 0,45,46
 50.2002 -168 50.2002 -168 45.7002 -163.5 c 128,-1,47
 41.2002 -159 41.2002 -159 41.2002 -153 c 0,48,49
 41.2002 -146 41.2002 -146 56.2002 -133.5 c 128,-1,50
 71.2002 -121 71.2002 -121 86.7002 -99.5 c 128,-1,51
 102.2 -78 102.2 -78 102.2 -48 c 0,52,53
 102.2 -22 102.2 -22 89.2002 -5.5 c 128,-1,54
 76.2002 11 76.2002 11 47.2002 33 c 1,55,56
 30.2002 51 30.2002 51 29.2002 54 c 1,29,30
EndSplineSet
Validated: 524289
EndChar

StartChar: less
Encoding: 60 60 31
Width: 468
GlyphClass: 2
Flags: HW
LayerCount: 2
Fore
SplineSet
12.7998 211 m 0,0,1
 12.7998 217 12.7998 217 13.2998 219.5 c 128,-1,2
 13.7998 222 13.7998 222 17.2998 225 c 128,-1,3
 20.7998 228 20.7998 228 27.7998 231 c 0,4,5
 222.05 307 222.05 307 357.9 363 c 0,6,7
 393.9 376 393.9 376 400.4 378.5 c 128,-1,8
 406.9 381 406.9 381 408.9 381 c 0,9,10
 427.9 381 427.9 381 427.9 356 c 0,11,12
 427.9 344 427.9 344 411.9 340 c 1,13,-1
 137.05 229 l 2,14,15
 95.7998 214 95.7998 214 95.7998 208 c 0,16,17
 95.7998 205 95.7998 205 137.05 190 c 2,18,-1
 416.9 78 l 2,19,20
 427.9 74 427.9 74 427.9 65 c 0,21,22
 427.9 57 427.9 57 421.9 49 c 128,-1,23
 415.9 41 415.9 41 403.9 41 c 0,24,25
 400.9 41 400.9 41 26.7998 188 c 0,26,27
 16.7998 192 16.7998 192 14.7998 196 c 128,-1,28
 12.7998 200 12.7998 200 12.7998 211 c 0,0,1
EndSplineSet
Validated: 524289
EndChar

StartChar: greater
Encoding: 62 62 33
Width: 468
GlyphClass: 2
Flags: HW
LayerCount: 2
Fore
SplineSet
12.7998 65 m 0,0,1
 12.7998 75 12.7998 75 22.7998 78 c 2,2,-1
 303.65 190 l 2,3,4
 344.9 205 344.9 205 344.9 208 c 0,5,6
 344.9 214 344.9 214 303.65 229 c 2,7,-1
 27.7998 340 l 1,8,9
 12.7998 344 12.7998 344 12.7998 356 c 0,10,11
 12.7998 381 12.7998 381 30.7998 381 c 0,12,13
 33.7998 381 33.7998 381 81.7998 363 c 0,14,15
 217.8 307 217.8 307 411.9 231 c 0,16,17
 427.9 225 427.9 225 427.9 211 c 0,18,19
 427.9 200 427.9 200 425.4 196 c 128,-1,20
 422.9 192 422.9 192 412.9 188 c 0,21,22
 38.7998 41 38.7998 41 35.7998 41 c 0,23,24
 23.7998 41 23.7998 41 18.2998 49 c 128,-1,25
 12.7998 57 12.7998 57 12.7998 65 c 0,0,1
EndSplineSet
Validated: 524289
EndChar

StartChar: question
Encoding: 63 63 34
Width: 322
GlyphClass: 2
Flags: HW
LayerCount: 2
Fore
SplineSet
40 612 m 0,0,1
 40 629 40 629 72 651 c 128,-1,2
 104 673 104 673 144 673 c 0,3,4
 198 673 198 673 238 643 c 128,-1,5
 278 613 278 613 278 559 c 0,6,7
 278 526 278 526 256 484 c 128,-1,8
 234 442 234 442 208 408 c 128,-1,9
 182 374 182 374 160 330 c 128,-1,10
 138 286 138 286 138 251 c 0,11,12
 138 240 138 240 140.5 224.5 c 128,-1,13
 143 209 143 209 143 205 c 0,14,15
 143 195 143 195 135 195 c 0,16,17
 120 195 120 195 111.5 223 c 128,-1,18
 103 251 103 251 103 274 c 0,19,20
 103 310 103 310 149 414 c 128,-1,21
 195 518 195 518 195 548 c 0,22,23
 195 587 195 587 163 607.5 c 128,-1,24
 131 628 131 628 104 628 c 0,25,26
 86 628 86 628 68 615.5 c 128,-1,27
 50 603 50 603 49 603 c 0,28,29
 40 603 40 603 40 612 c 0,0,1
62 59 m 0,30,31
 62 69 62 69 98 100 c 0,32,33
 102 103 102 103 110 112.5 c 128,-1,34
 118 122 118 122 124.5 127 c 128,-1,35
 131 132 131 132 137 132 c 0,36,37
 141 132 141 132 149 124.5 c 128,-1,38
 157 117 157 117 165 107 c 2,39,-1
 172 97 l 1,40,-1
 182 89 l 2,41,42
 192 81 192 81 199 73.5 c 128,-1,43
 206 66 206 66 206 62 c 0,44,45
 206 54 206 54 200.5 48 c 128,-1,46
 195 42 195 42 185 35.5 c 128,-1,47
 175 29 175 29 172 26 c 0,48,49
 168 22 168 22 160.5 12 c 128,-1,50
 153 2 153 2 147 -3.5 c 128,-1,51
 141 -9 141 -9 135 -9 c 128,-1,52
 129 -9 129 -9 116.5 2 c 128,-1,53
 104 13 104 13 95 24 c 0,54,55
 92 27 92 27 77 39 c 128,-1,56
 62 51 62 51 62 59 c 0,30,31
EndSplineSet
Validated: 1
Position2: "'cpsp' Capital Spacing in Latin lookup 0 subtable" dx=10 dy=0 dh=20 dv=0
EndChar

StartChar: at
Encoding: 64 64 35
Width: 707
GlyphClass: 2
Flags: HW
LayerCount: 2
Fore
SplineSet
15.2002 286 m 0,0,1
 15.2002 382 15.2002 382 47.3252 458 c 128,-1,2
 79.4502 534 79.4502 534 119.825 577.5 c 128,-1,3
 160.2 621 160.2 621 216.225 649.5 c 128,-1,4
 272.25 678 272.25 678 313.475 687.5 c 128,-1,5
 354.7 697 354.7 697 390.4 697 c 0,6,7
 508.55 697 508.55 697 586 608.5 c 128,-1,8
 663.45 520 663.45 520 663.45 392 c 0,9,10
 663.45 283 663.45 283 628.85 206 c 128,-1,11
 594.25 129 594.25 129 503.25 129 c 0,12,13
 471.25 129 471.25 129 452.25 141.5 c 128,-1,14
 433.25 154 433.25 154 429.25 169 c 128,-1,15
 425.25 184 425.25 184 409.525 196.5 c 128,-1,16
 393.8 209 393.8 209 392.1 209 c 128,-1,17
 390.4 209 390.4 209 390.325 193.5 c 128,-1,18
 390.25 178 390.25 178 372.25 160 c 128,-1,19
 354.25 142 354.25 142 324.75 126.5 c 128,-1,20
 295.25 111 295.25 111 264.25 111 c 0,21,22
 217.25 111 217.25 111 194.25 137.5 c 128,-1,23
 171.25 164 171.25 164 171.25 208 c 0,24,25
 171.25 265 171.25 265 202.75 330 c 128,-1,26
 234.25 395 234.25 395 281.3 441.5 c 128,-1,27
 328.35 488 328.35 488 377.65 488 c 0,28,29
 393.8 488 393.8 488 415.475 483.5 c 128,-1,30
 437.15 479 437.15 479 438.85 479 c 0,31,32
 444.8 479 444.8 479 455 499 c 128,-1,33
 465.2 519 465.2 519 474.55 519 c 0,34,35
 481.35 519 481.35 519 481.35 500 c 0,36,37
 481.35 496 481.35 496 471.15 447.5 c 128,-1,38
 460.95 399 460.95 399 450.325 339 c 128,-1,39
 439.7 279 439.7 279 439.7 246 c 2,40,-1
 439.7 233 l 2,41,42
 475.25 174 475.25 174 516.25 174 c 0,43,44
 592.25 174 592.25 174 607.35 231.5 c 128,-1,45
 622.45 289 622.45 289 622.45 397 c 0,46,47
 622.45 520 622.45 520 556.15 589.5 c 128,-1,48
 489.85 659 489.85 659 391.25 659 c 0,49,50
 262.9 659 262.9 659 169.05 558.5 c 128,-1,51
 75.2002 458 75.2002 458 75.2002 297 c 0,52,53
 75.2002 155 75.2002 155 155.225 64 c 128,-1,54
 235.25 -27 235.25 -27 377.25 -27 c 0,55,56
 440.25 -27 440.25 -27 491.25 -10.5 c 128,-1,57
 542.25 6 542.25 6 568.25 22 c 128,-1,58
 594.25 38 594.25 38 595.25 38 c 0,59,60
 606.25 38 606.25 38 606.25 26 c 0,61,62
 606.25 20 606.25 20 595.25 9.5 c 128,-1,63
 584.25 -1 584.25 -1 562.25 -13.5 c 128,-1,64
 540.25 -26 540.25 -26 511.75 -37.5 c 128,-1,65
 483.25 -49 483.25 -49 442.75 -56.5 c 128,-1,66
 402.25 -64 402.25 -64 359.25 -64 c 0,67,68
 199.25 -64 199.25 -64 107.225 29 c 128,-1,69
 15.2002 122 15.2002 122 15.2002 286 c 0,0,1
238.25 227 m 0,70,71
 238.25 197 238.25 197 255.75 182 c 128,-1,72
 273.25 167 273.25 167 300.25 167 c 0,73,74
 328.25 167 328.25 167 344.45 184 c 128,-1,75
 360.65 201 360.65 201 368.3 215 c 0,76,77
 379.35 234 379.35 234 389.55 281 c 0,78,79
 423.55 432 423.55 432 423.55 436 c 0,80,81
 423.55 442 423.55 442 404.85 449 c 128,-1,82
 386.15 456 386.15 456 370.85 456 c 0,83,84
 329.2 456 329.2 456 283.725 391.5 c 128,-1,85
 238.25 327 238.25 327 238.25 227 c 0,70,71
EndSplineSet
Validated: 524289
EndChar

StartChar: A
Encoding: 65 65 36
Width: 730
GlyphClass: 2
Flags: W
HStem: -1 28<148.324 194.119 452.138 494.597 653.259 710.098> 266 53<235.244 410.372>
VStem: 502.104 208<5.5 72>
LayerCount: 2
Fore
SplineSet
-4 8 m 0,0,1
 -4 22 -4 22 11 27 c 0,2,3
 43 39 43 39 67 80.5 c 128,-1,4
 91 122 91 122 175.5 329 c 0,5,6
 258.8 541 258.8 541 322.55 701 c 0,7,8
 328.5 716 328.5 716 333.175 720 c 128,-1,9
 337.85 724 337.85 724 348.05 724 c 0,10,11
 355.7 724 355.7 724 358.25 720 c 128,-1,12
 360.8 716 360.8 716 369.3 687 c 0,13,14
 374.4 670 374.4 670 378.225 658 c 128,-1,15
 382.05 646 382.05 646 390.55 619 c 128,-1,16
 399.05 592 399.05 592 409.25 563 c 0,17,18
 436.45 484 436.45 484 514.277 301.5 c 128,-1,19
 592.104 119 592.104 119 599.104 104 c 0,20,21
 616.104 70 616.104 70 637.104 52.5 c 128,-1,22
 658.104 35 658.104 35 673.604 33.5 c 128,-1,23
 689.104 32 689.104 32 699.604 28.5 c 128,-1,24
 710.104 25 710.104 25 710.104 13 c 0,25,26
 710.104 -2 710.104 -2 683.104 -2 c 0,27,28
 672.104 -2 672.104 -2 640.104 1 c 128,-1,29
 608.104 4 608.104 4 593.104 4 c 0,30,31
 574.104 4 574.104 4 544.104 2 c 128,-1,32
 514.104 0 514.104 0 500.104 0 c 0,33,34
 469.104 0 469.104 0 460.604 2.5 c 128,-1,35
 452.104 5 452.104 5 452.104 14 c 0,36,37
 452.104 21 452.104 21 460.104 25.5 c 128,-1,38
 468.104 30 468.104 30 477.104 31.5 c 128,-1,39
 486.104 33 486.104 33 494.104 40.5 c 128,-1,40
 502.104 48 502.104 48 502.104 61 c 0,41,42
 502.104 83 502.104 83 477.104 151 c 128,-1,43
 452.104 219 452.104 219 436.45 251 c 0,44,45
 428.8 268 428.8 268 401.6 268 c 0,46,47
 397.35 268 397.35 268 364.2 267 c 128,-1,48
 331.05 266 331.05 266 298.75 266 c 2,49,-1
 253.7 266 l 2,50,51
 215.45 266 215.45 266 205.675 261 c 128,-1,52
 195.9 256 195.9 256 188.25 237 c 0,53,54
 183.15 224 183.15 224 171.25 195.5 c 128,-1,55
 159.35 167 159.35 167 155.1 156 c 128,-1,56
 150.85 145 150.85 145 144.475 127.5 c 128,-1,57
 138.1 110 138.1 110 135.975 99.5 c 128,-1,58
 133.85 89 133.85 89 133.85 81 c 0,59,60
 133.85 58 133.85 58 143.625 46 c 128,-1,61
 153.4 34 153.4 34 165.3 32.5 c 128,-1,62
 177.2 31 177.2 31 186.975 27 c 128,-1,63
 196.75 23 196.75 23 196.75 13 c 0,64,65
 196.75 6 196.75 6 194.2 2.5 c 128,-1,66
 191.65 -1 191.65 -1 182.3 -1 c 0,67,68
 177.2 -1 177.2 -1 152.975 -0.5 c 128,-1,69
 128.75 0 128.75 0 111 0 c 0,70,71
 89 0 89 0 61.5 -2 c 128,-1,72
 34 -4 34 -4 25 -4 c 0,73,74
 -4 -4 -4 -4 -4 8 c 0,0,1
227.35 338 m 0,75,76
 227.35 325 227.35 325 235 322 c 128,-1,77
 242.65 319 242.65 319 270.7 319 c 2,78,-1
 297.05 319 l 1,79,-1
 377.8 320 l 2,80,81
 410.95 320 410.95 320 410.95 336 c 0,82,83
 410.95 349 410.95 349 369.3 459.5 c 128,-1,84
 327.65 570 327.65 570 316.6 570 c 0,85,86
 308.95 570 308.95 570 268.15 459.5 c 128,-1,87
 227.35 349 227.35 349 227.35 338 c 0,75,76
EndSplineSet
Validated: 524289
Substitution2: "'c2sc' Capitals to Small Capitals in Latin lookup 13 subtable" a.sc
AlternateSubs2: "'aalt' Access All Alternates in Latin lookup 1 subtable" a.sc
AlternateSubs2: "'aalt' Access All Alternates lookup 0 subtable" a.sc
Position2: "'cpsp' Capital Spacing in Latin lookup 0 subtable" dx=10 dy=0 dh=20 dv=0
EndChar

StartChar: B
Encoding: 66 66 37
Width: 557
GlyphClass: 2
Flags: HW
LayerCount: 2
Fore
SplineSet
-4 694 m 0,0,1
 -4 709 -4 709 5 709 c 0,2,3
 8 709 8 709 18 708.5 c 128,-1,4
 28 708 28 708 45 708 c 0,5,6
 65 708 65 708 124.088 708.5 c 128,-1,7
 183.175 709 183.175 709 189.125 709 c 0,8,9
 208.675 709 208.675 709 238.425 710.5 c 128,-1,10
 268.175 712 268.175 712 282.625 712 c 0,11,12
 359.975 712 359.975 712 417.6 668.5 c 128,-1,13
 475.225 625 475.225 625 475.225 545 c 0,14,15
 475.225 516 475.225 516 464.725 490.5 c 128,-1,16
 454.225 465 454.225 465 439.725 449 c 128,-1,17
 425.225 433 425.225 433 410.875 421.5 c 128,-1,18
 396.525 410 396.525 410 387.6 403.5 c 128,-1,19
 378.675 397 378.675 397 378.675 396 c 0,20,21
 378.675 393 378.675 393 393.95 388.5 c 128,-1,22
 409.225 384 409.225 384 433.225 373.5 c 128,-1,23
 457.225 363 457.225 363 480.725 345 c 128,-1,24
 504.225 327 504.225 327 517.1 291.5 c 128,-1,25
 529.975 256 529.975 256 529.975 208 c 0,26,27
 529.975 165 529.975 165 504.975 116 c 128,-1,28
 479.975 67 479.975 67 445.975 44 c 0,29,30
 408.425 13 408.425 13 376.125 2.5 c 128,-1,31
 343.825 -8 343.825 -8 297.925 -8 c 0,32,33
 263.925 -8 263.925 -8 205.463 -2.5 c 128,-1,34
 147 3 147 3 140 3 c 0,35,36
 129 3 129 3 100.5 1 c 128,-1,37
 72 -1 72 -1 54 -1 c 2,38,-1
 40 -1 l 2,39,40
 19 -1 19 -1 19 14 c 0,41,42
 19 28 19 28 30 28 c 0,43,44
 36 28 36 28 43 28.5 c 128,-1,45
 50 29 50 29 53 29 c 0,46,47
 62 29 62 29 70.5 35.5 c 128,-1,48
 79 42 79 42 88 64.5 c 128,-1,49
 97 87 97 87 98 122 c 0,50,51
 101 187 101 187 101 434 c 2,52,-1
 101 604 l 2,53,54
 101 611 101 611 98.5 620.5 c 128,-1,55
 96 630 96 630 88.5 645.5 c 128,-1,56
 81 661 81 661 61.5 671.5 c 128,-1,57
 42 682 42 682 13 682 c 0,58,59
 -4 682 -4 682 -4 694 c 0,0,1
177 92 m 0,60,61
 177 32 177 32 260.525 32 c 2,62,-1
 280.075 32 l 2,63,64
 325.975 32 325.975 32 353.175 37 c 0,65,66
 393.125 45 393.125 45 419.05 86 c 128,-1,67
 444.975 127 444.975 127 444.975 184 c 0,68,69
 444.975 233 444.975 233 429.675 268.5 c 128,-1,70
 414.375 304 414.375 304 394.825 322 c 128,-1,71
 375.275 340 375.275 340 348.5 350 c 128,-1,72
 321.725 360 321.725 360 306.85 362 c 128,-1,73
 291.975 364 291.975 364 278.375 364 c 0,74,75
 251.175 364 251.175 364 233.75 364.5 c 128,-1,76
 216.325 365 216.325 365 211.65 365 c 128,-1,77
 206.975 365 206.975 365 204 365.5 c 128,-1,78
 201.025 366 201.025 366 199.325 366 c 0,79,80
 191.675 366 191.675 366 188.275 363.5 c 128,-1,81
 184.875 361 184.875 361 181.9 344.5 c 128,-1,82
 178.925 328 178.925 328 178.463 297 c 128,-1,83
 178 266 178 266 178 204 c 2,84,-1
 178 196 l 2,85,86
 178 159 178 159 178 136 c 128,-1,87
 178 113 178 113 177.5 103.5 c 128,-1,88
 177 94 177 94 177 92 c 0,60,61
182.325 545 m 2,89,90
 182.325 495 182.325 495 182.75 467 c 128,-1,91
 183.175 439 183.175 439 184.875 424 c 128,-1,92
 186.575 409 186.575 409 188.275 405 c 128,-1,93
 189.975 401 189.975 401 193.375 401 c 0,94,95
 217.175 398 217.175 398 236.725 398 c 2,96,-1
 291.125 398 l 2,97,98
 344.675 398 344.675 398 371.45 431 c 128,-1,99
 398.225 464 398.225 464 398.225 516 c 0,100,101
 398.225 572 398.225 572 353.6 624.5 c 128,-1,102
 308.975 677 308.975 677 226.525 677 c 0,103,104
 200.175 677 200.175 677 191.25 658.5 c 128,-1,105
 182.325 640 182.325 640 182.325 574 c 2,106,-1
 182.325 545 l 2,89,90
EndSplineSet
Validated: 524289
Substitution2: "'c2sc' Capitals to Small Capitals in Latin lookup 13 subtable" b.sc
AlternateSubs2: "'aalt' Access All Alternates in Latin lookup 1 subtable" b.sc
AlternateSubs2: "'aalt' Access All Alternates lookup 0 subtable" b.sc
Position2: "'cpsp' Capital Spacing in Latin lookup 0 subtable" dx=10 dy=0 dh=20 dv=0
EndChar

StartChar: C
Encoding: 67 67 38
Width: 697
GlyphClass: 2
Flags: W
HStem: -20 46<274.6 476.708> 673 41<251.684 443.542>
VStem: 15.2002 90.124<229.476 469.856>
LayerCount: 2
Fore
SplineSet
15.2002 324 m 0,0,1
 15.2002 433 15.2002 433 56.0127 520 c 128,-1,2
 96.8242 607 96.8242 607 171.199 660.5 c 128,-1,3
 245.574 714 245.574 714 347.574 714 c 0,4,5
 399.425 714 399.425 714 452.124 696 c 128,-1,6
 504.824 678 504.824 678 540.624 660 c 2,7,-1
 577.624 641 l 1,8,9
 580.624 641 580.624 641 587.624 646 c 128,-1,10
 594.624 651 594.624 651 598.624 651 c 0,11,12
 603.624 651 603.624 651 608.624 647 c 128,-1,13
 613.624 643 613.624 643 613.624 635 c 0,14,15
 614.624 606 614.624 606 618.124 573.5 c 128,-1,16
 621.624 541 621.624 541 624.624 520 c 128,-1,17
 627.624 499 627.624 499 627.624 495 c 0,18,19
 627.624 477 627.624 477 615.624 477 c 0,20,21
 606.624 477 606.624 477 598.624 491 c 0,22,23
 503.124 673 503.124 673 347.574 673 c 0,24,25
 241.324 673 241.324 673 173.324 593 c 128,-1,26
 105.324 513 105.324 513 105.324 384 c 0,27,28
 105.324 313 105.324 313 121.05 251 c 128,-1,29
 136.774 189 136.774 189 168.649 137.5 c 128,-1,30
 200.524 86 200.524 86 256.624 56 c 128,-1,31
 312.725 26 312.725 26 387.524 26 c 0,32,33
 509.925 26 509.925 26 607.624 176 c 0,34,35
 611.624 183 611.624 183 622.624 183 c 0,36,37
 631.624 183 631.624 183 631.624 169 c 0,38,39
 631.624 158 631.624 158 628.124 139.5 c 128,-1,40
 624.624 121 624.624 121 619.624 98.5 c 128,-1,41
 614.624 76 614.624 76 613.624 71 c 0,42,43
 611.624 60 611.624 60 597.624 53 c 0,44,45
 543.624 27 543.624 27 515.3 14 c 128,-1,46
 486.975 1 486.975 1 447.024 -9.5 c 128,-1,47
 407.074 -20 407.074 -20 365.425 -20 c 0,48,49
 291.475 -20 291.475 -20 231.975 1 c 128,-1,50
 172.475 22 172.475 22 134.649 56 c 128,-1,51
 96.8242 90 96.8242 90 68.0127 135.5 c 128,-1,52
 39.2002 181 39.2002 181 27.2002 227.5 c 128,-1,53
 15.2002 274 15.2002 274 15.2002 324 c 0,0,1
EndSplineSet
Validated: 524289
Substitution2: "'c2sc' Capitals to Small Capitals in Latin lookup 13 subtable" c.sc
AlternateSubs2: "'aalt' Access All Alternates in Latin lookup 1 subtable" c.sc
AlternateSubs2: "'aalt' Access All Alternates lookup 0 subtable" c.sc
Position2: "'cpsp' Capital Spacing in Latin lookup 0 subtable" dx=10 dy=0 dh=20 dv=0
EndChar

StartChar: D
Encoding: 68 68 39
Width: 699
GlyphClass: 2
Flags: W
HStem: -3 37<14.6113 69.9125 220.364 421.287> 676 36<-3.25085 71.9835 187.331 359.343>
VStem: 89.5 80.8506<63.1519 662.096> 575.241 85<222.306 466.898>
LayerCount: 2
Fore
SplineSet
-4 700 m 0,0,1
 -4 709 -4 709 4.5 710.5 c 128,-1,2
 13 712 13 712 47 712 c 2,3,-1
 134 712 l 2,4,5
 158.025 712 158.025 712 214.976 714 c 128,-1,6
 271.926 716 271.926 716 302.525 716 c 0,7,8
 361.176 716 361.176 716 419.825 695 c 128,-1,9
 478.476 674 478.476 674 533.358 634.5 c 128,-1,10
 588.241 595 588.241 595 624.241 531.5 c 128,-1,11
 660.241 468 660.241 468 660.241 390 c 0,12,13
 660.241 320 660.241 320 650.741 268.5 c 128,-1,14
 641.241 217 641.241 217 619.241 179.5 c 128,-1,15
 597.241 142 597.241 142 575.241 118.5 c 128,-1,16
 553.241 95 553.241 95 515.241 63 c 0,17,18
 489.525 39 489.525 39 441.075 18 c 128,-1,19
 392.625 -3 392.625 -3 341.625 -3 c 0,20,21
 336.525 -3 336.525 -3 254.926 -0.5 c 128,-1,22
 173.325 2 173.325 2 135 2 c 0,23,24
 100 2 100 2 70 -0.5 c 128,-1,25
 40 -3 40 -3 35 -3 c 0,26,27
 11 -3 11 -3 11 10 c 0,28,29
 11 18 11 18 14.5 21.5 c 128,-1,30
 18 25 18 25 29.5 28 c 128,-1,31
 41 31 41 31 46 33 c 0,32,33
 62 40 62 40 75.5 59.5 c 128,-1,34
 89 79 89 79 89 98 c 0,35,36
 89 154 89 154 89.5 241 c 128,-1,37
 90 328 90 328 90 369 c 0,38,39
 90 405 90 405 89.5 481.5 c 128,-1,40
 89 558 89 558 89 623 c 0,41,42
 89 640 89 640 72.5 657.5 c 128,-1,43
 56 675 56 675 36 676 c 0,44,45
 22 677 22 677 15.5 678 c 128,-1,46
 9 679 9 679 2.5 684.5 c 128,-1,47
 -4 690 -4 690 -4 700 c 0,0,1
169.926 141 m 0,48,49
 169.926 122 169.926 122 170.351 110 c 128,-1,50
 170.775 98 170.775 98 173.75 88 c 128,-1,51
 176.726 78 176.726 78 178.426 74 c 128,-1,52
 180.125 70 180.125 70 188.625 65 c 128,-1,53
 197.125 60 197.125 60 201.801 58.5 c 128,-1,54
 206.476 57 206.476 57 221.775 52 c 128,-1,55
 237.075 47 237.075 47 247.275 44 c 0,56,57
 277.025 34 277.025 34 309.325 34 c 2,58,-1
 326.325 34 l 2,59,60
 384.125 34 384.125 34 424.926 53.5 c 128,-1,61
 465.726 73 465.726 73 503.125 115 c 0,62,63
 575.241 186 575.241 186 575.241 345 c 0,64,65
 575.241 425 575.241 425 543.858 490 c 128,-1,66
 512.476 555 512.476 555 469.125 593.5 c 128,-1,67
 425.775 632 425.775 632 375.625 652.5 c 128,-1,68
 325.476 673 325.476 673 274.476 673 c 0,69,70
 251.525 673 251.525 673 240.9 673 c 128,-1,71
 230.275 673 230.275 673 216.25 670.5 c 128,-1,72
 202.226 668 202.226 668 197.551 666.5 c 128,-1,73
 192.875 665 192.875 665 186.075 656.5 c 128,-1,74
 179.275 648 179.275 648 178 642 c 128,-1,75
 176.726 636 176.726 636 174.601 618.5 c 128,-1,76
 172.476 601 172.476 601 172.476 588 c 128,-1,77
 172.476 575 172.476 575 172.476 546 c 0,78,79
 172.476 524 172.476 524 171.625 442.5 c 128,-1,80
 170.775 361 170.775 361 170.775 354 c 0,81,82
 170.775 294 170.775 294 170.351 224 c 128,-1,83
 169.926 154 169.926 154 169.926 141 c 0,48,49
EndSplineSet
Validated: 524289
Substitution2: "'c2sc' Capitals to Small Capitals in Latin lookup 13 subtable" d.sc
AlternateSubs2: "'aalt' Access All Alternates in Latin lookup 1 subtable" d.sc
AlternateSubs2: "'aalt' Access All Alternates lookup 0 subtable" d.sc
Position2: "'cpsp' Capital Spacing in Latin lookup 0 subtable" dx=10 dy=0 dh=20 dv=0
EndChar

StartChar: E
Encoding: 69 69 40
Width: 545
GlyphClass: 2
Flags: W
HStem: -4 29.5<10.3281 58.0526> 5 43<175.297 371.824> 337 47<171.696 361.864> 656 52<256.609 271.599 273.747 415.671> 663 43<182.035 409.026> 681 32<-3.9375 65.7324>
VStem: 92 74.9248<55.5078 336.812 384 655.256> 387.515 29<251.898 309.172 404.25 453.905> 433.739 31<563.021 630.021>
LayerCount: 2
Fore
SplineSet
-4 699 m 0,0,1
 -4 713 -4 713 24 713 c 0,2,3
 28 713 28 713 37 712 c 128,-1,4
 46 711 46 711 51 711 c 0,5,6
 54 711 54 711 138.513 708.5 c 128,-1,7
 223.024 706 223.024 706 273.175 706 c 0,8,9
 291.024 706 291.024 706 367.382 708 c 128,-1,10
 443.739 710 443.739 710 457.739 710 c 0,11,12
 476.739 710 476.739 710 476.739 687 c 0,13,14
 476.739 681 476.739 681 470.739 647.5 c 128,-1,15
 464.739 614 464.739 614 464.739 585 c 0,16,17
 464.739 576 464.739 576 459.739 569.5 c 128,-1,18
 454.739 563 454.739 563 448.739 563 c 0,19,20
 433.739 563 433.739 563 433.739 584 c 0,21,22
 433.739 611 433.739 611 416.739 633 c 128,-1,23
 399.739 655 399.739 655 376.975 656 c 0,24,25
 296.125 663 296.125 663 255.324 663 c 2,26,-1
 233.225 663 l 2,27,28
 189.024 663 189.024 663 181.8 655.5 c 128,-1,29
 174.574 648 174.574 648 172.875 602 c 0,30,31
 169.475 530 169.475 530 169.475 435 c 0,32,33
 169.475 385 169.475 385 185.625 384 c 1,34,-1
 206.875 384 l 1,35,-1
 242.574 384 l 1,36,-1
 268.925 384 l 2,37,38
 319.925 384 319.925 384 337.72 388 c 128,-1,39
 355.515 392 355.515 392 371.515 403 c 0,40,41
 388.024 416 388.024 416 391.739 440 c 0,42,43
 394.739 457 394.739 457 405.739 457 c 0,44,45
 414.739 457 414.739 457 416.739 454 c 128,-1,46
 418.739 451 418.739 451 418.739 441 c 0,47,48
 418.739 434 418.739 434 414.739 395 c 128,-1,49
 410.739 356 410.739 356 410.739 336 c 0,50,51
 410.739 317 410.739 317 413.627 300 c 128,-1,52
 416.515 283 416.515 283 416.515 275 c 0,53,54
 416.515 250 416.515 250 409.515 250 c 0,55,56
 394.515 250 394.515 250 387.515 274 c 0,57,58
 373.515 316 373.515 316 362.515 323 c 0,59,60
 342.024 337 342.024 337 278.274 337 c 0,61,62
 252.774 337 252.774 337 237.05 337 c 128,-1,63
 221.324 337 221.324 337 216.649 337.5 c 128,-1,64
 211.975 338 211.975 338 209 338 c 128,-1,65
 206.024 338 206.024 338 203.475 338 c 0,66,67
 168.625 338 168.625 338 168.625 319 c 0,68,69
 168.625 290 168.625 290 167.774 246.5 c 128,-1,70
 166.925 203 166.925 203 166.925 175 c 2,71,-1
 166.925 135 l 2,72,73
 166.925 63 166.925 63 187.324 56 c 0,74,75
 208.574 48 208.574 48 223.875 48 c 0,76,77
 287.625 48 287.625 48 339.069 55 c 128,-1,78
 390.515 62 390.515 62 419.015 72.5 c 128,-1,79
 447.515 83 447.515 83 466.515 95.5 c 128,-1,80
 485.515 108 485.515 108 491.015 118.5 c 128,-1,81
 496.515 129 496.515 129 502.015 136 c 128,-1,82
 507.515 143 507.515 143 513.515 143 c 0,83,84
 525.515 143 525.515 143 525.515 126 c 0,85,86
 525.515 83 525.515 83 482.515 39 c 128,-1,87
 439.515 -5 439.515 -5 407.515 -5 c 0,88,89
 336.925 -5 336.925 -5 260 0 c 128,-1,90
 183.074 5 183.074 5 164.375 5 c 0,91,92
 139 5 139 5 97 0.5 c 128,-1,93
 55 -4 55 -4 31 -4 c 0,94,95
 10 -4 10 -4 10 6 c 0,96,97
 10 15 10 15 10 18 c 128,-1,98
 10 21 10 21 13 23 c 128,-1,99
 16 25 16 25 19.5 25.5 c 128,-1,100
 23 26 23 26 32.5 29 c 128,-1,101
 42 32 42 32 53 37 c 0,102,103
 77 49 77 49 84.5 84 c 128,-1,104
 92 119 92 119 92 231 c 2,105,-1
 92 355 l 2,106,107
 92 382 92 382 93.5 439 c 128,-1,108
 95 496 95 496 95 528 c 0,109,110
 95 555 95 555 93 619 c 0,111,112
 92 648 92 648 68 664 c 128,-1,113
 44 680 44 680 12 681 c 0,114,115
 -4 681 -4 681 -4 699 c 0,0,1
EndSplineSet
Validated: 524289
Substitution2: "'c2sc' Capitals to Small Capitals in Latin lookup 13 subtable" e.sc
AlternateSubs2: "'aalt' Access All Alternates in Latin lookup 1 subtable" e.sc
AlternateSubs2: "'aalt' Access All Alternates lookup 0 subtable" e.sc
Position2: "'cpsp' Capital Spacing in Latin lookup 0 subtable" dx=10 dy=0 dh=20 dv=0
EndChar

StartChar: F
Encoding: 70 70 41
Width: 492
GlyphClass: 2
Flags: HW
LayerCount: 2
Fore
SplineSet
-4 697 m 0,0,1
 -4 700 -4 700 -2.5 703 c 128,-1,2
 -1 706 -1 706 5.5 710 c 128,-1,3
 12 714 12 714 22 714 c 2,4,-1
 49 714 l 2,5,6
 73 714 73 714 125.525 711 c 128,-1,7
 178.05 708 178.05 708 251.15 708 c 0,8,9
 311.5 708 311.5 708 360.5 710.5 c 128,-1,10
 409.5 713 409.5 713 455.5 713 c 0,11,12
 472.5 713 472.5 713 472.5 689 c 0,13,14
 472.5 680 472.5 680 470.5 666.5 c 128,-1,15
 468.5 653 468.5 653 464.5 630.5 c 128,-1,16
 460.5 608 460.5 608 458.5 587 c 0,17,18
 456.5 567 456.5 567 443.5 567 c 0,19,20
 429.5 567 429.5 567 429.5 587 c 0,21,22
 429.5 653 429.5 653 383.5 656 c 0,23,24
 254.55 668 254.55 668 229.9 668 c 0,25,26
 191.65 668 191.65 668 182.725 657 c 128,-1,27
 173.8 646 173.8 646 172.95 612 c 0,28,29
 172.95 607 172.95 607 172.95 604 c 0,30,31
 170.4 550 170.4 550 170.4 437 c 0,32,33
 170.4 388 170.4 388 185.7 387 c 0,34,35
 189.95 387 189.95 387 197.175 386.5 c 128,-1,36
 204.4 386 204.4 386 206.95 386 c 0,37,38
 212.9 386 212.9 386 224.8 386.5 c 128,-1,39
 236.7 387 236.7 387 243.5 387 c 2,40,-1
 269.85 387 l 2,41,42
 320.85 387 320.85 387 337.425 390.5 c 128,-1,43
 354 394 354 394 367.6 405 c 0,44,45
 375.25 411 375.25 411 379.875 419 c 128,-1,46
 384.5 427 384.5 427 386.5 438 c 128,-1,47
 388.5 449 388.5 449 391.5 454 c 128,-1,48
 394.5 459 394.5 459 403.5 459 c 128,-1,49
 412.5 459 412.5 459 414.5 456 c 128,-1,50
 416.5 453 416.5 453 416.5 443 c 0,51,52
 416.5 436 416.5 436 412 408 c 128,-1,53
 407.5 380 407.5 380 407.5 360 c 0,54,55
 407.5 341 407.5 341 411 313.5 c 128,-1,56
 414.5 286 414.5 286 414.5 278 c 0,57,58
 414.5 262 414.5 262 411 257.5 c 128,-1,59
 407.5 253 407.5 253 400.5 253 c 0,60,61
 383.5 253 383.5 253 379.5 278 c 0,62,63
 379.5 280 379.5 280 378.65 287 c 128,-1,64
 377.8 294 377.8 294 377.375 297 c 128,-1,65
 376.95 300 376.95 300 375.25 305.5 c 128,-1,66
 373.55 311 373.55 311 371.85 314 c 128,-1,67
 370.15 317 370.15 317 367.6 320.5 c 128,-1,68
 365.05 324 365.05 324 360.8 326 c 0,69,70
 348.9 332 348.9 332 318.3 336 c 128,-1,71
 287.7 340 287.7 340 278.35 340 c 2,72,-1
 204.4 340 l 2,73,74
 169.55 340 169.55 340 169.55 321 c 0,75,76
 169.55 292 169.55 292 168.7 248.5 c 128,-1,77
 167.85 205 167.85 205 167.85 177 c 0,78,79
 167.85 170 167.85 170 167.425 156.5 c 128,-1,80
 167 143 167 143 167 137 c 0,81,82
 167 117 167 117 170.4 97 c 128,-1,83
 173.8 77 173.8 77 190.375 55 c 128,-1,84
 206.95 33 206.95 33 235 33 c 0,85,86
 260.5 33 260.5 33 260.5 15 c 0,87,88
 260.5 12 260.5 12 258.8 8 c 128,-1,89
 257.1 4 257.1 4 250.725 0 c 128,-1,90
 244.35 -4 244.35 -4 234.15 -4 c 0,91,92
 220.55 -4 220.55 -4 190.775 0 c 128,-1,93
 161 4 161 4 149 4 c 0,94,95
 121 4 121 4 86.5 1 c 128,-1,96
 52 -2 52 -2 28 -2 c 0,97,98
 8 -2 8 -2 8 9 c 0,99,100
 8 22 8 22 12.5 25 c 128,-1,101
 17 28 17 28 51 40 c 0,102,103
 77 49 77 49 83 93.5 c 128,-1,104
 89 138 89 138 90 274 c 0,105,106
 90 327 90 327 90 357 c 0,107,108
 90 384 90 384 91.5 441.5 c 128,-1,109
 93 499 93 499 93 531 c 2,110,-1
 93 589 l 2,111,112
 93 655 93 655 46 677 c 0,113,114
 39 680 39 680 29 681.5 c 128,-1,115
 19 683 19 683 12.5 683 c 128,-1,116
 6 683 6 683 1 686.5 c 128,-1,117
 -4 690 -4 690 -4 697 c 0,0,1
EndSplineSet
Validated: 524289
Substitution2: "'c2sc' Capitals to Small Capitals in Latin lookup 13 subtable" f.sc
AlternateSubs2: "'aalt' Access All Alternates in Latin lookup 1 subtable" f.sc
AlternateSubs2: "'aalt' Access All Alternates lookup 0 subtable" f.sc
Position2: "'cpsp' Capital Spacing in Latin lookup 0 subtable" dx=10 dy=0 dh=20 dv=0
EndChar

StartChar: G
Encoding: 71 71 42
Width: 722
GlyphClass: 2
Flags: W
HStem: -17 41<271.172 452.264> 337 33<456.512 531.124 640.268 689.094> 680 39<254.906 441.174>
VStem: 15.2002 90.124<233.031 473.368> 548.504 81<97.7524 309.65> 613.504 29<487.149 524.431>
LayerCount: 2
Fore
SplineSet
15.2002 329 m 0,0,1
 15.2002 438 15.2002 438 57.2871 525 c 128,-1,2
 99.374 612 99.374 612 175.874 665.5 c 128,-1,3
 252.374 719 252.374 719 357.774 719 c 0,4,5
 398.574 719 398.574 719 434.274 711.5 c 128,-1,6
 469.975 704 469.975 704 496.239 694 c 128,-1,7
 522.504 684 522.504 684 542.504 673.5 c 128,-1,8
 562.504 663 562.504 663 573.004 655.5 c 128,-1,9
 583.504 648 583.504 648 585.504 648 c 0,10,11
 588.504 648 588.504 648 599.004 655.5 c 128,-1,12
 609.504 663 609.504 663 613.504 663 c 0,13,14
 628.504 663 628.504 663 628.504 643 c 0,15,16
 629.504 614 629.504 614 633.004 582 c 128,-1,17
 636.504 550 636.504 550 639.504 529 c 128,-1,18
 642.504 508 642.504 508 642.504 504 c 0,19,20
 642.504 487 642.504 487 630.504 487 c 128,-1,21
 618.504 487 618.504 487 613.504 499 c 0,22,23
 578.504 575 578.504 575 501.289 627.5 c 128,-1,24
 424.074 680 424.074 680 350.124 680 c 0,25,26
 243.874 680 243.874 680 174.6 601.5 c 128,-1,27
 105.324 523 105.324 523 105.324 384 c 0,28,29
 105.324 292 105.324 292 134.225 211 c 128,-1,30
 163.124 130 163.124 130 222.199 77 c 128,-1,31
 281.274 24 281.274 24 357.774 24 c 0,32,33
 423.225 24 423.225 24 480.864 59 c 128,-1,34
 538.504 94 538.504 94 545.504 139 c 0,35,36
 548.504 163 548.504 163 548.504 265 c 0,37,38
 548.504 304 548.504 304 531.504 321 c 0,39,40
 519.504 333 519.504 333 487.504 337 c 0,41,42
 460.624 340 460.624 340 456.374 349 c 0,43,44
 454.675 353 454.675 353 454.675 359 c 0,45,46
 454.675 370 454.675 370 469.975 370 c 0,47,48
 481.504 370 481.504 370 524.504 367.5 c 128,-1,49
 567.504 365 567.504 365 579.504 365 c 0,50,51
 599.504 365 599.504 365 622.504 365.5 c 128,-1,52
 645.504 366 645.504 366 659.504 366 c 2,53,-1
 674.504 366 l 2,54,55
 690.504 366 690.504 366 690.504 357 c 0,56,57
 690.504 350 690.504 350 665.004 339 c 128,-1,58
 639.504 328 639.504 328 636.504 311 c 0,59,60
 629.504 268 629.504 268 629.504 199 c 0,61,62
 629.504 169 629.504 169 630.504 146 c 128,-1,63
 631.504 123 631.504 123 632.004 113.5 c 128,-1,64
 632.504 104 632.504 104 633.504 97 c 128,-1,65
 634.504 90 634.504 90 634.504 87 c 0,66,67
 634.504 82 634.504 82 627.004 79.5 c 128,-1,68
 619.504 77 619.504 77 602.504 72.5 c 128,-1,69
 585.504 68 585.504 68 571.504 60 c 2,70,-1
 564.504 56 l 2,71,72
 557.504 51 557.504 51 550.504 47 c 128,-1,73
 543.504 43 543.504 43 532.004 37 c 128,-1,74
 520.504 31 520.504 31 508.504 25 c 128,-1,75
 496.504 19 496.504 19 482.389 12.5 c 128,-1,76
 468.274 6 468.274 6 454.675 1 c 128,-1,77
 441.074 -4 441.074 -4 426.624 -8 c 128,-1,78
 412.175 -12 412.175 -12 396.449 -14.5 c 128,-1,79
 380.725 -17 380.725 -17 365.425 -17 c 0,80,81
 272.774 -17 272.774 -17 204.35 12.5 c 128,-1,82
 135.925 42 135.925 42 96.5625 92.5 c 128,-1,83
 57.2002 143 57.2002 143 36.2002 202 c 128,-1,84
 15.2002 261 15.2002 261 15.2002 329 c 0,0,1
EndSplineSet
Validated: 524289
Substitution2: "'c2sc' Capitals to Small Capitals in Latin lookup 13 subtable" g.sc
AlternateSubs2: "'aalt' Access All Alternates in Latin lookup 1 subtable" g.sc
AlternateSubs2: "'aalt' Access All Alternates lookup 0 subtable" g.sc
Position2: "'cpsp' Capital Spacing in Latin lookup 0 subtable" dx=10 dy=0 dh=20 dv=0
EndChar

StartChar: H
Encoding: 72 72 43
Width: 712
GlyphClass: 2
Flags: W
HStem: 0 29<10.0115 64.7656 208.093 260.249> 0 22<637.868 692.337> 342 42<175.709 502.959> 677 29<-0.691406 72.9725 185.883 232.301 443.126 492.555 612.296 668.285>
VStem: 97 70.9248<55.5767 335.808 391.223 660.833> 512.84 79.5<48.5918 335.81 383.034 662.466>
LayerCount: 2
Fore
SplineSet
-4 699 m 0,0,1
 -4 710 -4 710 24 710 c 0,2,3
 34 710 34 710 70 708 c 128,-1,4
 106 706 106 706 137 706 c 0,5,6
 155.175 706 155.175 706 170.05 707 c 128,-1,7
 184.925 708 184.925 708 213.824 708 c 0,8,9
 232.524 708 232.524 708 232.524 694 c 0,10,11
 232.524 677 232.524 677 202.774 677 c 0,12,13
 185.774 677 185.774 677 178.125 636 c 128,-1,14
 170.475 595 170.475 595 170.475 552 c 2,15,-1
 170.475 515 l 2,16,17
 170.475 491 170.475 491 169.625 460.5 c 128,-1,18
 168.774 430 168.774 430 168.774 423 c 0,19,20
 168.774 398 168.774 398 173.875 391 c 128,-1,21
 178.975 384 178.975 384 197.675 384 c 0,22,23
 199.375 384 199.375 384 230.824 384.5 c 128,-1,24
 262.274 385 262.274 385 337.074 385 c 0,25,26
 343.875 385 343.875 385 360.024 384.5 c 128,-1,27
 376.175 384 376.175 384 413.149 383.5 c 128,-1,28
 450.125 383 450.125 383 504.34 383 c 0,29,30
 515.34 383 515.34 383 515.34 522 c 2,31,-1
 515.34 576 l 2,32,33
 515.34 615 515.34 615 506.84 638 c 128,-1,34
 498.34 661 498.34 661 485.84 668 c 128,-1,35
 473.34 675 473.34 675 461.732 677 c 128,-1,36
 450.125 679 450.125 679 442.899 682.5 c 128,-1,37
 435.675 686 435.675 686 435.675 696 c 128,-1,38
 435.675 706 435.675 706 470.34 706 c 0,39,40
 480.34 706 480.34 706 513.34 705 c 128,-1,41
 546.34 704 546.34 704 567.34 704 c 0,42,43
 577.34 704 577.34 704 601.34 705 c 128,-1,44
 625.34 706 625.34 706 645.34 706 c 0,45,46
 668.34 706 668.34 706 668.34 693 c 128,-1,47
 668.34 680 668.34 680 654.34 680 c 0,48,49
 626.34 680 626.34 680 611.84 663 c 128,-1,50
 597.34 646 597.34 646 597.34 618 c 0,51,52
 597.34 585 597.34 585 595.84 501.5 c 128,-1,53
 594.34 418 594.34 418 594.34 375 c 0,54,55
 594.34 352 594.34 352 593.34 302.5 c 128,-1,56
 592.34 253 592.34 253 592.34 225 c 2,57,-1
 592.34 188 l 2,58,59
 592.34 158 592.34 158 594.34 132.5 c 128,-1,60
 596.34 107 596.34 107 596.34 96 c 0,61,62
 596.34 31 596.34 31 680.34 22 c 1,63,64
 692.34 22 692.34 22 692.34 11 c 0,65,66
 692.34 4 692.34 4 682.34 2 c 128,-1,67
 672.34 0 672.34 0 643.34 0 c 0,68,69
 632.34 0 632.34 0 606.84 2.5 c 128,-1,70
 581.34 5 581.34 5 566.34 5 c 0,71,72
 548.34 5 548.34 5 522.84 2.5 c 128,-1,73
 497.34 0 497.34 0 472.34 0 c 0,74,75
 460.34 0 460.34 0 456.082 0 c 128,-1,76
 451.824 0 451.824 0 447.149 1.5 c 128,-1,77
 442.475 3 442.475 3 441.199 5.5 c 128,-1,78
 439.925 8 439.925 8 439.925 13 c 0,79,80
 439.925 19 439.925 19 448.425 24 c 128,-1,81
 456.925 29 456.925 29 468.632 32 c 128,-1,82
 480.34 35 480.34 35 491.84 43.5 c 128,-1,83
 503.34 52 503.34 52 505.34 65 c 0,84,85
 512.34 101 512.34 101 512.34 138 c 0,86,87
 512.34 148 512.34 148 512.84 166 c 128,-1,88
 513.34 184 513.34 184 513.34 192 c 0,89,90
 513.34 210 513.34 210 514.34 251 c 128,-1,91
 515.34 292 515.34 292 515.34 315 c 0,92,93
 515.34 330 515.34 330 503.34 336 c 128,-1,94
 491.34 342 491.34 342 453.524 342 c 0,95,96
 440.774 342 440.774 342 394.875 340 c 2,97,-1
 348.975 339 l 2,98,99
 311.574 339 311.574 339 264.824 340.5 c 128,-1,100
 218.074 342 218.074 342 192.574 342 c 0,101,102
 179.824 342 179.824 342 175.574 336 c 128,-1,103
 171.324 330 171.324 330 171.324 305 c 128,-1,104
 171.324 280 171.324 280 169.625 240 c 128,-1,105
 167.925 200 167.925 200 167.925 182 c 2,106,-1
 167.925 139 l 2,107,108
 167.925 96 167.925 96 174.725 75 c 128,-1,109
 181.524 54 181.524 54 207.875 34 c 0,110,111
 214.675 29 214.675 29 244.425 29 c 0,112,113
 250.375 29 250.375 29 255.475 25.5 c 128,-1,114
 260.574 22 260.574 22 260.574 18 c 0,115,116
 260.574 0 260.574 0 233.375 0 c 0,117,118
 207.875 0 207.875 0 191.3 2 c 128,-1,119
 174.725 4 174.725 4 162.824 4 c 0,120,121
 137 4 137 4 105 1.5 c 128,-1,122
 73 -1 73 -1 57 -1 c 0,123,124
 10 -1 10 -1 10 14 c 0,125,126
 10 23 10 23 19.5 26.5 c 128,-1,127
 29 30 29 30 41 31.5 c 128,-1,128
 53 33 53 33 66 44.5 c 128,-1,129
 79 56 79 56 84 78 c 0,130,131
 87 95 87 95 92 181 c 128,-1,132
 97 267 97 267 97 345 c 2,133,-1
 97 402 l 2,134,135
 97 415 97 415 97.5 451.5 c 128,-1,136
 98 488 98 488 98 510 c 0,137,138
 98 586 98 586 92 629 c 0,139,140
 89 654 89 654 65.5 668 c 128,-1,141
 42 682 42 682 17 682 c 0,142,143
 7 682 7 682 1.5 688.5 c 128,-1,144
 -4 695 -4 695 -4 699 c 0,0,1
EndSplineSet
Validated: 524289
Substitution2: "'c2sc' Capitals to Small Capitals in Latin lookup 13 subtable" h.sc
AlternateSubs2: "'aalt' Access All Alternates in Latin lookup 1 subtable" h.sc
AlternateSubs2: "'aalt' Access All Alternates lookup 0 subtable" h.sc
Position2: "'cpsp' Capital Spacing in Latin lookup 0 subtable" dx=10 dy=0 dh=20 dv=0
EndChar

StartChar: I
Encoding: 73 73 44
Width: 304
GlyphClass: 2
Flags: W
HStem: 0 29<10.011 64.6995 211.598 279.326> 667 41<187.781 246.564> 680 30<-3.99316 66.9487>
VStem: 95 77.5<63.5436 657.817>
LayerCount: 2
Fore
SplineSet
-4 695 m 0,0,1
 -4 710 -4 710 24 710 c 0,2,3
 34 710 34 710 70 708 c 128,-1,4
 106 706 106 706 137 706 c 0,5,6
 156 706 156 706 173.5 707 c 128,-1,7
 191 708 191 708 225 708 c 0,8,9
 252 708 252 708 252 694 c 0,10,11
 252 686 252 686 206 667 c 0,12,13
 174 654 174 654 174 552 c 0,14,15
 174 417 174 417 172.5 313.5 c 128,-1,16
 171 210 171 210 171 182 c 0,17,18
 171 98 171 98 196 61 c 0,19,20
 218 30 218 30 244 30 c 0,21,22
 246 30 246 30 254 29.5 c 128,-1,23
 262 29 262 29 264 29 c 0,24,25
 271 29 271 29 278 25.5 c 128,-1,26
 285 22 285 22 285 18 c 0,27,28
 285 7 285 7 279.5 3.5 c 128,-1,29
 274 0 274 0 260 0 c 0,30,31
 230 0 230 0 204.5 2 c 128,-1,32
 179 4 179 4 165 4 c 0,33,34
 137 4 137 4 104 1.5 c 128,-1,35
 71 -1 71 -1 55 -1 c 0,36,37
 10 -1 10 -1 10 14 c 0,38,39
 10 23 10 23 19.5 26.5 c 128,-1,40
 29 30 29 30 41 31.5 c 128,-1,41
 53 33 53 33 66 44.5 c 128,-1,42
 79 56 79 56 84 78 c 0,43,44
 86 85 86 85 90.5 191.5 c 128,-1,45
 95 298 95 298 95 345 c 2,46,-1
 95 402 l 2,47,48
 95 415 95 415 95.5 451.5 c 128,-1,49
 96 488 96 488 96 510 c 2,50,-1
 96 556 l 2,51,52
 96 600 96 600 92 629 c 0,53,54
 89 653 89 653 65.5 666 c 128,-1,55
 42 679 42 679 17 680 c 0,56,57
 -4 681 -4 681 -4 695 c 0,0,1
EndSplineSet
Validated: 1
Substitution2: "'c2sc' Capitals to Small Capitals in Latin lookup 13 subtable" i.sc
AlternateSubs2: "'aalt' Access All Alternates in Latin lookup 1 subtable" i.sc
AlternateSubs2: "'aalt' Access All Alternates lookup 0 subtable" i.sc
Position2: "'cpsp' Capital Spacing in Latin lookup 0 subtable" dx=10 dy=0 dh=20 dv=0
EndChar

StartChar: J
Encoding: 74 74 45
Width: 266
GlyphClass: 2
Flags: W
HStem: -192 59<-34.75 68.8151> 667 41<198.583 254.059> 678 35<9.00708 87.9725>
VStem: 115 77<-48.658 656.151>
LayerCount: 2
Fore
SplineSet
-56 -154 m 0,0,1
 -56 -139 -56 -139 -44.5 -119 c 128,-1,2
 -33 -99 -33 -99 -25 -99 c 0,3,4
 -19 -99 -19 -99 -3.5 -116 c 128,-1,5
 12 -133 12 -133 33 -133 c 0,6,7
 88 -133 88 -133 102 -55 c 0,8,9
 115 13 115 13 115 66 c 0,10,11
 115 77 115 77 115 107 c 128,-1,12
 115 137 115 137 115 163 c 2,13,-1
 114 189 l 2,14,15
 114 209 114 209 113.5 224 c 128,-1,16
 113 239 113 239 112.5 256 c 128,-1,17
 112 273 112 273 111.5 343 c 128,-1,18
 111 413 111 413 111 530 c 0,19,20
 111 594 111 594 107 629 c 0,21,22
 104 653 104 653 80.5 665 c 128,-1,23
 57 677 57 677 31 678 c 0,24,25
 9 679 9 679 9 696 c 128,-1,26
 9 713 9 713 38 713 c 0,27,28
 48 713 48 713 83.5 710 c 128,-1,29
 119 707 119 707 151 707 c 0,30,31
 170 707 170 707 184 707.5 c 128,-1,32
 198 708 198 708 232 708 c 0,33,34
 260 708 260 708 260 695 c 0,35,36
 260 686 260 686 214 667 c 0,37,38
 193 659 193 659 193 599 c 2,39,-1
 193 553 l 2,40,41
 193 387 193 387 192.5 281.5 c 128,-1,42
 192 176 192 176 192 146 c 128,-1,43
 192 116 192 116 191.5 98 c 128,-1,44
 191 80 191 80 191 69 c 0,45,46
 191 -45 191 -45 129.5 -118.5 c 128,-1,47
 68 -192 68 -192 -16 -192 c 0,48,49
 -56 -192 -56 -192 -56 -154 c 0,0,1
EndSplineSet
Validated: 1
Substitution2: "'c2sc' Capitals to Small Capitals in Latin lookup 13 subtable" j.sc
AlternateSubs2: "'aalt' Access All Alternates in Latin lookup 1 subtable" j.sc
AlternateSubs2: "'aalt' Access All Alternates lookup 0 subtable" j.sc
Position2: "'cpsp' Capital Spacing in Latin lookup 0 subtable" dx=10 dy=0 dh=20 dv=0
EndChar

StartChar: K
Encoding: 75 75 46
Width: 644
GlyphClass: 2
Flags: W
HStem: -1 24.5<28.5713 65.3447 210.77 260.452> 324 51<170.287 202.868> 680 28<-3.93848 64.4955 376.837 425.593 547.127 605.081>
VStem: 95 75.9248<48.7578 323.993 375.005 659.625>
LayerCount: 2
Fore
SplineSet
-4 695 m 0,0,1
 -4 708 -4 708 24 708 c 0,2,3
 34 708 34 708 70 707 c 128,-1,4
 106 706 106 706 137 706 c 0,5,6
 154.774 706 154.774 706 167.524 707 c 128,-1,7
 180.274 708 180.274 708 212.574 708 c 0,8,9
 227.024 708 227.024 708 227.024 695 c 0,10,11
 227.024 691 227.024 691 222.774 688 c 128,-1,12
 218.524 685 218.524 685 210.449 681 c 128,-1,13
 202.375 677 202.375 677 197.274 674 c 0,14,15
 170.925 656 170.925 656 170.925 552 c 0,16,17
 170.925 498 170.925 498 169.649 448 c 128,-1,18
 168.375 398 168.375 398 168.375 396 c 0,19,20
 168.375 375 168.375 375 176.024 375 c 0,21,22
 181.975 375 181.975 375 244.024 434.5 c 128,-1,23
 306.074 494 306.074 494 367.274 563.5 c 128,-1,24
 428.475 633 428.475 633 428.475 655 c 0,25,26
 428.475 661 428.475 661 425.925 665.5 c 128,-1,27
 423.375 670 423.375 670 417.425 673 c 128,-1,28
 411.475 676 411.475 676 407.225 677.5 c 128,-1,29
 402.975 679 402.975 679 395.324 680.5 c 128,-1,30
 387.675 682 387.675 682 385.975 683 c 0,31,32
 376.625 685 376.625 685 376.625 697 c 0,33,34
 376.625 708 376.625 708 390.225 708 c 0,35,36
 391.925 708 391.925 708 399.149 707.5 c 128,-1,37
 406.375 707 406.375 707 411.475 707 c 0,38,39
 413.175 707 413.175 707 431.449 706 c 128,-1,40
 449.725 705 449.725 705 462.475 705 c 2,41,-1
 585.125 708 l 2,42,43
 605.125 708 605.125 708 605.125 695 c 0,44,45
 605.125 688 605.125 688 599.125 684.5 c 128,-1,46
 593.125 681 593.125 681 576.125 676 c 128,-1,47
 559.125 671 559.125 671 547.125 666 c 0,48,49
 542.125 664 542.125 664 498.125 636 c 0,50,51
 489.125 630 489.125 630 397.875 543 c 0,52,53
 334.125 479 334.125 479 249.975 396 c 1,54,-1
 240.625 382 l 1,55,56
 240.625 377 240.625 377 249.975 366 c 0,57,58
 289.925 319 289.925 319 353.675 245 c 0,59,60
 472.125 107 472.125 107 513.125 72.5 c 128,-1,61
 554.125 38 554.125 38 591.125 32 c 0,62,63
 620.125 28 620.125 28 624.125 20 c 0,64,65
 625.125 18 625.125 18 625.125 14 c 0,66,67
 625.125 5 625.125 5 616.625 3 c 128,-1,68
 608.125 1 608.125 1 567.125 1 c 2,69,-1
 470.125 1 l 2,70,71
 464.175 1 464.175 1 461.199 2 c 128,-1,72
 458.225 3 458.225 3 455.25 5 c 128,-1,73
 452.274 7 452.274 7 447.6 13.5 c 128,-1,74
 442.925 20 442.925 20 436.55 28.5 c 128,-1,75
 430.175 37 430.175 37 417 54.5 c 128,-1,76
 403.824 72 403.824 72 387.675 91 c 0,77,78
 207.475 306 207.475 306 198.125 315 c 256,79,80
 188.774 324 188.774 324 181.975 324 c 0,81,82
 170.074 324 170.074 324 170.074 297 c 2,83,-1
 170.074 294 l 2,84,85
 170.074 291 170.074 291 170.5 285 c 128,-1,86
 170.925 279 170.925 279 170.925 271 c 128,-1,87
 170.925 263 170.925 263 170.925 249.5 c 128,-1,88
 170.925 236 170.925 236 170.925 220 c 0,89,90
 170.925 89 170.925 89 183.675 62 c 0,91,92
 199.824 30 199.824 30 240.625 30 c 0,93,94
 242.324 30 242.324 30 244.024 29.5 c 128,-1,95
 245.725 29 245.725 29 247.425 29 c 0,96,97
 253.375 29 253.375 29 259.324 25.5 c 128,-1,98
 265.274 22 265.274 22 265.274 18 c 0,99,100
 265.274 7 265.274 7 260.6 3.5 c 128,-1,101
 255.925 0 255.925 0 244.024 0 c 0,102,103
 218.524 0 218.524 0 196.85 2 c 128,-1,104
 175.175 4 175.175 4 163.274 4 c 0,105,106
 137 4 137 4 104 1.5 c 128,-1,107
 71 -1 71 -1 55 -1 c 0,108,109
 19 -1 19 -1 19 10 c 2,110,-1
 19 14 l 2,111,112
 19 21 19 21 28.5 23.5 c 128,-1,113
 38 26 38 26 52 30 c 128,-1,114
 66 34 66 34 74 42 c 0,115,116
 88 56 88 56 91.5 106.5 c 128,-1,117
 95 157 95 157 95 268 c 2,118,-1
 95 402 l 2,119,120
 95 415 95 415 94 451.5 c 128,-1,121
 93 488 93 488 93 510 c 2,122,-1
 93 556 l 2,123,124
 93 607 93 607 90 629 c 0,125,126
 87 653 87 653 64.5 666 c 128,-1,127
 42 679 42 679 17 680 c 0,128,129
 -4 681 -4 681 -4 695 c 0,0,1
EndSplineSet
Validated: 524289
Substitution2: "'c2sc' Capitals to Small Capitals in Latin lookup 13 subtable" k.sc
AlternateSubs2: "'aalt' Access All Alternates in Latin lookup 1 subtable" k.sc
AlternateSubs2: "'aalt' Access All Alternates lookup 0 subtable" k.sc
Position2: "'cpsp' Capital Spacing in Latin lookup 0 subtable" dx=10 dy=0 dh=20 dv=0
EndChar

StartChar: L
Encoding: 76 76 47
Width: 535
GlyphClass: 2
Flags: W
HStem: -3 28<12.177 56.5623> 5 43<174.297 371.804> 682.5 28.5<-1.42004 59.3047 195.747 242.123>
VStem: 91 74.9248<55.6854 657.543>
LayerCount: 2
Fore
SplineSet
-4 695 m 0,0,1
 -4 713 -4 713 23 713 c 0,2,3
 27 713 27 713 36 712 c 128,-1,4
 45 711 45 711 50 711 c 0,5,6
 60 711 60 711 87.5 709 c 128,-1,7
 115 707 115 707 137 707 c 0,8,9
 165.074 707 165.074 707 194.824 709 c 128,-1,10
 224.574 711 224.574 711 227.975 711 c 0,11,12
 242.425 711 242.425 711 242.425 701 c 0,13,14
 242.425 687 242.425 687 232.225 682.5 c 128,-1,15
 222.024 678 222.024 678 209.699 676.5 c 128,-1,16
 197.375 675 197.375 675 185.899 654.5 c 128,-1,17
 174.425 634 174.425 634 172.725 593 c 0,18,19
 171.024 554 171.024 554 168.475 375 c 128,-1,20
 165.925 196 165.925 196 165.925 175 c 2,21,-1
 165.925 135 l 2,22,23
 165.925 63 165.925 63 186.324 56 c 0,24,25
 207.574 48 207.574 48 222.875 48 c 0,26,27
 286.625 48 286.625 48 334.649 55 c 128,-1,28
 382.675 62 382.675 62 410.05 72.5 c 128,-1,29
 437.425 83 437.425 83 456.425 95.5 c 128,-1,30
 475.425 108 475.425 108 480.925 118.5 c 128,-1,31
 486.425 129 486.425 129 491.925 136 c 128,-1,32
 497.425 143 497.425 143 503.425 143 c 0,33,34
 515.425 143 515.425 143 515.425 126 c 0,35,36
 515.425 83 515.425 83 472.425 39 c 128,-1,37
 429.425 -5 429.425 -5 397.425 -5 c 0,38,39
 335.925 -5 335.925 -5 259 0 c 128,-1,40
 182.074 5 182.074 5 163.375 5 c 0,41,42
 138 5 138 5 101.5 1 c 128,-1,43
 65 -3 65 -3 41 -3 c 0,44,45
 12 -3 12 -3 12 9 c 0,46,47
 12 16 12 16 17.5 20.5 c 128,-1,48
 23 25 23 25 28 25 c 0,49,50
 43 25 43 25 57 35 c 0,51,52
 75 49 75 49 83 86.5 c 128,-1,53
 91 124 91 124 91 231 c 2,54,-1
 91 355 l 2,55,56
 91 382 91 382 92.5 439 c 128,-1,57
 94 496 94 496 94 528 c 0,58,59
 94 555 94 555 92 619 c 0,60,61
 91 648 91 648 67 664 c 128,-1,62
 43 680 43 680 11 681 c 0,63,64
 1 681 1 681 -1.5 684.5 c 128,-1,65
 -4 688 -4 688 -4 695 c 0,0,1
EndSplineSet
Validated: 524289
Substitution2: "'c2sc' Capitals to Small Capitals in Latin lookup 13 subtable" l.sc
AlternateSubs2: "'aalt' Access All Alternates in Latin lookup 1 subtable" l.sc
AlternateSubs2: "'aalt' Access All Alternates lookup 0 subtable" l.sc
Position2: "'cpsp' Capital Spacing in Latin lookup 0 subtable" dx=10 dy=0 dh=20 dv=0
EndChar

StartChar: M
Encoding: 77 77 48
Width: 814
GlyphClass: 2
Flags: HW
LayerCount: 2
Fore
SplineSet
-4 695 m 0,0,1
 -4 710 -4 710 14 710 c 0,2,3
 20 710 20 710 41.5 708 c 128,-1,4
 63 706 63 706 67 706 c 0,5,6
 82 706 82 706 108 707 c 128,-1,7
 134 708 134 708 142 708 c 0,8,9
 159.2 708 159.2 708 163.45 694 c 1,10,11
 173.65 668 173.65 668 200 600.5 c 128,-1,12
 226.35 533 226.35 533 242.075 493 c 128,-1,13
 257.8 453 257.8 453 282.45 391 c 128,-1,14
 307.1 329 307.1 329 322.4 290.5 c 128,-1,15
 337.7 252 337.7 252 354.275 213 c 128,-1,16
 370.85 174 370.85 174 379.775 155.5 c 128,-1,17
 388.7 137 388.7 137 391.25 137 c 128,-1,18
 393.8 137 393.8 137 396.775 140.5 c 128,-1,19
 399.75 144 399.75 144 402.725 150 c 128,-1,20
 405.7 156 405.7 156 407.825 162 c 128,-1,21
 409.95 168 409.95 168 413.775 177.5 c 128,-1,22
 417.6 187 417.6 187 419.3 192 c 2,23,-1
 528.95 458 l 2,24,25
 547.65 503 547.65 503 562.1 539 c 128,-1,26
 576.55 575 576.55 575 585.05 597 c 128,-1,27
 593.55 619 593.55 619 599.5 635 c 128,-1,28
 605.45 651 605.45 651 608.95 659 c 128,-1,29
 612.45 667 612.45 667 613.95 671.5 c 128,-1,30
 615.45 676 615.45 676 616.45 678.5 c 128,-1,31
 617.45 681 617.45 681 618.45 683 c 128,-1,32
 619.45 685 619.45 685 621.95 692 c 128,-1,33
 624.45 699 624.45 699 626.95 701.5 c 128,-1,34
 629.45 704 629.45 704 636.95 707 c 128,-1,35
 644.45 710 644.45 710 656.45 710 c 0,36,37
 675.45 710 675.45 710 691.95 709 c 128,-1,38
 708.45 708 708.45 708 742.45 708 c 0,39,40
 759.45 708 759.45 708 759.45 695 c 0,41,42
 759.45 685 759.45 685 752.95 680.5 c 128,-1,43
 746.45 676 746.45 676 726.45 673 c 0,44,45
 701.45 670 701.45 670 691.45 648 c 128,-1,46
 681.45 626 681.45 626 681.45 564 c 0,47,48
 681.45 429 681.45 429 687.45 319.5 c 128,-1,49
 693.45 210 693.45 210 693.45 182 c 0,50,51
 693.45 82 693.45 82 709.45 54.5 c 128,-1,52
 725.45 27 725.45 27 776.45 27 c 0,53,54
 783.45 27 783.45 27 788.95 22 c 128,-1,55
 794.45 17 794.45 17 794.45 13 c 0,56,57
 794.45 7 794.45 7 793.45 4 c 128,-1,58
 792.45 1 792.45 1 789.45 -1 c 128,-1,59
 786.45 -3 786.45 -3 783.45 -3 c 128,-1,60
 780.45 -3 780.45 -3 772.45 -3 c 0,61,62
 742.45 -3 742.45 -3 713.45 -1 c 128,-1,63
 684.45 1 684.45 1 670.45 1 c 0,64,65
 642.45 1 642.45 1 614.175 -1.5 c 128,-1,66
 585.9 -4 585.9 -4 572.3 -4 c 0,67,68
 557 -4 557 -4 557 10 c 0,69,70
 557 19 557 19 563.8 23 c 128,-1,71
 570.6 27 570.6 27 579.525 28 c 128,-1,72
 588.45 29 588.45 29 598.45 40.5 c 128,-1,73
 608.45 52 608.45 52 613.45 75 c 0,74,75
 617.45 95 617.45 95 617.45 139 c 0,76,77
 617.45 171 617.45 171 615.95 216 c 128,-1,78
 614.45 261 614.45 261 612.45 303.5 c 128,-1,79
 610.45 346 610.45 346 608.45 383.5 c 128,-1,80
 606.45 421 606.45 421 605.45 445 c 2,81,-1
 603.75 469 l 1,82,83
 603.75 512 603.75 512 596.1 512 c 0,84,85
 595.25 512 595.25 512 593.55 511 c 128,-1,86
 591.85 510 591.85 510 590.575 508 c 128,-1,87
 589.3 506 589.3 506 587.6 504 c 128,-1,88
 585.9 502 585.9 502 584.2 497.5 c 128,-1,89
 582.5 493 582.5 493 580.8 490 c 128,-1,90
 579.1 487 579.1 487 576.55 481.5 c 128,-1,91
 574 476 574 476 572.3 472 c 128,-1,92
 570.6 468 570.6 468 567.625 461 c 128,-1,93
 564.65 454 564.65 454 562.95 449 c 2,94,-1
 444.8 168 l 2,95,96
 424.4 119 424.4 119 401.45 63 c 0,97,98
 386.15 25 386.15 25 382.75 18.5 c 128,-1,99
 379.35 12 379.35 12 374.25 12 c 0,100,101
 366.6 12 366.6 12 361.5 20.5 c 128,-1,102
 356.4 29 356.4 29 346.2 58 c 128,-1,103
 336 87 336 87 328.35 106 c 0,104,105
 172.8 478 172.8 478 168.55 485 c 0,106,107
 166 489 166 489 163.45 489 c 0,108,109
 156.65 489 156.65 489 156.65 449 c 0,110,111
 155.8 371 155.8 371 152.4 295 c 128,-1,112
 149 219 149 219 149 185 c 2,113,-1
 149 140 l 2,114,115
 149 114 149 114 150.275 100 c 128,-1,116
 151.55 86 151.55 86 157.075 67.5 c 128,-1,117
 162.6 49 162.6 49 177.05 39 c 128,-1,118
 191.5 29 191.5 29 214.45 26 c 0,119,120
 218.7 26 218.7 26 222.525 22.5 c 128,-1,121
 226.35 19 226.35 19 226.35 15 c 0,122,123
 226.35 4 226.35 4 223.8 0.5 c 128,-1,124
 221.25 -3 221.25 -3 213.6 -3 c 0,125,126
 196.6 -3 196.6 -3 160.8 -1 c 128,-1,127
 125 1 125 1 121 1 c 0,128,129
 119 1 119 1 92 -0.5 c 128,-1,130
 65 -2 65 -2 39 -2 c 0,131,132
 31 -2 31 -2 27.5 -1 c 128,-1,133
 24 0 24 0 21 3.5 c 128,-1,134
 18 7 18 7 18 14 c 0,135,136
 18 22 18 22 27 25 c 128,-1,137
 36 28 36 28 47.5 28.5 c 128,-1,138
 59 29 59 29 73 44.5 c 128,-1,139
 87 60 87 60 94 90 c 0,140,141
 99 112 99 112 106 264 c 128,-1,142
 113 416 113 416 113 489 c 0,143,144
 113 589 113 589 93.5 627 c 128,-1,145
 74 665 74 665 9 680 c 0,146,147
 -4 683 -4 683 -4 695 c 0,0,1
EndSplineSet
Validated: 524289
Substitution2: "'c2sc' Capitals to Small Capitals in Latin lookup 13 subtable" m.sc
AlternateSubs2: "'aalt' Access All Alternates in Latin lookup 1 subtable" m.sc
AlternateSubs2: "'aalt' Access All Alternates lookup 0 subtable" m.sc
Position2: "'cpsp' Capital Spacing in Latin lookup 0 subtable" dx=10 dy=0 dh=20 dv=0
EndChar

StartChar: N
Encoding: 78 78 49
Width: 706
GlyphClass: 2
Flags: W
HStem: -4 30.5<13.0215 61.4834 168.962 222.756> 676 32<-3.93848 56.7114 449.438 516.133>
VStem: 102 43.9248<68.6521 484.229> 111 31.5244<303.675 519.82> 557.583 49.5<149.903 641.512>
LayerCount: 2
Fore
SplineSet
-4 691 m 0,0,1
 -4 697 -4 697 3 702.5 c 128,-1,2
 10 708 10 708 21 708 c 0,3,4
 27 708 27 708 41 707.5 c 128,-1,5
 55 707 55 707 59 707 c 0,6,7
 74 707 74 707 87 708 c 128,-1,8
 100 709 100 709 108 709 c 0,9,10
 117 709 117 709 128.062 703.5 c 128,-1,11
 139.125 698 139.125 698 140.824 692 c 0,12,13
 142.524 689 142.524 689 150.175 678.5 c 128,-1,14
 157.824 668 157.824 668 170.574 651 c 128,-1,15
 183.324 634 183.324 634 193.524 618 c 0,16,17
 309.125 441 309.125 441 504.083 191 c 0,18,19
 510.083 184 510.083 184 518.583 175 c 128,-1,20
 527.083 166 527.083 166 530.583 161.5 c 128,-1,21
 534.083 157 534.083 157 538.083 153 c 128,-1,22
 542.083 149 542.083 149 544.583 147.5 c 128,-1,23
 547.083 146 547.083 146 549.083 146 c 0,24,25
 559.083 146 559.083 146 559.083 208 c 2,26,-1
 559.083 325 l 2,27,28
 559.083 392 559.083 392 558.583 438 c 128,-1,29
 558.083 484 558.083 484 557.583 504.5 c 128,-1,30
 557.083 525 557.083 525 557.083 530 c 2,31,-1
 557.083 537 l 2,32,33
 557.083 571 557.083 571 552.583 595 c 128,-1,34
 548.083 619 548.083 619 542.083 632 c 128,-1,35
 536.083 645 536.083 645 524.583 654 c 128,-1,36
 513.083 663 513.083 663 505.083 665.5 c 128,-1,37
 497.083 668 497.083 668 484.278 671 c 128,-1,38
 471.475 674 471.475 674 466.375 676 c 0,39,40
 449.375 682 449.375 682 449.375 693 c 0,41,42
 449.375 708 449.375 708 465.524 708 c 0,43,44
 470.625 708 470.625 708 510.354 707.5 c 128,-1,45
 550.083 707 550.083 707 555.083 707 c 0,46,47
 579.083 707 579.083 707 608.583 708 c 128,-1,48
 638.083 709 638.083 709 645.083 709 c 0,49,50
 662.083 709 662.083 709 668.583 705.5 c 128,-1,51
 675.083 702 675.083 702 675.083 692 c 0,52,53
 675.083 688 675.083 688 669.583 684.5 c 128,-1,54
 664.083 681 664.083 681 658.083 678.5 c 128,-1,55
 652.083 676 652.083 676 646.083 674 c 2,56,-1
 640.083 672 l 1,57,58
 607.083 654 607.083 654 607.083 559 c 2,59,-1
 607.083 521 l 2,60,61
 607.083 445 607.083 445 601.583 257.5 c 128,-1,62
 596.083 70 596.083 70 596.083 26 c 2,63,-1
 596.083 6 l 2,64,65
 596.083 -17 596.083 -17 582.083 -17 c 0,66,67
 573.083 -17 573.083 -17 566.083 -10 c 0,68,69
 273.425 375 273.425 375 218.6 447.5 c 128,-1,70
 163.774 520 163.774 520 157.824 520 c 0,71,72
 149.324 520 149.324 520 149.324 452 c 0,73,74
 149.324 357 149.324 357 145.925 247.5 c 128,-1,75
 142.524 138 142.524 138 142.524 128 c 0,76,77
 142.524 83 142.524 83 155.699 59.5 c 128,-1,78
 168.875 36 168.875 36 184.175 33 c 128,-1,79
 199.475 30 199.475 30 212.649 26.5 c 128,-1,80
 225.824 23 225.824 23 225.824 13 c 0,81,82
 225.824 2 225.824 2 222.85 -1 c 128,-1,83
 219.875 -4 219.875 -4 212.225 -4 c 0,84,85
 206.274 -4 206.274 -4 185.449 -3 c 128,-1,86
 164.625 -2 164.625 -2 120 -2 c 0,87,88
 111 -2 111 -2 83 -3 c 128,-1,89
 55 -4 55 -4 35 -4 c 0,90,91
 13 -4 13 -4 13 12 c 0,92,93
 13 21 13 21 26 23.5 c 128,-1,94
 39 26 39 26 58 39 c 128,-1,95
 77 52 77 52 87 88 c 0,96,97
 93 111 93 111 102 274 c 128,-1,98
 111 437 111 437 111 499 c 0,99,100
 111 585 111 585 87 627.5 c 128,-1,101
 63 670 63 670 9 676 c 0,102,103
 -4 677 -4 677 -4 691 c 0,0,1
EndSplineSet
Validated: 524289
Substitution2: "'c2sc' Capitals to Small Capitals in Latin lookup 13 subtable" n.sc
AlternateSubs2: "'aalt' Access All Alternates in Latin lookup 1 subtable" n.sc
AlternateSubs2: "'aalt' Access All Alternates lookup 0 subtable" n.sc
Position2: "'cpsp' Capital Spacing in Latin lookup 0 subtable" dx=10 dy=0 dh=20 dv=0
EndChar

StartChar: O
Encoding: 79 79 50
Width: 742
GlyphClass: 2
Flags: W
HStem: -16 44<274.895 457.208> 682 40<236.11 422.786>
VStem: 15.2002 84.124<256.922 487.856> 616.776 82<235.182 461.342>
LayerCount: 2
Fore
SplineSet
15.2002 339 m 0,0,1
 15.2002 507 15.2002 507 105.712 614.5 c 128,-1,2
 196.225 722 196.225 722 353.475 722 c 0,3,4
 426.574 722 426.574 722 485.675 697 c 128,-1,5
 544.776 672 544.776 672 584.776 635.5 c 128,-1,6
 624.776 599 624.776 599 651.776 552 c 128,-1,7
 678.776 505 678.776 505 688.776 465.5 c 128,-1,8
 698.776 426 698.776 426 698.776 392 c 0,9,10
 698.776 256 698.776 256 645.776 162.5 c 128,-1,11
 592.776 69 592.776 69 515.2 26.5 c 128,-1,12
 437.624 -16 437.624 -16 341.574 -16 c 0,13,14
 240.425 -16 240.425 -16 166.899 36 c 128,-1,15
 93.374 88 93.374 88 54.2871 167 c 128,-1,16
 15.2002 246 15.2002 246 15.2002 339 c 0,0,1
99.3242 390 m 0,17,18
 99.3242 350 99.3242 350 108.675 303.5 c 128,-1,19
 118.024 257 118.024 257 139.274 207.5 c 128,-1,20
 160.524 158 160.524 158 190.699 118.5 c 128,-1,21
 220.874 79 220.874 79 267.199 53.5 c 128,-1,22
 313.524 28 313.524 28 368.774 28 c 0,23,24
 397.675 28 397.675 28 429.55 38.5 c 128,-1,25
 461.425 49 461.425 49 492.874 71 c 128,-1,26
 524.324 93 524.324 93 552.05 124.5 c 128,-1,27
 579.776 156 579.776 156 598.276 201.5 c 128,-1,28
 616.776 247 616.776 247 616.776 300 c 0,29,30
 616.776 481 616.776 481 530.175 581.5 c 128,-1,31
 443.574 682 443.574 682 324.574 682 c 0,32,33
 231.074 682 231.074 682 165.199 608 c 128,-1,34
 99.3242 534 99.3242 534 99.3242 390 c 0,17,18
EndSplineSet
Validated: 524289
Substitution2: "'c2sc' Capitals to Small Capitals in Latin lookup 13 subtable" o.sc
AlternateSubs2: "'aalt' Access All Alternates in Latin lookup 1 subtable" o.sc
AlternateSubs2: "'aalt' Access All Alternates lookup 0 subtable" o.sc
Position2: "'cpsp' Capital Spacing in Latin lookup 0 subtable" dx=10 dy=0 dh=20 dv=0
EndChar

StartChar: P
Encoding: 80 80 51
Width: 499
GlyphClass: 2
Flags: HW
LayerCount: 2
Fore
SplineSet
-4 694 m 0,0,1
 -4 710 -4 710 19 710 c 0,2,3
 22 710 22 710 30 710.5 c 128,-1,4
 38 711 38 711 56 711 c 0,5,6
 61 711 61 711 83.5 709.5 c 128,-1,7
 106 708 106 708 116 708 c 0,8,9
 138 708 138 708 193.95 709.5 c 128,-1,10
 249.9 711 249.9 711 264.35 711 c 0,11,12
 344.25 711 344.25 711 408.425 663.5 c 128,-1,13
 472.6 616 472.6 616 472.6 527 c 0,14,15
 472.6 478 472.6 478 454.6 439.5 c 128,-1,16
 436.6 401 436.6 401 411.25 379 c 128,-1,17
 385.9 357 385.9 357 359.125 342.5 c 128,-1,18
 332.35 328 332.35 328 311.525 323.5 c 128,-1,19
 290.7 319 290.7 319 274.55 319 c 0,20,21
 247.35 319 247.35 319 219.3 326.5 c 128,-1,22
 191.25 334 191.25 334 191.25 342 c 0,23,24
 191.25 357 191.25 357 202.3 357 c 0,25,26
 206.55 357 206.55 357 219.725 353 c 128,-1,27
 232.9 349 232.9 349 245.65 349 c 0,28,29
 265.2 349 265.2 349 287.3 355.5 c 128,-1,30
 309.4 362 309.4 362 333.2 376.5 c 128,-1,31
 357 391 357 391 372.3 420.5 c 128,-1,32
 387.6 450 387.6 450 387.6 489 c 0,33,34
 387.6 556 387.6 556 341.7 613.5 c 128,-1,35
 295.8 671 295.8 671 215.05 671 c 0,36,37
 188.7 671 188.7 671 179.35 652.5 c 128,-1,38
 170 634 170 634 170 569 c 0,39,40
 170 361 170 361 169 331.5 c 128,-1,41
 168 302 168 302 168 156 c 0,42,43
 168 68 168 68 203.15 41 c 0,44,45
 212.5 34 212.5 34 226.525 32 c 128,-1,46
 240.55 30 240.55 30 249.9 30.5 c 128,-1,47
 259.25 31 259.25 31 266.475 26.5 c 128,-1,48
 273.7 22 273.7 22 273.7 10 c 0,49,50
 273.7 -7 273.7 -7 254.15 -7 c 128,-1,51
 234.6 -7 234.6 -7 182.3 -4.5 c 128,-1,52
 130 -2 130 -2 126 -2 c 0,53,54
 116 -2 116 -2 86.5 -4 c 128,-1,55
 57 -6 57 -6 33 -6 c 0,56,57
 2 -6 2 -6 2 5 c 0,58,59
 2 11 2 11 3.5 15 c 128,-1,60
 5 19 5 19 6.5 21.5 c 128,-1,61
 8 24 8 24 13 26 c 128,-1,62
 18 28 18 28 20 29 c 128,-1,63
 22 30 22 30 29.5 31.5 c 128,-1,64
 37 33 37 33 40 34 c 0,65,66
 42 35 42 35 46 35.5 c 128,-1,67
 50 36 50 36 51.5 36.5 c 128,-1,68
 53 37 53 37 56.5 39.5 c 128,-1,69
 60 42 60 42 62 46.5 c 128,-1,70
 64 51 64 51 67.5 58.5 c 128,-1,71
 71 66 71 66 75 78 c 0,72,73
 82 97 82 97 86 228 c 128,-1,74
 90 359 90 359 90 431 c 0,75,76
 90 493 90 493 89.5 545.5 c 128,-1,77
 89 598 89 598 89 601 c 0,78,79
 89 628 89 628 72 654.5 c 128,-1,80
 55 681 55 681 16 681 c 0,81,82
 -4 681 -4 681 -4 694 c 0,0,1
EndSplineSet
Validated: 524289
Substitution2: "'c2sc' Capitals to Small Capitals in Latin lookup 13 subtable" p.sc
AlternateSubs2: "'aalt' Access All Alternates in Latin lookup 1 subtable" p.sc
AlternateSubs2: "'aalt' Access All Alternates lookup 0 subtable" p.sc
Position2: "'cpsp' Capital Spacing in Latin lookup 0 subtable" dx=10 dy=0 dh=20 dv=0
EndChar

StartChar: Q
Encoding: 81 81 52
Width: 751
GlyphClass: 2
Flags: HW
LayerCount: 2
Fore
SplineSet
16 339 m 0,0,1
 16 510 16 510 103.15 616 c 128,-1,2
 190.3 722 190.3 722 358.6 722 c 0,3,4
 429.15 722 429.15 722 485.675 695 c 128,-1,5
 542.2 668 542.2 668 575.525 628.5 c 128,-1,6
 608.85 589 608.85 589 634.85 538.5 c 128,-1,7
 660.85 488 660.85 488 669.85 446 c 128,-1,8
 678.85 404 678.85 404 678.85 367 c 0,9,10
 678.85 296 678.85 296 654.85 224.5 c 128,-1,11
 630.85 153 630.85 153 585.675 95.5 c 128,-1,12
 540.5 38 540.5 38 485.25 20 c 0,13,14
 424.9 0 424.9 0 424.9 -3 c 0,15,16
 424.9 -14 424.9 -14 441.05 -22 c 0,17,18
 444.45 -24 444.45 -24 465.275 -35 c 128,-1,19
 486.1 -46 486.1 -46 493.75 -50 c 128,-1,20
 501.4 -54 501.4 -54 522.65 -65 c 128,-1,21
 543.9 -76 543.9 -76 555.375 -81 c 128,-1,22
 566.85 -86 566.85 -86 586.85 -95 c 128,-1,23
 606.85 -104 606.85 -104 622.35 -108.5 c 128,-1,24
 637.85 -113 637.85 -113 656.85 -118 c 128,-1,25
 675.85 -123 675.85 -123 691.35 -125 c 128,-1,26
 706.85 -127 706.85 -127 719.85 -127 c 0,27,28
 748.85 -127 748.85 -127 765.85 -118.5 c 128,-1,29
 782.85 -110 782.85 -110 792.35 -102 c 128,-1,30
 801.85 -94 801.85 -94 812.85 -94 c 0,31,32
 815.85 -94 815.85 -94 819.35 -98.5 c 128,-1,33
 822.85 -103 822.85 -103 822.85 -106 c 0,34,35
 822.85 -141 822.85 -141 768.85 -167.5 c 128,-1,36
 714.85 -194 714.85 -194 648.85 -194 c 0,37,38
 588.1 -194 588.1 -194 490.775 -143 c 128,-1,39
 393.45 -92 393.45 -92 308.025 -41 c 128,-1,40
 222.6 10 222.6 10 197.1 10 c 0,41,42
 158 10 158 10 139.3 -22 c 128,-1,43
 120.6 -54 120.6 -54 120.6 -96 c 2,44,-1
 120.6 -114 l 2,45,46
 120.6 -140 120.6 -140 105 -140 c 0,47,48
 95 -140 95 -140 88 -127 c 128,-1,49
 81 -114 81 -114 81 -98 c 0,50,51
 81 -54 81 -54 99.9502 -15 c 128,-1,52
 118.9 24 118.9 24 139.3 41 c 0,53,54
 158 57 158 57 158 59 c 0,55,56
 158 63 158 63 139.3 78 c 0,57,58
 16 171 16 171 16 339 c 0,0,1
107 390 m 0,59,60
 107 254 107 254 169.9 152 c 0,61,62
 203.05 97 203.05 97 264.675 62.5 c 128,-1,63
 326.3 28 326.3 28 372.2 28 c 0,64,65
 431.7 28 431.7 28 494.6 66 c 0,66,67
 530.3 88 530.3 88 565.575 152.5 c 128,-1,68
 600.85 217 600.85 217 600.85 300 c 0,69,70
 600.85 461 600.85 461 521.8 571.5 c 128,-1,71
 442.75 682 442.75 682 329.7 682 c 0,72,73
 236.2 682 236.2 682 171.6 608 c 128,-1,74
 107 534 107 534 107 390 c 0,59,60
EndSplineSet
Validated: 524289
Substitution2: "'c2sc' Capitals to Small Capitals in Latin lookup 13 subtable" q.sc
AlternateSubs2: "'aalt' Access All Alternates in Latin lookup 1 subtable" q.sc
AlternateSubs2: "'aalt' Access All Alternates lookup 0 subtable" q.sc
Position2: "'cpsp' Capital Spacing in Latin lookup 0 subtable" dx=10 dy=0 dh=20 dv=0
EndChar

StartChar: R
Encoding: 82 82 53
Width: 662
GlyphClass: 2
Flags: W
HStem: -4 31.5<9.00513 69.386 204.599 278.93 586.691 654.477> 333 38<181.126 283.871> 674 38<180.943 305.987> 682 30<-3.93628 64.2051>
VStem: 93.5 80.4248<51.5476 322.677 380.13 653.878> 390.969 84<452.857 590.846>
LayerCount: 2
Fore
SplineSet
-4 696 m 0,0,1
 -4 712 -4 712 25 712 c 2,2,-1
 185.824 712 l 2,3,4
 205.375 712 205.375 712 230.875 713.5 c 128,-1,5
 256.375 715 256.375 715 270.824 715 c 0,6,7
 347.324 715 347.324 715 411.146 669.5 c 128,-1,8
 474.969 624 474.969 624 474.969 547 c 0,9,10
 474.969 496 474.969 496 455.469 457.5 c 128,-1,11
 435.969 419 435.969 419 412.469 402 c 128,-1,12
 388.969 385 388.969 385 369.469 372.5 c 128,-1,13
 349.969 360 349.969 360 349.969 356 c 0,14,15
 349.969 344 349.969 344 433.969 226.5 c 128,-1,16
 517.969 109 517.969 109 548.969 76 c 1,17,18
 586.969 29 586.969 29 640.969 29 c 0,19,20
 654.969 29 654.969 29 654.969 17 c 0,21,22
 654.969 2 654.969 2 642.969 -3 c 128,-1,23
 630.969 -8 630.969 -8 580.969 -8 c 0,24,25
 533.969 -8 533.969 -8 494.969 15 c 0,26,27
 444.969 44 444.969 44 329.475 239 c 0,28,29
 323.524 250 323.524 250 320.975 255 c 0,30,31
 280.175 333 280.175 333 258.074 333 c 2,32,-1
 240.225 333 l 1,33,-1
 188.375 333 l 2,34,35
 178.175 333 178.175 333 176.05 323 c 128,-1,36
 173.925 313 173.925 313 173.925 262 c 0,37,38
 173.925 214 173.925 214 173.925 183 c 128,-1,39
 173.925 152 173.925 152 174.35 143.5 c 128,-1,40
 174.774 135 174.774 135 174.774 129.5 c 128,-1,41
 174.774 124 174.774 124 174.774 121 c 0,42,43
 174.774 80 174.774 80 190.925 57.5 c 128,-1,44
 207.074 35 207.074 35 227.05 31.5 c 128,-1,45
 247.024 28 247.024 28 263.175 23.5 c 128,-1,46
 279.324 19 279.324 19 279.324 9 c 0,47,48
 279.324 -7 279.324 -7 264.024 -7 c 0,49,50
 263.175 -7 263.175 -7 204.587 -3.5 c 128,-1,51
 146 0 146 0 140 0 c 0,52,53
 111 0 111 0 71 -2 c 128,-1,54
 31 -4 31 -4 30 -4 c 0,55,56
 9 -4 9 -4 9 12 c 0,57,58
 9 23 9 23 22 27.5 c 128,-1,59
 35 32 35 32 51 34 c 128,-1,60
 67 36 67 36 80 56 c 128,-1,61
 93 76 93 76 93 113 c 0,62,63
 93 139 93 139 93.5 253 c 128,-1,64
 94 367 94 367 94 428 c 0,65,66
 94 490 94 490 93.5 541.5 c 128,-1,67
 93 593 93 593 93 597 c 0,68,69
 93 634 93 634 78 653.5 c 128,-1,70
 63 673 63 673 44.5 675.5 c 128,-1,71
 26 678 26 678 11 682 c 128,-1,72
 -4 686 -4 686 -4 696 c 0,0,1
173.925 536 m 2,73,74
 173.925 433 173.925 433 174.774 408.5 c 128,-1,75
 175.625 384 175.625 384 180.725 380 c 0,76,77
 193.475 371 193.475 371 217.274 371 c 2,78,-1
 225.774 371 l 1,79,-1
 250.425 371 l 2,80,81
 322.675 371 322.675 371 356.821 410 c 128,-1,82
 390.969 449 390.969 449 390.969 510 c 0,83,84
 390.969 572 390.969 572 346.622 623 c 128,-1,85
 302.274 674 302.274 674 218.975 674 c 0,86,87
 187.524 674 187.524 674 180.725 654.5 c 128,-1,88
 173.925 635 173.925 635 173.925 564 c 2,89,-1
 173.925 536 l 2,73,74
EndSplineSet
Validated: 524289
Substitution2: "'c2sc' Capitals to Small Capitals in Latin lookup 13 subtable" r.sc
AlternateSubs2: "'aalt' Access All Alternates in Latin lookup 1 subtable" r.sc
AlternateSubs2: "'aalt' Access All Alternates lookup 0 subtable" r.sc
Position2: "'cpsp' Capital Spacing in Latin lookup 0 subtable" dx=10 dy=0 dh=20 dv=0
EndChar

StartChar: S
Encoding: 83 83 54
Width: 511
GlyphClass: 2
Flags: W
HStem: -13 44<154.045 321.207> 681 41<156.392 307.108>
VStem: 27.2002 25.624<164.031 207.978> 47.2002 59.624<495.14 621.618> 389.368 64<110.195 241.605> 407.096 28<525.007 568.448>
LayerCount: 2
Fore
SplineSet
27.2002 187 m 0,0,1
 27.2002 208 27.2002 208 39.2246 208 c 0,2,3
 50.2744 208 50.2744 208 52.8242 198 c 1,4,5
 61.3242 174 61.3242 174 68.5498 156.5 c 128,-1,6
 75.7744 139 75.7744 139 91.9248 113.5 c 128,-1,7
 108.074 88 108.074 88 126.774 71.5 c 128,-1,8
 145.475 55 145.475 55 174.8 43 c 128,-1,9
 204.125 31 204.125 31 238.975 31 c 0,10,11
 302.725 31 302.725 31 346.047 70.5 c 128,-1,12
 389.368 110 389.368 110 389.368 174 c 0,13,14
 389.368 221 389.368 221 358.371 252.5 c 128,-1,15
 327.375 284 327.375 284 297.425 297.5 c 128,-1,16
 267.475 311 267.475 311 215.199 333.5 c 128,-1,17
 162.925 356 162.925 356 129.774 379 c 0,18,19
 47.2002 433 47.2002 433 47.2002 526 c 0,20,21
 47.2002 615 47.2002 615 104.638 668.5 c 128,-1,22
 162.074 722 162.074 722 249.625 722 c 0,23,24
 281.925 722 281.925 722 328.51 705.5 c 128,-1,25
 375.096 689 375.096 689 376.096 689 c 0,26,27
 379.096 689 379.096 689 387.096 693 c 128,-1,28
 395.096 697 395.096 697 399.096 697 c 0,29,30
 412.096 697 412.096 697 414.096 689 c 0,31,32
 435.096 568 435.096 568 435.096 553 c 0,33,34
 435.096 525 435.096 525 421.096 525 c 0,35,36
 412.096 525 412.096 525 407.096 539 c 0,37,38
 395.096 568 395.096 568 383.596 586 c 128,-1,39
 372.096 604 372.096 604 367.096 609 c 128,-1,40
 362.096 614 362.096 614 342.274 633 c 0,41,42
 296.375 681 296.375 681 230.925 681 c 0,43,44
 178.225 681 178.225 681 142.524 651 c 128,-1,45
 106.824 621 106.824 621 106.824 570 c 0,46,47
 106.824 525 106.824 525 127.649 496 c 128,-1,48
 148.475 467 148.475 467 183.324 451 c 128,-1,49
 218.175 435 218.175 435 256.425 421 c 128,-1,50
 294.675 407 294.675 407 340.385 382 c 128,-1,51
 386.096 357 386.096 357 419.096 322 c 0,52,53
 453.368 279 453.368 279 453.368 215 c 0,54,55
 453.368 110 453.368 110 386.972 48.5 c 128,-1,56
 320.574 -13 320.574 -13 236.425 -13 c 0,57,58
 177.774 -13 177.774 -13 142.074 -5.5 c 128,-1,59
 106.375 2 106.375 2 68.9746 25 c 1,60,61
 57.9248 33 57.9248 33 42.5625 103 c 128,-1,62
 27.2002 173 27.2002 173 27.2002 187 c 0,0,1
EndSplineSet
Validated: 524289
Substitution2: "'c2sc' Capitals to Small Capitals in Latin lookup 13 subtable" s.sc
AlternateSubs2: "'aalt' Access All Alternates in Latin lookup 1 subtable" s.sc
AlternateSubs2: "'aalt' Access All Alternates lookup 0 subtable" s.sc
Position2: "'cpsp' Capital Spacing in Latin lookup 0 subtable" dx=10 dy=0 dh=20 dv=0
EndChar

StartChar: T
Encoding: 84 84 55
Width: 626
GlyphClass: 2
Flags: W
HStem: -3 35.5<180.761 244.35 355.161 412.392> 658 52<62.1943 253.117 344.331 561.974>
VStem: 265.47 70.6357<220.456 648.194>
LayerCount: 2
Fore
SplineSet
-4 580 m 0,0,1
 -4 620 -4 620 6 683 c 0,2,3
 6 685 6 685 6.5 690 c 128,-1,4
 7 695 7 695 7.5 696.5 c 128,-1,5
 8 698 8 698 8.5 701.5 c 128,-1,6
 9 705 9 705 10 706.5 c 128,-1,7
 11 708 11 708 12.5 710.5 c 128,-1,8
 14 713 14 713 16 714 c 128,-1,9
 18 715 18 715 21 716 c 128,-1,10
 24 717 24 717 28 717.5 c 128,-1,11
 32 718 32 718 37 718 c 0,12,13
 53 718 53 718 115.95 714 c 128,-1,14
 178.9 710 178.9 710 298.47 710 c 0,15,16
 486.556 710 486.556 710 574.556 715 c 0,17,18
 575.556 715 575.556 715 578.056 715.5 c 128,-1,19
 580.556 716 580.556 716 581.556 716 c 0,20,21
 592.556 716 592.556 716 596.556 710 c 128,-1,22
 600.556 704 600.556 704 600.556 699 c 0,23,24
 600.556 692 600.556 692 603.556 657 c 128,-1,25
 606.556 622 606.556 622 606.556 618 c 0,26,27
 606.556 593 606.556 593 603.556 586.5 c 128,-1,28
 600.556 580 600.556 580 590.556 580 c 0,29,30
 582.556 580 582.556 580 579.556 592 c 0,31,32
 571.556 621 571.556 621 565.556 631.5 c 128,-1,33
 559.556 642 559.556 642 539.556 650 c 128,-1,34
 519.556 658 519.556 658 479.755 658 c 2,35,-1
 369.255 658 l 2,36,37
 348.855 658 348.855 658 344.181 648.5 c 128,-1,38
 339.505 639 339.505 639 339.505 594 c 2,39,-1
 339.505 545 l 2,40,41
 339.505 411 339.505 411 338.23 309 c 128,-1,42
 336.955 207 336.955 207 336.955 179 c 0,43,44
 336.955 165 336.955 165 336.53 143.5 c 128,-1,45
 336.105 122 336.105 122 336.105 114 c 0,46,47
 336.105 71 336.105 71 348.005 57 c 0,48,49
 359.056 45 359.056 45 372.655 38.5 c 128,-1,50
 386.255 32 386.255 32 396.03 31 c 128,-1,51
 405.806 30 405.806 30 412.605 26 c 128,-1,52
 419.405 22 419.405 22 419.405 13 c 0,53,54
 419.405 2 419.405 2 415.155 -1 c 128,-1,55
 410.905 -4 410.905 -4 399.005 -4 c 0,56,57
 388.806 -4 388.806 -4 353.955 0 c 128,-1,58
 319.105 4 319.105 4 304.47 4 c 0,59,60
 292.47 4 292.47 4 256.935 0.5 c 128,-1,61
 221.4 -3 221.4 -3 206.95 -3 c 0,62,63
 175.5 -3 175.5 -3 175.5 13 c 0,64,65
 175.5 23 175.5 23 180.6 26.5 c 128,-1,66
 185.7 30 185.7 30 200.575 32.5 c 128,-1,67
 215.45 35 215.45 35 219.7 36 c 0,68,69
 251.47 44 251.47 44 255.47 76 c 0,70,71
 265.47 164 265.47 164 265.47 454 c 1,72,-1
 264.47 633 l 2,73,74
 264.47 652 264.47 652 253.47 656.5 c 128,-1,75
 242.47 661 242.47 661 195.05 661 c 0,76,77
 135.55 661 135.55 661 101.775 657 c 128,-1,78
 68 653 68 653 62 649.5 c 128,-1,79
 56 646 56 646 48 636 c 0,80,81
 39 624 39 624 33.5 609.5 c 128,-1,82
 28 595 28 595 26.5 585.5 c 128,-1,83
 25 576 25 576 20.5 569.5 c 128,-1,84
 16 563 16 563 7 563 c 0,85,86
 -4 563 -4 563 -4 580 c 0,0,1
EndSplineSet
Validated: 524289
Substitution2: "'c2sc' Capitals to Small Capitals in Latin lookup 13 subtable" t.sc
AlternateSubs2: "'aalt' Access All Alternates in Latin lookup 1 subtable" t.sc
AlternateSubs2: "'aalt' Access All Alternates lookup 0 subtable" t.sc
Position2: "'cpsp' Capital Spacing in Latin lookup 0 subtable" dx=10 dy=0 dh=20 dv=0
EndChar

StartChar: U
Encoding: 85 85 56
Width: 723
GlyphClass: 2
Flags: W
HStem: -19 47<268.399 491.468> 683 25<194.879 233.204 506.391 561.884>
VStem: 90 83.3506<165.271 649.851> 599.832 46<310.936 652.338>
LayerCount: 2
Fore
SplineSet
-4 697 m 0,0,1
 -4 702 -4 702 -3 704 c 128,-1,2
 -2 706 -2 706 3 708 c 128,-1,3
 8 710 8 710 19 710 c 128,-1,4
 30 710 30 710 65 708 c 128,-1,5
 100 706 100 706 132 706 c 0,6,7
 152 706 152 706 166.288 707 c 128,-1,8
 180.575 708 180.575 708 215.426 708 c 0,9,10
 233.275 708 233.275 708 233.275 694 c 0,11,12
 233.275 685 233.275 685 227.325 683 c 128,-1,13
 221.375 681 221.375 681 212.45 680 c 128,-1,14
 203.525 679 203.525 679 194.601 673 c 128,-1,15
 185.676 667 185.676 667 179.726 643.5 c 128,-1,16
 173.775 620 173.775 620 173.775 580 c 2,17,-1
 173.775 552 l 2,18,19
 173.775 505 173.775 505 173.351 433.5 c 128,-1,20
 172.926 362 172.926 362 172.926 336 c 0,21,22
 172.926 305 172.926 305 173.351 289 c 128,-1,23
 173.775 273 173.775 273 175.476 242.5 c 128,-1,24
 177.176 212 177.176 212 180.15 194.5 c 128,-1,25
 183.125 177 183.125 177 189.926 151.5 c 128,-1,26
 196.726 126 196.726 126 206.5 111 c 128,-1,27
 216.275 96 216.275 96 231.15 78 c 128,-1,28
 246.025 60 246.025 60 265.575 50.5 c 128,-1,29
 285.125 41 285.125 41 311.476 34.5 c 128,-1,30
 337.825 28 337.825 28 370.125 28 c 0,31,32
 397.325 28 397.325 28 412.625 29 c 128,-1,33
 427.926 30 427.926 30 454.7 35.5 c 128,-1,34
 481.476 41 481.476 41 497.2 51.5 c 128,-1,35
 512.926 62 512.926 62 534.379 83.5 c 128,-1,36
 555.832 105 555.832 105 568.832 136 c 128,-1,37
 581.832 167 581.832 167 590.832 215 c 128,-1,38
 599.832 263 599.832 263 599.832 324 c 0,39,40
 599.832 425 599.832 425 599.332 478 c 128,-1,41
 598.832 531 598.832 531 598.832 536 c 0,42,43
 598.832 571 598.832 571 597.332 591 c 128,-1,44
 595.832 611 595.832 611 587.332 635 c 128,-1,45
 578.832 659 578.832 659 562.832 670 c 0,46,47
 552.832 677 552.832 677 537.979 679.5 c 128,-1,48
 523.125 682 523.125 682 514.625 683.5 c 128,-1,49
 506.125 685 506.125 685 506.125 692 c 0,50,51
 506.125 708 506.125 708 523.125 708 c 0,52,53
 528.226 708 528.226 708 560.528 707 c 128,-1,54
 592.832 706 592.832 706 597.832 706 c 0,55,56
 621.832 706 621.832 706 648.832 707.5 c 128,-1,57
 675.832 709 675.832 709 682.832 709 c 0,58,59
 703.832 709 703.832 709 703.832 696 c 0,60,61
 703.832 688 703.832 688 682.332 675.5 c 128,-1,62
 660.832 663 660.832 663 655.832 653 c 0,63,64
 644.832 632 644.832 632 644.832 587 c 0,65,66
 644.832 580 644.832 580 645.332 558.5 c 128,-1,67
 645.832 537 645.832 537 645.832 520 c 0,68,69
 645.832 328 645.832 328 629.832 226 c 128,-1,70
 613.832 124 613.832 124 581.332 77.5 c 128,-1,71
 548.832 31 548.832 31 491.676 3 c 0,72,73
 446.625 -19 446.625 -19 370.125 -19 c 0,74,75
 228.176 -19 228.176 -19 168.676 45 c 0,76,77
 116 96 116 96 103 167.5 c 128,-1,78
 90 239 90 239 90 414 c 2,79,-1
 90 431 l 2,80,81
 90 470 90 470 91 517 c 128,-1,82
 92 564 92 564 92 575 c 0,83,84
 92 630 92 630 79 650.5 c 128,-1,85
 66 671 66 671 18 678 c 0,86,87
 -4 681 -4 681 -4 697 c 0,0,1
EndSplineSet
Validated: 524289
Substitution2: "'c2sc' Capitals to Small Capitals in Latin lookup 13 subtable" u.sc
AlternateSubs2: "'aalt' Access All Alternates in Latin lookup 1 subtable" u.sc
AlternateSubs2: "'aalt' Access All Alternates lookup 0 subtable" u.sc
Position2: "'cpsp' Capital Spacing in Latin lookup 0 subtable" dx=10 dy=0 dh=20 dv=0
EndChar

StartChar: V
Encoding: 86 86 57
Width: 703
GlyphClass: 2
Flags: HW
LayerCount: 2
Fore
SplineSet
-4 696 m 0,0,1
 -4 710 -4 710 24 710 c 0,2,3
 29 710 29 710 62.5 708 c 128,-1,4
 96 706 96 706 131.3 706 c 0,5,6
 138.95 706 138.95 706 158.075 707 c 128,-1,7
 177.2 708 177.2 708 186.55 708 c 0,8,9
 206.1 708 206.1 708 210.35 706 c 128,-1,10
 214.6 704 214.6 704 214.6 697 c 0,11,12
 214.6 691 214.6 691 206.1 686 c 128,-1,13
 197.6 681 197.6 681 188.675 672.5 c 128,-1,14
 179.75 664 179.75 664 179.75 650 c 0,15,16
 179.75 637 179.75 637 182.725 623.5 c 128,-1,17
 185.7 610 185.7 610 195.9 582 c 128,-1,18
 206.1 554 206.1 554 216.725 526 c 128,-1,19
 227.35 498 227.35 498 251.575 435.5 c 128,-1,20
 275.8 373 275.8 373 298.75 312 c 0,21,22
 370.15 119 370.15 119 383.75 119 c 0,23,24
 388 119 388 119 432.625 240 c 128,-1,25
 477.25 361 477.25 361 520.6 493 c 128,-1,26
 563.95 625 563.95 625 563.95 649 c 0,27,28
 563.95 665 563.95 665 554.175 673.5 c 128,-1,29
 544.4 682 544.4 682 533.35 683.5 c 128,-1,30
 522.3 685 522.3 685 512.525 688.5 c 128,-1,31
 502.75 692 502.75 692 502.75 700 c 0,32,33
 502.75 707 502.75 707 505.725 708.5 c 128,-1,34
 508.7 710 508.7 710 520.6 710 c 0,35,36
 523.15 710 523.15 710 540.15 709.5 c 128,-1,37
 557.15 709 557.15 709 575.95 709 c 0,38,39
 593.95 709 593.95 709 616.45 710 c 128,-1,40
 638.95 711 638.95 711 664.95 711 c 0,41,42
 683.95 711 683.95 711 683.95 697 c 0,43,44
 683.95 690 683.95 690 677.45 685 c 128,-1,45
 670.95 680 670.95 680 661.95 676 c 128,-1,46
 652.95 672 652.95 672 640.95 659 c 128,-1,47
 628.95 646 628.95 646 619.95 625 c 2,48,-1
 422 117 l 2,49,50
 401.6 63 401.6 63 382.05 7 c 0,51,52
 372.7 -20 372.7 -20 370.15 -25 c 128,-1,53
 367.6 -30 367.6 -30 363.35 -30 c 0,54,55
 348.05 -30 348.05 -30 325.1 39 c 0,56,57
 303 104 303 104 237.55 271 c 0,58,59
 205.25 354 205.25 354 178.9 424 c 128,-1,60
 152.55 494 152.55 494 141.075 527 c 128,-1,61
 129.6 560 129.6 560 119.3 586 c 128,-1,62
 109 612 109 612 103 623 c 128,-1,63
 97 634 97 634 89 643 c 0,64,65
 72 662 72 662 53.5 670 c 128,-1,66
 35 678 35 678 23.5 677.5 c 128,-1,67
 12 677 12 677 4 680.5 c 128,-1,68
 -4 684 -4 684 -4 696 c 0,0,1
EndSplineSet
Validated: 524289
Substitution2: "'c2sc' Capitals to Small Capitals in Latin lookup 13 subtable" v.sc
AlternateSubs2: "'aalt' Access All Alternates in Latin lookup 1 subtable" v.sc
AlternateSubs2: "'aalt' Access All Alternates lookup 0 subtable" v.sc
Position2: "'cpsp' Capital Spacing in Latin lookup 0 subtable" dx=10 dy=0 dh=20 dv=0
EndChar

StartChar: W
Encoding: 87 87 58
Width: 971
GlyphClass: 2
Flags: W
HStem: 680 29<-3.99219 61.8772 271.611 338.488> 688.5 22.5<521.684 560.317>
VStem: 468.423 65.999<361.219 421.852> 572.672 100.3<644 707> 835.771 117<636.5 704>
LayerCount: 2
Fore
SplineSet
-4 695 m 0,0,1
 -4 709 -4 709 23 709 c 0,2,3
 29 709 29 709 61.5 707.5 c 128,-1,4
 94 706 94 706 130.45 706 c 0,5,6
 154.25 706 154.25 706 178.05 707.5 c 128,-1,7
 201.85 709 201.85 709 203.55 709 c 0,8,9
 211.2 709 211.2 709 213.325 706.5 c 128,-1,10
 215.45 704 215.45 704 215.45 697 c 0,11,12
 215.45 691 215.45 691 197.175 680 c 128,-1,13
 178.9 669 178.9 669 178.9 650 c 0,14,15
 178.9 641 178.9 641 182.3 628 c 128,-1,16
 185.7 615 185.7 615 195.9 587 c 128,-1,17
 206.1 559 206.1 559 217.575 529 c 128,-1,18
 229.05 499 229.05 499 252.85 436.5 c 128,-1,19
 276.65 374 276.65 374 299.6 312 c 0,20,21
 308.347 296 308.347 296 319.991 264.5 c 128,-1,22
 331.636 233 331.636 233 338.967 213 c 128,-1,23
 346.299 193 346.299 193 354.924 170.5 c 128,-1,24
 363.55 148 363.55 148 369.156 137 c 128,-1,25
 374.763 126 374.763 126 377.35 126 c 0,26,27
 380.8 126 380.8 126 404.951 188 c 128,-1,28
 429.103 250 429.103 250 448.078 305 c 0,29,30
 452.423 314 452.423 314 457.923 325 c 128,-1,31
 463.423 336 463.423 336 465.923 343.5 c 128,-1,32
 468.423 351 468.423 351 468.423 359 c 0,33,34
 468.423 371 468.423 371 413.336 505.5 c 128,-1,35
 358.25 640 358.25 640 343.8 659 c 0,36,37
 340.4 664 340.4 664 337 667 c 128,-1,38
 333.6 670 333.6 670 330.625 672.5 c 128,-1,39
 327.65 675 327.65 675 325.525 676.5 c 128,-1,40
 323.4 678 323.4 678 320 678.5 c 128,-1,41
 316.6 679 316.6 679 315.325 679 c 128,-1,42
 314.05 679 314.05 679 310.225 679.5 c 128,-1,43
 306.4 680 306.4 680 305.55 680 c 0,44,45
 281.75 683 281.75 683 276.65 685.5 c 128,-1,46
 271.55 688 271.55 688 271.55 696 c 0,47,48
 271.55 710 271.55 710 296.2 710 c 0,49,50
 301.3 710 301.3 710 329.35 708 c 128,-1,51
 357.4 706 357.4 706 389.7 706 c 0,52,53
 391.4 706 391.4 706 414.411 708 c 128,-1,54
 437.423 710 437.423 710 451.423 710 c 0,55,56
 481.423 710 481.423 710 481.423 702 c 0,57,58
 481.423 696 481.423 696 470.423 690 c 128,-1,59
 459.423 684 459.423 684 448.923 674.5 c 128,-1,60
 438.423 665 438.423 665 438.423 651 c 0,61,62
 438.423 632 438.423 632 469.423 562 c 0,63,64
 471.423 558 471.423 558 482.098 529 c 128,-1,65
 492.771 500 492.771 500 500.422 480.5 c 128,-1,66
 508.072 461 508.072 461 511.472 461 c 0,67,68
 518.271 461 518.271 461 545.472 548.5 c 128,-1,69
 572.672 636 572.672 636 572.672 652 c 0,70,71
 572.672 670 572.672 670 559.922 677.5 c 128,-1,72
 547.172 685 547.172 685 534.422 688.5 c 128,-1,73
 521.672 692 521.672 692 521.672 700 c 0,74,75
 521.672 711 521.672 711 540.372 711 c 0,76,77
 545.472 711 545.472 711 565.872 710 c 128,-1,78
 586.271 709 586.271 709 594.771 709 c 2,79,-1
 609.222 709 l 2,80,81
 621.122 709 621.122 709 654.271 712 c 1,82,-1
 661.922 712 l 2,83,84
 672.972 712 672.972 712 672.972 702 c 128,-1,85
 672.972 692 672.972 692 656.822 686 c 128,-1,86
 640.672 680 640.672 680 634.722 673 c 0,87,88
 621.122 657 621.122 657 610.922 627 c 0,89,90
 593.072 576 593.072 576 568.422 508 c 0,91,92
 542.922 438 542.922 438 538.672 424 c 128,-1,93
 534.422 410 534.422 410 534.422 399 c 0,94,95
 534.422 391 534.422 391 584.836 255 c 128,-1,96
 635.25 119 635.25 119 644.738 119 c 0,97,98
 655.088 119 655.088 119 745.43 371.5 c 128,-1,99
 835.771 624 835.771 624 835.771 649 c 0,100,101
 835.771 665 835.771 665 825.771 673.5 c 128,-1,102
 815.771 682 815.771 682 803.872 683.5 c 128,-1,103
 791.972 685 791.972 685 782.197 688.5 c 128,-1,104
 772.422 692 772.422 692 772.422 700 c 0,105,106
 772.422 707 772.422 707 774.972 708.5 c 128,-1,107
 777.521 710 777.521 710 788.572 710 c 0,108,109
 791.122 710 791.122 710 808.122 709.5 c 128,-1,110
 825.122 709 825.122 709 843.771 709 c 0,111,112
 861.771 709 861.771 709 884.271 710 c 128,-1,113
 906.771 711 906.771 711 932.771 711 c 0,114,115
 952.771 711 952.771 711 952.771 697 c 0,116,117
 952.771 690 952.771 690 947.271 686 c 128,-1,118
 941.771 682 941.771 682 930.771 676 c 128,-1,119
 919.771 670 919.771 670 911.771 662 c 0,120,121
 906.771 657 906.771 657 903.271 652 c 128,-1,122
 899.771 647 899.771 647 895.771 639.5 c 128,-1,123
 891.771 632 891.771 632 889.271 627 c 128,-1,124
 886.771 622 886.771 622 881.271 609.5 c 128,-1,125
 875.771 597 875.771 597 872.771 590 c 0,126,127
 801.322 418 801.322 418 718.916 204 c 0,128,129
 653.363 31 653.363 31 641.287 2 c 128,-1,130
 629.212 -27 629.212 -27 622.312 -27 c 0,131,132
 617.999 -27 617.999 -27 611.961 -14.5 c 128,-1,133
 605.924 -2 605.924 -2 595.142 27.5 c 128,-1,134
 584.36 57 584.36 57 582.635 62 c 0,135,136
 574.01 84 574.01 84 559.777 123 c 128,-1,137
 545.546 162 545.546 162 535.626 189 c 128,-1,138
 525.707 216 525.707 216 515.356 244 c 128,-1,139
 505.006 272 505.006 272 498.105 286.5 c 128,-1,140
 491.205 301 491.205 301 488.618 301 c 0,141,142
 479.992 301 479.992 301 430.396 163 c 128,-1,143
 380.8 25 380.8 25 377.35 9 c 0,144,145
 376.487 5 376.487 5 375.193 1 c 128,-1,146
 373.899 -3 373.899 -3 373.037 -6 c 128,-1,147
 372.175 -9 372.175 -9 371.312 -12 c 128,-1,148
 370.449 -15 370.449 -15 369.587 -17 c 128,-1,149
 368.725 -19 368.725 -19 368.293 -21 c 128,-1,150
 367.862 -23 367.862 -23 367 -24.5 c 128,-1,151
 366.137 -26 366.137 -26 365.274 -27 c 128,-1,152
 364.412 -28 364.412 -28 363.549 -28.5 c 128,-1,153
 362.687 -29 362.687 -29 361.824 -29.5 c 128,-1,154
 360.962 -30 360.962 -30 359.236 -30 c 0,155,156
 351.474 -30 351.474 -30 340.261 -1.5 c 128,-1,157
 329.048 27 329.048 27 299.722 110.5 c 128,-1,158
 270.395 194 270.395 194 240.206 271 c 0,159,160
 189.1 398 189.1 398 133.85 558 c 0,161,162
 117.7 606 117.7 606 95.8496 633.5 c 128,-1,163
 74 661 74 661 57 668 c 128,-1,164
 40 675 40 675 26 676 c 128,-1,165
 12 677 12 677 4 680 c 128,-1,166
 -4 683 -4 683 -4 695 c 0,0,1
EndSplineSet
Validated: 524289
Substitution2: "'c2sc' Capitals to Small Capitals in Latin lookup 13 subtable" w.sc
AlternateSubs2: "'aalt' Access All Alternates in Latin lookup 1 subtable" w.sc
AlternateSubs2: "'aalt' Access All Alternates lookup 0 subtable" w.sc
Position2: "'cpsp' Capital Spacing in Latin lookup 0 subtable" dx=10 dy=0 dh=20 dv=0
EndChar

StartChar: X
Encoding: 88 88 59
Width: 668
GlyphClass: 2
Flags: HW
LayerCount: 2
Fore
SplineSet
-4 701 m 0,0,1
 -4 709 -4 709 3 711.5 c 128,-1,2
 10 714 10 714 38 714 c 0,3,4
 57 714 57 714 76 712 c 128,-1,5
 95 710 95 710 125.35 710 c 0,6,7
 130.45 710 130.45 710 170.825 711 c 128,-1,8
 211.2 712 211.2 712 214.6 712 c 0,9,10
 233.3 712 233.3 712 233.3 703 c 128,-1,11
 233.3 694 233.3 694 227.35 690 c 128,-1,12
 221.4 686 221.4 686 214.175 685.5 c 128,-1,13
 206.95 685 206.95 685 201 680 c 128,-1,14
 195.05 675 195.05 675 195.05 664 c 0,15,16
 195.05 645 195.05 645 240.95 567 c 1,17,18
 315.2 444 315.2 444 325.2 434 c 0,19,20
 331.2 428 331.2 428 334.2 428 c 0,21,22
 342.2 428 342.2 428 357.2 450 c 0,23,24
 365.15 463 365.15 463 382.15 491.5 c 128,-1,25
 399.15 520 399.15 520 412.325 542.5 c 128,-1,26
 425.5 565 425.5 565 439.525 589.5 c 128,-1,27
 453.55 614 453.55 614 461.625 631 c 128,-1,28
 469.7 648 469.7 648 469.7 655 c 0,29,30
 469.7 671 469.7 671 462.475 678.5 c 128,-1,31
 455.25 686 455.25 686 447.175 687 c 128,-1,32
 439.1 688 439.1 688 431.875 691.5 c 128,-1,33
 424.65 695 424.65 695 424.65 704 c 0,34,35
 424.65 714 424.65 714 437.4 714 c 0,36,37
 456.1 714 456.1 714 473.95 712 c 128,-1,38
 491.8 710 491.8 710 506.25 710 c 0,39,40
 558.35 710 558.35 710 575.85 712 c 128,-1,41
 593.35 714 593.35 714 596.35 714 c 0,42,43
 612.35 714 612.35 714 612.35 704 c 128,-1,44
 612.35 694 612.35 694 603.35 690.5 c 128,-1,45
 594.35 687 594.35 687 574.35 680 c 128,-1,46
 554.35 673 554.35 673 537.35 661 c 0,47,48
 519.85 648 519.85 648 490.95 602 c 0,49,50
 359.2 394 359.2 394 359.2 392 c 0,51,52
 359.2 385 359.2 385 389.8 334 c 0,53,54
 426.795 267 426.795 267 464.44 205 c 0,55,56
 547.35 71 547.35 71 585.35 40 c 0,57,58
 588.35 37 588.35 37 604.85 34 c 128,-1,59
 621.35 31 621.35 31 634.85 26 c 128,-1,60
 648.35 21 648.35 21 648.35 13 c 0,61,62
 648.35 8 648.35 8 646.85 5.5 c 128,-1,63
 645.35 3 645.35 3 637.85 1 c 128,-1,64
 630.35 -1 630.35 -1 616.35 -1 c 0,65,66
 597.35 -1 597.35 -1 555.846 2.5 c 128,-1,67
 514.343 6 514.343 6 511.716 6 c 0,68,69
 486.327 6 486.327 6 466.629 4.5 c 128,-1,70
 446.931 3 446.931 3 436.425 1.5 c 128,-1,71
 425.919 0 425.919 0 422.417 0 c 0,72,73
 411.036 0 411.036 0 411.036 13 c 0,74,75
 411.036 25 411.036 25 433.36 31 c 128,-1,76
 455.686 37 455.686 37 455.686 56 c 0,77,78
 455.686 63 455.686 63 449.995 76 c 128,-1,79
 444.304 89 444.304 89 431.172 113 c 128,-1,80
 418.04 137 418.04 137 404.47 159.5 c 128,-1,81
 390.9 182 390.9 182 365.073 225 c 128,-1,82
 339.247 268 339.247 268 319.111 303 c 0,83,84
 309.2 320 309.2 320 302.2 320 c 0,85,86
 300.2 320 300.2 320 285.843 289 c 0,87,88
 266.582 254 266.582 254 230.25 198.5 c 128,-1,89
 193.918 143 193.918 143 175.532 109 c 128,-1,90
 157.147 75 157.147 75 157.147 55 c 0,91,92
 157.147 28 157.147 28 204.423 28 c 0,93,94
 214.929 28 214.929 28 214.929 11 c 0,95,96
 214.929 0 214.929 0 187.789 0 c 0,97,98
 179.034 0 179.034 0 146.018 1.5 c 128,-1,99
 113 3 113 3 110 3 c 0,100,101
 101 3 101 3 71 1 c 128,-1,102
 41 -1 41 -1 30 -1 c 128,-1,103
 19 -1 19 -1 14 0 c 128,-1,104
 9 1 9 1 5 5 c 128,-1,105
 1 9 1 9 1 18 c 0,106,107
 1 25 1 25 7 27.5 c 128,-1,108
 13 30 13 30 21.5 30.5 c 128,-1,109
 30 31 30 31 44.5 36 c 128,-1,110
 59 41 59 41 72 51 c 0,111,112
 82 59 82 59 93.5 70 c 128,-1,113
 105 81 105 81 116.628 96.5 c 128,-1,114
 128.257 112 128.257 112 137.012 124 c 128,-1,115
 145.767 136 145.767 136 158.898 156.5 c 128,-1,116
 172.03 177 172.03 177 178.597 187.5 c 128,-1,117
 185.163 198 185.163 198 199.608 221.5 c 128,-1,118
 214.054 245 214.054 245 219.307 253 c 0,119,120
 232.438 274 232.438 274 248.595 301.5 c 128,-1,121
 264.75 329 264.75 329 271.975 341 c 128,-1,122
 279.2 353 279.2 353 279.2 356 c 128,-1,123
 279.2 359 279.2 359 275.8 365.5 c 128,-1,124
 272.4 372 272.4 372 263.05 387.5 c 128,-1,125
 253.7 403 253.7 403 242.225 421.5 c 128,-1,126
 230.75 440 230.75 440 208.65 476 c 128,-1,127
 186.55 512 186.55 512 163.6 551 c 0,128,129
 92 669 92 669 36 681 c 0,130,131
 34 681 34 681 25 682.5 c 128,-1,132
 16 684 16 684 11 685.5 c 128,-1,133
 6 687 6 687 1 691 c 128,-1,134
 -4 695 -4 695 -4 701 c 0,0,1
EndSplineSet
Validated: 524289
Substitution2: "'c2sc' Capitals to Small Capitals in Latin lookup 13 subtable" x.sc
AlternateSubs2: "'aalt' Access All Alternates in Latin lookup 1 subtable" x.sc
AlternateSubs2: "'aalt' Access All Alternates lookup 0 subtable" x.sc
Position2: "'cpsp' Capital Spacing in Latin lookup 0 subtable" dx=10 dy=0 dh=20 dv=0
EndChar

StartChar: Y
Encoding: 89 89 60
Width: 636
GlyphClass: 2
Flags: W
HStem: 0 31<206.673 266.057 390.903 433.003> 675 28<-3.94507 68.875 408.01 460.349>
VStem: 279.315 83.2715<39.0175 371.414> 470.537 145.5<629 695.5>
LayerCount: 2
Fore
SplineSet
-4 688 m 0,0,1
 -4 699 -4 699 7.5 702 c 128,-1,2
 19 705 19 705 58 705 c 0,3,4
 64 705 64 705 85.5 704 c 128,-1,5
 107 703 107 703 116 703 c 0,6,7
 125.35 703 125.35 703 150.425 703.5 c 128,-1,8
 175.5 704 175.5 704 188.25 704 c 0,9,10
 230.75 704 230.75 704 230.75 692 c 0,11,12
 230.75 681 230.75 681 212.9 673.5 c 128,-1,13
 195.05 666 195.05 666 195.05 657 c 0,14,15
 195.05 647 195.05 647 200.575 631 c 128,-1,16
 206.1 615 206.1 615 211.625 605 c 128,-1,17
 217.15 595 217.15 595 228.2 576 c 128,-1,18
 239.25 557 239.25 557 240.95 553 c 0,19,20
 274.315 499 274.315 499 309.526 450 c 128,-1,21
 344.737 401 344.737 401 348.987 401 c 0,22,23
 354.087 401 354.087 401 361.737 412.5 c 128,-1,24
 369.388 424 369.388 424 382.987 451 c 128,-1,25
 396.587 478 396.587 478 405.938 494 c 0,26,27
 408.487 499 408.487 499 418.263 516 c 128,-1,28
 428.037 533 428.037 533 431.862 540 c 128,-1,29
 435.688 547 435.688 547 443.337 561.5 c 128,-1,30
 450.987 576 450.987 576 454.388 583.5 c 128,-1,31
 457.787 591 457.787 591 462.462 601.5 c 128,-1,32
 467.138 612 467.138 612 468.837 619 c 128,-1,33
 470.537 626 470.537 626 470.537 632 c 0,34,35
 470.537 664 470.537 664 441.638 672 c 0,36,37
 438.237 673 438.237 673 431.862 674 c 128,-1,38
 425.487 675 425.487 675 422.513 676 c 128,-1,39
 419.537 677 419.537 677 415.287 679 c 128,-1,40
 411.037 681 411.037 681 409.337 684.5 c 128,-1,41
 407.638 688 407.638 688 407.638 693 c 0,42,43
 407.638 705 407.638 705 431.438 705 c 0,44,45
 435.688 705 435.688 705 447.162 704.5 c 128,-1,46
 458.638 704 458.638 704 466.287 704 c 0,47,48
 485.837 704 485.837 704 517.438 703.5 c 128,-1,49
 549.037 703 549.037 703 567.037 703 c 0,50,51
 616.037 703 616.037 703 616.037 688 c 0,52,53
 616.037 684 616.037 684 610.037 681 c 128,-1,54
 604.037 678 604.037 678 593.037 673 c 128,-1,55
 582.037 668 582.037 668 573.037 661 c 0,56,57
 532.037 629 532.037 629 461.763 509 c 128,-1,58
 391.487 389 391.487 389 382.138 375 c 0,59,60
 368.537 355 368.537 355 365.138 331 c 128,-1,61
 361.737 307 361.737 307 361.737 249 c 0,62,63
 361.737 236 361.737 236 362.162 193.5 c 128,-1,64
 362.587 151 362.587 151 362.587 133 c 2,65,-1
 362.587 109 l 2,66,67
 362.587 76 362.587 76 372.362 57 c 128,-1,68
 382.138 38 382.138 38 390.638 34.5 c 128,-1,69
 399.138 31 399.138 31 407.638 31 c 0,70,71
 409.337 31 409.337 31 416.138 30.5 c 128,-1,72
 422.938 30 422.938 30 424.638 30 c 0,73,74
 430.587 30 430.587 30 433.987 25.5 c 128,-1,75
 437.388 21 437.388 21 437.388 16 c 0,76,77
 437.388 6 437.388 6 433.138 3 c 128,-1,78
 428.888 0 428.888 0 416.987 0 c 0,79,80
 412.737 0 412.737 0 380.013 0.5 c 128,-1,81
 347.287 1 347.287 1 331.987 1 c 0,82,83
 297.315 1 297.315 1 268.708 -1 c 128,-1,84
 240.1 -3 240.1 -3 225.65 -3 c 0,85,86
 201.85 -3 201.85 -3 201.85 8 c 0,87,88
 201.85 17 201.85 17 206.525 20.5 c 128,-1,89
 211.2 24 211.2 24 222.25 25 c 128,-1,90
 233.3 26 233.3 26 238.4 28 c 0,91,92
 279.315 41 279.315 41 279.315 89 c 0,93,94
 279.315 95 279.315 95 279.815 108.5 c 128,-1,95
 280.315 122 280.315 122 280.815 166 c 128,-1,96
 281.315 210 281.315 210 281.315 292 c 0,97,98
 281.315 308 281.315 308 278.815 319.5 c 128,-1,99
 276.315 331 276.315 331 272.815 342 c 128,-1,100
 269.315 353 269.315 353 255.982 374 c 128,-1,101
 242.65 395 242.65 395 231.6 414.5 c 128,-1,102
 220.55 434 220.55 434 193.775 480 c 128,-1,103
 167 526 167 526 142.35 570 c 0,104,105
 116 617 116 617 91 641.5 c 128,-1,106
 66 666 66 666 52.5 670.5 c 128,-1,107
 39 675 39 675 21 675 c 0,108,109
 -4 675 -4 675 -4 688 c 0,0,1
EndSplineSet
Validated: 524289
Substitution2: "'c2sc' Capitals to Small Capitals in Latin lookup 13 subtable" y.sc
AlternateSubs2: "'aalt' Access All Alternates in Latin lookup 1 subtable" y.sc
AlternateSubs2: "'aalt' Access All Alternates lookup 0 subtable" y.sc
Position2: "'cpsp' Capital Spacing in Latin lookup 0 subtable" dx=10 dy=0 dh=20 dv=0
EndChar

StartChar: Z
Encoding: 90 90 61
Width: 496
GlyphClass: 2
Flags: W
HStem: -1 45<129.815 406.259> 657 48<84.6172 331.041>
VStem: 331.05 117.5<644.297 698.5>
LayerCount: 2
Fore
SplineSet
-4 14 m 0,0,1
 -4 19 -4 19 4.5 32 c 128,-1,2
 13 45 13 45 33 75 c 128,-1,3
 53 105 53 105 72 139 c 0,4,5
 100 189 100 189 167.925 317.5 c 128,-1,6
 235.85 446 235.85 446 283.45 540.5 c 128,-1,7
 331.05 635 331.05 635 331.05 646 c 128,-1,8
 331.05 657 331.05 657 294.5 657 c 0,9,10
 264.75 657 264.75 657 138.95 653 c 0,11,12
 111 652 111 652 87.5 637 c 128,-1,13
 64 622 64 622 54.5 604.5 c 128,-1,14
 45 587 45 587 37 572.5 c 128,-1,15
 29 558 29 558 24 558 c 0,16,17
 11 558 11 558 11 574 c 0,18,19
 11 594 11 594 15 614 c 128,-1,20
 19 634 19 634 19 640 c 0,21,22
 19 645 19 645 24 687 c 0,23,24
 25 700 25 700 31 704 c 128,-1,25
 37 708 37 708 52 708 c 0,26,27
 58 708 58 708 85.5 707 c 128,-1,28
 113 706 113 706 154.875 705.5 c 128,-1,29
 196.75 705 196.75 705 245.2 705 c 0,30,31
 298.75 705 298.75 705 332.15 705.5 c 128,-1,32
 365.55 706 365.55 706 405.55 706 c 0,33,34
 448.55 706 448.55 706 448.55 691 c 0,35,36
 448.55 678 448.55 678 285.675 376 c 128,-1,37
 122.8 74 122.8 74 122.8 64 c 0,38,39
 122.8 57 122.8 57 129.6 52.5 c 128,-1,40
 136.4 48 136.4 48 152.975 46.5 c 128,-1,41
 169.55 45 169.55 45 182.3 44.5 c 128,-1,42
 195.05 44 195.05 44 221.4 44 c 0,43,44
 307.25 44 307.25 44 347.9 49.5 c 128,-1,45
 388.55 55 388.55 55 424.55 75 c 0,46,47
 436.55 82 436.55 82 445.05 91 c 128,-1,48
 453.55 100 453.55 100 458.55 105 c 128,-1,49
 463.55 110 463.55 110 468.55 110 c 0,50,51
 476.55 110 476.55 110 476.55 99 c 0,52,53
 476.55 81 476.55 81 445.55 31 c 0,54,55
 443.55 28 443.55 28 440.55 22.5 c 128,-1,56
 437.55 17 437.55 17 436.05 15 c 128,-1,57
 434.55 13 434.55 13 431.55 9 c 128,-1,58
 428.55 5 428.55 5 425.05 3.5 c 128,-1,59
 421.55 2 421.55 2 416.05 1 c 128,-1,60
 410.55 0 410.55 0 403.55 0 c 0,61,62
 348.9 0 348.9 0 311.925 -0.5 c 128,-1,63
 274.95 -1 274.95 -1 240.95 -1 c 0,64,65
 112 -1 112 -1 73.5 -1.5 c 128,-1,66
 35 -2 35 -2 16 -2 c 0,67,68
 -4 -2 -4 -2 -4 14 c 0,0,1
EndSplineSet
Validated: 524289
Substitution2: "'c2sc' Capitals to Small Capitals in Latin lookup 13 subtable" z.sc
AlternateSubs2: "'aalt' Access All Alternates in Latin lookup 1 subtable" z.sc
AlternateSubs2: "'aalt' Access All Alternates lookup 0 subtable" z.sc
Position2: "'cpsp' Capital Spacing in Latin lookup 0 subtable" dx=10 dy=0 dh=20 dv=0
EndChar

StartChar: bracketleft
Encoding: 91 91 62
Width: 261
GlyphClass: 2
Flags: HW
LayerCount: 2
Fore
SplineSet
42.4004 -82 m 2,0,1
 42.4004 -7 42.4004 -7 45.4004 229.5 c 128,-1,2
 48.4004 466 48.4004 466 48.4004 570 c 0,3,4
 48.4004 614 48.4004 614 48.4004 652 c 128,-1,5
 48.4004 690 48.4004 690 47.9004 711.5 c 128,-1,6
 47.4004 733 47.4004 733 47.4004 738 c 0,7,8
 47.4004 754 47.4004 754 57.4004 758.5 c 128,-1,9
 67.4004 763 67.4004 763 96.4004 763 c 2,10,-1
 139.4 763 l 2,11,12
 162.4 763 162.4 763 177.4 763.5 c 128,-1,13
 192.4 764 192.4 764 197.9 764 c 128,-1,14
 203.4 764 203.4 764 205.4 764 c 0,15,16
 212.4 764 212.4 764 216.9 757.5 c 128,-1,17
 221.4 751 221.4 751 221.4 743 c 0,18,19
 221.4 723 221.4 723 209.4 723 c 0,20,21
 198.4 723 198.4 723 159.4 722.5 c 128,-1,22
 120.4 722 120.4 722 117.4 722 c 2,23,-1
 101.4 722 l 2,24,25
 93.4004 722 93.4004 722 93.4004 714 c 0,26,27
 93.4004 709 93.4004 709 93.9004 689.5 c 128,-1,28
 94.4004 670 94.4004 670 94.9004 635 c 128,-1,29
 95.4004 600 95.4004 600 95.4004 559 c 0,30,31
 95.4004 480 95.4004 480 92.9004 284.5 c 128,-1,32
 90.4004 89 90.4004 89 90.4004 15 c 0,33,34
 90.4004 -82 90.4004 -82 91.4004 -132 c 0,35,36
 91.4004 -159 91.4004 -159 103.4 -159 c 0,37,38
 113.4 -159 113.4 -159 151.9 -158.5 c 128,-1,39
 190.4 -158 190.4 -158 193.4 -158 c 0,40,41
 207.4 -158 207.4 -158 212.4 -162.5 c 128,-1,42
 217.4 -167 217.4 -167 217.4 -180 c 0,43,44
 217.4 -196 217.4 -196 206.9 -200 c 128,-1,45
 196.4 -204 196.4 -204 165.4 -204 c 2,46,-1
 75.4004 -204 l 2,47,48
 53.4004 -204 53.4004 -204 47.9004 -194 c 128,-1,49
 42.4004 -184 42.4004 -184 42.4004 -143 c 2,50,-1
 42.4004 -82 l 2,0,1
EndSplineSet
Validated: 524289
Substitution2: "'case' Case-Sensitive Forms in Latin lookup 15 subtable" bracketleft.uppercase
Substitution2: "'subs' Subscript in Latin lookup 10 subtable" bracketleft.sub
Substitution2: "'sups' Superscript in Latin lookup 9 subtable" bracketleft.sup
AlternateSubs2: "'aalt' Access All Alternates in Latin lookup 1 subtable" bracketleft.uppercase bracketleft.sub bracketleft.sup
AlternateSubs2: "'aalt' Access All Alternates lookup 0 subtable" bracketleft.uppercase bracketleft.sub bracketleft.sup
EndChar

StartChar: backslash
Encoding: 92 92 63
Width: 371
GlyphClass: 2
Flags: HW
LayerCount: 2
Fore
SplineSet
-4 723 m 0,0,1
 -4 735 -4 735 17 735 c 0,2,3
 31 735 31 735 36.5 731.5 c 128,-1,4
 42 728 42 728 46 717 c 2,5,-1
 332.6 -113 l 2,6,7
 335.6 -121 335.6 -121 340.6 -134 c 128,-1,8
 345.6 -147 345.6 -147 348.6 -155 c 128,-1,9
 351.6 -163 351.6 -163 351.6 -167 c 0,10,11
 351.6 -183 351.6 -183 318.6 -183 c 0,12,13
 310.6 -183 310.6 -183 306.1 -177.5 c 128,-1,14
 301.6 -172 301.6 -172 293.6 -152 c 2,15,-1
 10 679 l 2,16,17
 -4 715 -4 715 -4 723 c 0,0,1
EndSplineSet
Validated: 524289
EndChar

StartChar: bracketright
Encoding: 93 93 64
Width: 251
GlyphClass: 2
Flags: HW
LayerCount: 2
Fore
SplineSet
3.2002 -184 m 0,0,1
 3.2002 -163 3.2002 -163 16.2002 -163 c 2,2,3
 16.2002 -163 16.2002 -163 108.2 -163 c 2,4,-1
 124.2 -163 l 2,5,6
 131.2 -163 131.2 -163 131.2 -154 c 0,7,8
 131.2 -149 131.2 -149 130.7 -129.5 c 128,-1,9
 130.2 -110 130.2 -110 130.2 -75 c 128,-1,10
 130.2 -40 130.2 -40 130.2 1 c 0,11,12
 130.2 80 130.2 80 132.2 275.5 c 128,-1,13
 134.2 471 134.2 471 134.2 545 c 0,14,15
 134.2 641 134.2 641 133.2 691 c 0,16,17
 133.2 718 133.2 718 121.2 718 c 2,18,-1
 31.2002 718 l 2,19,20
 17.2002 718 17.2002 718 12.2002 722 c 128,-1,21
 7.2002 726 7.2002 726 7.2002 739 c 0,22,23
 7.2002 762 7.2002 762 24.2002 762 c 0,24,25
 124.2 764 124.2 764 149.2 764 c 0,26,27
 171.2 764 171.2 764 176.7 754 c 128,-1,28
 182.2 744 182.2 744 182.2 703 c 2,29,-1
 182.2 642 l 2,30,31
 182.2 567 182.2 567 179.7 330.5 c 128,-1,32
 177.2 94 177.2 94 177.2 -10 c 0,33,34
 177.2 -54 177.2 -54 177.7 -92 c 128,-1,35
 178.2 -130 178.2 -130 178.2 -151.5 c 128,-1,36
 178.2 -173 178.2 -173 178.2 -178 c 0,37,38
 178.2 -194 178.2 -194 168.2 -199 c 128,-1,39
 158.2 -204 158.2 -204 129.2 -204 c 2,40,-1
 86.2002 -204 l 1,41,-1
 20.2002 -204 l 2,42,43
 13.2002 -204 13.2002 -204 8.2002 -198 c 128,-1,44
 3.2002 -192 3.2002 -192 3.2002 -184 c 0,0,1
EndSplineSet
Validated: 524289
Substitution2: "'case' Case-Sensitive Forms in Latin lookup 15 subtable" bracketright.uppercase
Substitution2: "'subs' Subscript in Latin lookup 10 subtable" bracketright.sub
Substitution2: "'sups' Superscript in Latin lookup 9 subtable" bracketright.sup
AlternateSubs2: "'aalt' Access All Alternates in Latin lookup 1 subtable" bracketright.uppercase bracketright.sub bracketright.sup
AlternateSubs2: "'aalt' Access All Alternates lookup 0 subtable" bracketright.uppercase bracketright.sub bracketright.sup
EndChar

StartChar: asciicircum
Encoding: 94 94 65
Width: 305
GlyphClass: 2
Flags: HW
LayerCount: 2
Fore
SplineSet
3.2002 331 m 0,0,1
 3.2002 336 3.2002 336 16.2002 356 c 1,2,3
 30.2002 380 30.2002 380 52.2002 417 c 0,4,5
 94.2002 488 94.2002 488 107.2 504.5 c 128,-1,6
 120.2 521 120.2 521 136.2 521 c 0,7,8
 153.2 521 153.2 521 165.7 504.5 c 128,-1,9
 178.2 488 178.2 488 219.2 419 c 0,10,11
 241.2 381 241.2 381 256.2 356 c 0,12,13
 267.2 339 267.2 339 267.2 329 c 0,14,15
 267.2 321 267.2 321 249.2 321 c 2,16,-1
 234.2 321 l 2,17,18
 229.2 321 229.2 321 225.2 322.5 c 128,-1,19
 221.2 324 221.2 324 218.2 328.5 c 128,-1,20
 215.2 333 215.2 333 213.2 336 c 128,-1,21
 211.2 339 211.2 339 208.2 345 c 128,-1,22
 205.2 351 205.2 351 204.2 354 c 0,23,24
 197.2 366 197.2 366 190.2 379.5 c 128,-1,25
 183.2 393 183.2 393 178.7 402 c 128,-1,26
 174.2 411 174.2 411 168.7 420.5 c 128,-1,27
 163.2 430 163.2 430 160.2 436 c 128,-1,28
 157.2 442 157.2 442 153.7 448 c 128,-1,29
 150.2 454 150.2 454 147.7 457 c 128,-1,30
 145.2 460 145.2 460 143.2 463 c 128,-1,31
 141.2 466 141.2 466 139.7 467 c 128,-1,32
 138.2 468 138.2 468 136.2 468 c 128,-1,33
 134.2 468 134.2 468 131.7 466 c 128,-1,34
 129.2 464 129.2 464 126.2 459.5 c 128,-1,35
 123.2 455 123.2 455 119.7 449.5 c 128,-1,36
 116.2 444 116.2 444 110.7 433.5 c 128,-1,37
 105.2 423 105.2 423 99.7002 413 c 128,-1,38
 94.2002 403 94.2002 403 85.2002 386 c 128,-1,39
 76.2002 369 76.2002 369 68.2002 354 c 0,40,41
 67.2002 352 67.2002 352 64.2002 346.5 c 128,-1,42
 61.2002 341 61.2002 341 60.2002 339 c 128,-1,43
 59.2002 337 59.2002 337 56.2002 332.5 c 128,-1,44
 53.2002 328 53.2002 328 50.7002 326.5 c 128,-1,45
 48.2002 325 48.2002 325 44.7002 323.5 c 128,-1,46
 41.2002 322 41.2002 322 37.2002 322 c 2,47,-1
 23.2002 322 l 2,48,49
 3.2002 322 3.2002 322 3.2002 331 c 0,0,1
EndSplineSet
Validated: 524289
EndChar

StartChar: underscore
Encoding: 95 95 66
Width: 193
GlyphClass: 2
Flags: HW
LayerCount: 2
Fore
SplineSet
-20 -38 m 0,0,1
 -20 -30 -20 -30 -19 -26.5 c 128,-1,2
 -18 -23 -18 -23 -14 -20 c 128,-1,3
 -10 -17 -10 -17 -1 -17 c 2,4,-1
 177 -17 l 2,5,6
 185 -17 185 -17 188.5 -19.5 c 128,-1,7
 192 -22 192 -22 192.5 -25.5 c 128,-1,8
 193 -29 193 -29 193 -38 c 0,9,10
 193 -52 193 -52 190 -57 c 128,-1,11
 187 -62 187 -62 172 -62 c 2,12,-1
 -2 -62 l 2,13,14
 -14 -62 -14 -62 -17 -57 c 128,-1,15
 -20 -52 -20 -52 -20 -38 c 0,0,1
EndSplineSet
Validated: 1
EndChar

StartChar: a
Encoding: 97 97 68
Width: 413
GlyphClass: 2
Flags: W
HStem: -15 40<110.27 188.624> -8 33<332.748 387.346> 401 33<109.01 200.778>
VStem: 22.4004 71.9912<42.8986 159.818 293.208 374.371> 242.33 70<49.1426 207.998 224.011 368.496>
LayerCount: 2
Fore
SplineSet
18.4004 85 m 0,0,1
 18.4004 121 18.4004 121 33.4004 145.5 c 128,-1,2
 48.4004 170 48.4004 170 76.0703 183.5 c 128,-1,3
 103.741 197 103.741 197 131.791 205 c 128,-1,4
 159.841 213 159.841 213 199.791 221 c 0,5,6
 205.33 222 205.33 222 208.33 222.5 c 128,-1,7
 211.33 223 211.33 223 216.33 223.5 c 128,-1,8
 221.33 224 221.33 224 225.33 225 c 0,9,10
 232.33 226 232.33 226 234.83 227 c 128,-1,11
 237.33 228 237.33 228 239.83 231.5 c 128,-1,12
 242.33 235 242.33 235 242.33 241 c 0,13,14
 242.33 251 242.33 251 243.33 268.5 c 128,-1,15
 244.33 286 244.33 286 244.33 293 c 0,16,17
 244.33 350 244.33 350 213.136 375.5 c 128,-1,18
 181.941 401 181.941 401 155.591 401 c 0,19,20
 94.3916 401 94.3916 401 94.3916 341 c 0,21,22
 94.3916 333 94.3916 333 96.0908 321 c 128,-1,23
 97.791 309 97.791 309 97.791 305 c 0,24,25
 97.791 285 97.791 285 82.4912 285 c 0,26,27
 77.3916 285 77.3916 285 68.8955 286.5 c 128,-1,28
 60.4004 288 60.4004 288 48.9004 291.5 c 128,-1,29
 37.4004 295 37.4004 295 29.9004 303.5 c 128,-1,30
 22.4004 312 22.4004 312 22.4004 324 c 0,31,32
 22.4004 363 22.4004 363 70.7207 398.5 c 128,-1,33
 119.041 434 119.041 434 172.591 434 c 0,34,35
 210.33 434 210.33 434 240.33 424 c 128,-1,36
 270.33 414 270.33 414 284.83 401.5 c 128,-1,37
 299.33 389 299.33 389 307.33 368.5 c 128,-1,38
 315.33 348 315.33 348 316.33 336.5 c 128,-1,39
 317.33 325 317.33 325 317.33 308 c 0,40,41
 317.33 236 317.33 236 314.83 194.5 c 128,-1,42
 312.33 153 312.33 153 312.33 122 c 0,43,44
 312.33 85 312.33 85 320.33 63.5 c 128,-1,45
 328.33 42 328.33 42 339.33 36 c 128,-1,46
 350.33 30 350.33 30 361.33 29 c 128,-1,47
 372.33 28 372.33 28 380.33 25 c 128,-1,48
 388.33 22 388.33 22 388.33 13 c 0,49,50
 388.33 -8 388.33 -8 325.33 -8 c 0,51,52
 299.33 -8 299.33 -8 280.83 6 c 128,-1,53
 262.33 20 262.33 20 254.33 33.5 c 128,-1,54
 246.33 47 246.33 47 245.33 47 c 128,-1,55
 244.33 47 244.33 47 237.33 40.5 c 128,-1,56
 230.33 34 230.33 34 217.83 25 c 128,-1,57
 205.33 16 205.33 16 191.936 7 c 128,-1,58
 178.541 -2 178.541 -2 161.116 -8.5 c 128,-1,59
 143.691 -15 143.691 -15 126.691 -15 c 0,60,61
 72.291 -15 72.291 -15 43.4004 15 c 0,62,63
 18.4004 40 18.4004 40 18.4004 85 c 0,0,1
92.6914 100 m 0,64,65
 92.6914 66 92.6914 66 109.691 45.5 c 128,-1,66
 126.691 25 126.691 25 158.142 25 c 0,67,68
 180.241 25 180.241 25 196.785 33 c 128,-1,69
 213.33 41 213.33 41 222.33 51 c 128,-1,70
 231.33 61 231.33 61 236.33 77.5 c 128,-1,71
 241.33 94 241.33 94 241.83 103 c 128,-1,72
 242.33 112 242.33 112 242.33 127 c 2,73,-1
 242.33 199 l 2,74,75
 242.33 208 242.33 208 235.33 208 c 0,76,77
 233.33 208 233.33 208 230.33 207 c 128,-1,78
 227.33 206 227.33 206 225.33 206 c 0,79,80
 202.341 202 202.341 202 197.241 201 c 128,-1,81
 192.142 200 192.142 200 173.441 195 c 128,-1,82
 154.741 190 154.741 190 147.517 186 c 128,-1,83
 140.291 182 140.291 182 127.116 173.5 c 128,-1,84
 113.941 165 113.941 165 108.416 155.5 c 128,-1,85
 102.892 146 102.892 146 97.791 131.5 c 128,-1,86
 92.6914 117 92.6914 117 92.6914 100 c 0,64,65
EndSplineSet
Validated: 524289
Substitution2: "'smcp' Lowercase to Small Capitals in Latin lookup 12 subtable" a.sc
AlternateSubs2: "'aalt' Access All Alternates in Latin lookup 1 subtable" a.sc
AlternateSubs2: "'aalt' Access All Alternates lookup 0 subtable" a.sc
EndChar

StartChar: b
Encoding: 98 98 69
Width: 475
GlyphClass: 2
Flags: HW
LayerCount: 2
Fore
SplineSet
-10.4004 691 m 0,0,1
 -10.4004 700 -10.4004 700 -0.400391 707 c 128,-1,2
 9.59961 714 9.59961 714 31.5996 721.5 c 128,-1,3
 53.5996 729 53.5996 729 54.5996 729 c 0,4,5
 61.5996 732 61.5996 732 77.0996 739.5 c 128,-1,6
 92.5996 747 92.5996 747 103.6 751.5 c 128,-1,7
 114.6 756 114.6 756 118.6 756 c 0,8,9
 123.6 756 123.6 756 128.525 751 c 128,-1,10
 133.45 746 133.45 746 133.45 738 c 0,11,12
 133.45 729 133.45 729 133.45 717.5 c 128,-1,13
 133.45 706 133.45 706 133.025 686.5 c 128,-1,14
 132.6 667 132.6 667 132.6 596 c 128,-1,15
 132.6 525 132.6 525 132.6 411 c 0,16,17
 132.6 375 132.6 375 138.55 375 c 0,18,19
 141.95 375 141.95 375 148.75 385.5 c 128,-1,20
 155.55 396 155.55 396 165.325 408.5 c 128,-1,21
 175.1 421 175.1 421 203.15 431.5 c 128,-1,22
 231.2 442 231.2 442 272.85 442 c 0,23,24
 348.5 442 348.5 442 395.45 380 c 128,-1,25
 442.4 318 442.4 318 442.4 235 c 0,26,27
 442.4 188 442.4 188 417.9 126.5 c 128,-1,28
 393.4 65 393.4 65 355.3 33 c 0,29,30
 306 -11 306 -11 237.15 -11 c 0,31,32
 202.3 -11 202.3 -11 172.55 3.5 c 128,-1,33
 142.8 18 142.8 18 126.2 32.5 c 128,-1,34
 109.6 47 109.6 47 108.6 47 c 0,35,36
 104.6 47 104.6 47 89.0996 15 c 128,-1,37
 73.5996 -17 73.5996 -17 59.5996 -17 c 0,38,39
 47.5996 -17 47.5996 -17 47.5996 -4 c 0,40,41
 47.5996 10 47.5996 10 49.5996 43.5 c 128,-1,42
 51.5996 77 51.5996 77 51.5996 78 c 0,43,44
 51.5996 111 51.5996 111 56.0996 196 c 128,-1,45
 60.5996 281 60.5996 281 60.5996 342 c 2,46,-1
 60.5996 589 l 2,47,48
 60.5996 680 60.5996 680 15.5996 680 c 2,49,-1
 5.59961 680 l 2,50,51
 -10.4004 680 -10.4004 680 -10.4004 691 c 0,0,1
132.6 132 m 2,52,53
 132.6 105 132.6 105 166.175 65 c 128,-1,54
 199.75 25 199.75 25 256.7 25 c 0,55,56
 315.35 25 315.35 25 346.375 71.5 c 128,-1,57
 377.4 118 377.4 118 377.4 185 c 0,58,59
 377.4 264 377.4 264 337.025 326 c 128,-1,60
 296.65 388 296.65 388 227.8 388 c 0,61,62
 187.85 388 187.85 388 159.8 360 c 0,63,64
 132.6 334 132.6 334 132.6 313 c 2,65,-1
 132.6 132 l 2,52,53
EndSplineSet
Validated: 524289
Substitution2: "'smcp' Lowercase to Small Capitals in Latin lookup 12 subtable" b.sc
AlternateSubs2: "'aalt' Access All Alternates in Latin lookup 1 subtable" b.sc
AlternateSubs2: "'aalt' Access All Alternates lookup 0 subtable" b.sc
EndChar

StartChar: c
Encoding: 99 99 70
Width: 394
GlyphClass: 2
Flags: W
HStem: -21 52<160.718 289.552> 390 39<132.652 234.474>
VStem: 11.2002 71.291<123.061 299.612>
LayerCount: 2
Fore
SplineSet
11.2002 192 m 0,0,1
 11.2002 288 11.2002 288 69.7959 358.5 c 128,-1,2
 128.392 429 128.392 429 215.941 429 c 0,3,4
 245.691 429 245.691 429 286.041 419 c 128,-1,5
 326.392 409 326.392 409 327.392 396 c 0,6,7
 329.392 372 329.392 372 329.392 349 c 0,8,9
 329.392 305 329.392 305 318.392 305 c 0,10,11
 312.392 305 312.392 305 307.892 309.5 c 128,-1,12
 303.392 314 303.392 314 297.892 323 c 128,-1,13
 292.392 332 292.392 332 285.392 337 c 0,14,15
 263.392 356 263.392 356 230.316 373 c 128,-1,16
 197.241 390 197.241 390 166.642 390 c 0,17,18
 160.691 390 160.691 390 151.341 386.5 c 128,-1,19
 141.991 383 141.991 383 129.666 371.5 c 128,-1,20
 117.341 360 117.341 360 107.142 342.5 c 128,-1,21
 96.9414 325 96.9414 325 89.7158 294 c 128,-1,22
 82.4912 263 82.4912 263 82.4912 224 c 0,23,24
 82.4912 146 82.4912 146 124.566 88.5 c 128,-1,25
 166.642 31 166.642 31 227.841 31 c 0,26,27
 259.392 31 259.392 31 289.392 44 c 128,-1,28
 319.392 57 319.392 57 335.892 70 c 128,-1,29
 352.392 83 352.392 83 356.392 83 c 0,30,31
 367.392 83 367.392 83 367.392 73 c 0,32,33
 367.392 70 367.392 70 360.892 60 c 128,-1,34
 354.392 50 354.392 50 339.892 36 c 128,-1,35
 325.392 22 325.392 22 305.392 9.5 c 128,-1,36
 285.392 -3 285.392 -3 255.341 -12 c 128,-1,37
 225.291 -21 225.291 -21 194.691 -21 c 0,38,39
 114.791 -21 114.791 -21 62.9951 36 c 128,-1,40
 11.2002 93 11.2002 93 11.2002 192 c 0,0,1
EndSplineSet
Validated: 524289
Substitution2: "'smcp' Lowercase to Small Capitals in Latin lookup 12 subtable" c.sc
AlternateSubs2: "'aalt' Access All Alternates in Latin lookup 1 subtable" c.sc
AlternateSubs2: "'aalt' Access All Alternates lookup 0 subtable" c.sc
EndChar

StartChar: d
Encoding: 100 100 71
Width: 501
GlyphClass: 2
Flags: W
HStem: -14 52<156.786 261.383> 409 29<147.211 249.928>
VStem: 11.2002 68.291<136.599 304.212> 329.065 71<71.541 361.604> 335.065 67<409.009 678.779>
LayerCount: 2
Fore
SplineSet
11.2002 195 m 0,0,1
 11.2002 292 11.2002 292 69.5703 365 c 128,-1,2
 127.941 438 127.941 438 224.841 438 c 0,3,4
 246.941 438 246.941 438 286.504 423.5 c 128,-1,5
 326.065 409 326.065 409 329.065 409 c 0,6,7
 334.065 409 334.065 409 334.065 445 c 0,8,9
 334.065 521 334.065 521 335.065 544.5 c 128,-1,10
 336.065 568 336.065 568 336.065 574 c 0,11,12
 336.065 606 336.065 606 335.065 621 c 128,-1,13
 334.065 636 334.065 636 329.565 654 c 128,-1,14
 325.065 672 325.065 672 313.565 679 c 128,-1,15
 302.065 686 302.065 686 283.065 686 c 2,16,-1
 273.291 686 l 2,17,18
 260.541 686 260.541 686 257.991 687 c 128,-1,19
 255.441 688 255.441 688 255.441 694 c 2,20,-1
 255.441 695 l 2,21,22
 255.441 702 255.441 702 263.941 705.5 c 128,-1,23
 272.441 709 272.441 709 302.254 718.5 c 128,-1,24
 332.065 728 332.065 728 364.065 743 c 0,25,26
 367.065 744 367.065 744 376.065 748.5 c 128,-1,27
 385.065 753 385.065 753 391.565 755.5 c 128,-1,28
 398.065 758 398.065 758 403.065 758 c 0,29,30
 415.065 758 415.065 758 415.065 738 c 0,31,32
 415.065 735 415.065 735 408.565 653 c 128,-1,33
 402.065 571 402.065 571 402.065 521 c 0,34,35
 402.065 418 402.065 418 401.065 298 c 128,-1,36
 400.065 178 400.065 178 400.065 156 c 0,37,38
 400.065 88 400.065 88 406.565 65 c 128,-1,39
 413.065 42 413.065 42 435.065 35 c 0,40,41
 438.065 34 438.065 34 452.065 31.5 c 128,-1,42
 466.065 29 466.065 29 472.065 25.5 c 128,-1,43
 478.065 22 478.065 22 478.065 14 c 0,44,45
 478.065 2 478.065 2 401.065 -4 c 0,46,47
 385.065 -5 385.065 -5 364.065 -9.5 c 128,-1,48
 343.065 -14 343.065 -14 338.065 -14 c 0,49,50
 327.065 -14 327.065 -14 327.065 -3 c 0,51,52
 327.065 0 327.065 0 325.565 12 c 128,-1,53
 324.065 24 324.065 24 324.065 34 c 0,54,55
 324.065 51 324.065 51 315.065 51 c 0,56,57
 312.065 51 312.065 51 300.565 41 c 128,-1,58
 289.065 31 289.065 31 275.653 18.5 c 128,-1,59
 262.241 6 262.241 6 238.017 -4 c 128,-1,60
 213.791 -14 213.791 -14 185.741 -14 c 0,61,62
 106.691 -14 106.691 -14 58.9453 47.5 c 128,-1,63
 11.2002 109 11.2002 109 11.2002 195 c 0,0,1
79.4912 242 m 0,64,65
 79.4912 166 79.4912 166 119.017 102 c 128,-1,66
 158.541 38 158.541 38 220.591 38 c 0,67,68
 258.841 38 258.841 38 293.953 61 c 128,-1,69
 329.065 84 329.065 84 329.065 117 c 2,70,-1
 330.065 288 l 2,71,72
 330.065 349 330.065 349 302.065 365 c 0,73,74
 235.892 409 235.892 409 197.642 409 c 0,75,76
 142.392 409 142.392 409 110.941 361.5 c 128,-1,77
 79.4912 314 79.4912 314 79.4912 242 c 0,64,65
EndSplineSet
Validated: 524289
Substitution2: "'smcp' Lowercase to Small Capitals in Latin lookup 12 subtable" d.sc
AlternateSubs2: "'aalt' Access All Alternates in Latin lookup 1 subtable" d.sc
AlternateSubs2: "'aalt' Access All Alternates lookup 0 subtable" d.sc
EndChar

StartChar: e
Encoding: 101 101 72
Width: 408
GlyphClass: 2
Flags: W
HStem: -19 61<162.5 288.743> 255 24<90.6671 271.864> 407 25<137.424 220.479>
VStem: 11.2002 74.291<131.086 310.092> 275.476 93<264 334.455>
LayerCount: 2
Fore
SplineSet
11.2002 194 m 0,0,1
 11.2002 294 11.2002 294 63.2207 363 c 128,-1,2
 115.241 432 115.241 432 191.741 432 c 0,3,4
 227.441 432 227.441 432 261.458 417 c 128,-1,5
 295.476 402 295.476 402 314.476 380.5 c 128,-1,6
 333.476 359 333.476 359 346.476 335 c 128,-1,7
 359.476 311 359.476 311 363.976 295.5 c 128,-1,8
 368.476 280 368.476 280 368.476 273 c 0,9,10
 368.476 255 368.476 255 327.476 255 c 2,11,-1
 120.341 255 l 1,12,-1
 94.8408 255 l 2,13,14
 88.041 255 88.041 255 86.7666 253.5 c 128,-1,15
 85.4912 252 85.4912 252 85.4912 244 c 0,16,17
 85.4912 150 85.4912 150 128.416 96 c 128,-1,18
 171.341 42 171.341 42 229.142 42 c 0,19,20
 270.476 42 270.476 42 313.976 64.5 c 128,-1,21
 357.476 87 357.476 87 359.476 87 c 0,22,23
 369.476 87 369.476 87 369.476 78 c 0,24,25
 369.476 74 369.476 74 362.476 63.5 c 128,-1,26
 355.476 53 355.476 53 340.476 39 c 128,-1,27
 325.476 25 325.476 25 305.476 12 c 128,-1,28
 285.476 -1 285.476 -1 256.033 -10 c 128,-1,29
 226.591 -19 226.591 -19 198.541 -19 c 0,30,31
 123.741 -19 123.741 -19 67.4707 35 c 128,-1,32
 11.2002 89 11.2002 89 11.2002 194 c 0,0,1
90.5908 293 m 0,33,34
 90.5908 279 90.5908 279 101.642 279 c 0,35,36
 124.591 279 124.591 279 187.033 282 c 128,-1,37
 249.476 285 249.476 285 254.476 285 c 0,38,39
 268.476 285 268.476 285 271.976 287.5 c 128,-1,40
 275.476 290 275.476 290 275.476 297 c 0,41,42
 275.476 327 275.476 327 248.483 367 c 128,-1,43
 221.491 407 221.491 407 177.291 407 c 0,44,45
 136.491 407 136.491 407 113.541 367.5 c 128,-1,46
 90.5908 328 90.5908 328 90.5908 293 c 0,33,34
EndSplineSet
Validated: 524289
Substitution2: "'smcp' Lowercase to Small Capitals in Latin lookup 12 subtable" e.sc
AlternateSubs2: "'aalt' Access All Alternates in Latin lookup 1 subtable" e.sc
AlternateSubs2: "'aalt' Access All Alternates lookup 0 subtable" e.sc
EndChar

StartChar: f
Encoding: 102 102 73
Width: 320
GlyphClass: 2
Flags: HW
LayerCount: 2
Fore
SplineSet
3.2002 385 m 0,0,1
 3.2002 403 3.2002 403 11.7002 409 c 128,-1,2
 20.2002 415 20.2002 415 45.2002 415 c 2,3,-1
 66.2002 415 l 2,4,5
 78.2002 415 78.2002 415 81.2002 420.5 c 128,-1,6
 84.2002 426 84.2002 426 84.2002 438 c 0,7,8
 84.2002 511 84.2002 511 108.2 572.5 c 128,-1,9
 132.2 634 132.2 634 164.287 670.5 c 128,-1,10
 196.375 707 196.375 707 229.9 727 c 128,-1,11
 263.425 747 263.425 747 292.425 747 c 0,12,13
 315.425 747 315.425 747 329.925 739.5 c 128,-1,14
 344.425 732 344.425 732 344.425 719 c 0,15,16
 344.425 715 344.425 715 338.425 691 c 0,17,18
 337.425 688 337.425 688 336.425 684 c 128,-1,19
 335.425 680 335.425 680 334.425 677.5 c 128,-1,20
 333.425 675 333.425 675 332.425 672 c 128,-1,21
 331.425 669 331.425 669 330.425 667.5 c 128,-1,22
 329.425 666 329.425 666 327.925 664 c 128,-1,23
 326.425 662 326.425 662 324.925 661 c 128,-1,24
 323.425 660 323.425 660 320.925 659.5 c 128,-1,25
 318.425 659 318.425 659 315.425 659 c 0,26,27
 311.425 659 311.425 659 306.425 665.5 c 128,-1,28
 301.425 672 301.425 672 286.925 678.5 c 128,-1,29
 272.425 685 272.425 685 244.425 685 c 0,30,31
 215.925 685 215.925 685 197.65 664 c 128,-1,32
 179.375 643 179.375 643 170.025 607.5 c 128,-1,33
 160.675 572 160.675 572 155.938 535.5 c 128,-1,34
 151.2 499 151.2 499 151.2 458 c 2,35,-1
 151.2 433 l 2,36,37
 151.2 414 151.2 414 162.375 414 c 0,38,39
 208.275 414 208.275 414 247.425 422 c 0,40,41
 252.425 423 252.425 423 258.925 427.5 c 128,-1,42
 265.425 432 265.425 432 268.425 432 c 0,43,44
 273.425 432 273.425 432 273.425 424 c 0,45,46
 273.425 411 273.425 411 259.425 386 c 0,47,48
 253.425 377 253.425 377 234.425 377 c 0,49,50
 214.225 377 214.225 377 204.45 376.5 c 128,-1,51
 194.675 376 194.675 376 166.625 376 c 0,52,53
 152.2 376 152.2 376 152.2 366 c 2,54,-1
 152.2 308 l 2,55,56
 152.2 300 152.2 300 153.2 261 c 128,-1,57
 154.2 222 154.2 222 155.7 174 c 128,-1,58
 157.2 126 157.2 126 157.2 110 c 0,59,60
 157.2 93 157.2 93 157.662 85.5 c 128,-1,61
 158.125 78 158.125 78 161.1 62.5 c 128,-1,62
 164.075 47 164.075 47 169.175 39.5 c 128,-1,63
 174.275 32 174.275 32 184.9 25.5 c 128,-1,64
 195.525 19 195.525 19 210.825 19 c 0,65,66
 225.425 19 225.425 19 225.425 4 c 0,67,68
 225.425 -6 225.425 -6 215.925 -6 c 0,69,70
 215.075 -6 215.075 -6 198.075 -5 c 128,-1,71
 181.075 -4 181.075 -4 158.638 -2.5 c 128,-1,72
 136.2 -1 136.2 -1 126.2 -1 c 0,73,74
 108.2 -1 108.2 -1 90.2002 -3.5 c 128,-1,75
 72.2002 -6 72.2002 -6 52.2002 -6 c 0,76,77
 37.2002 -6 37.2002 -6 37.2002 8 c 0,78,79
 37.2002 13 37.2002 13 49.7002 18 c 128,-1,80
 62.2002 23 62.2002 23 74.2002 36.5 c 128,-1,81
 86.2002 50 86.2002 50 86.2002 77 c 0,82,83
 86.2002 84 86.2002 84 85.2002 116.5 c 128,-1,84
 84.2002 149 84.2002 149 83.2002 212.5 c 128,-1,85
 82.2002 276 82.2002 276 82.2002 359 c 0,86,87
 82.2002 370 82.2002 370 78.7002 372.5 c 128,-1,88
 75.2002 375 75.2002 375 65.2002 375 c 0,89,90
 60.2002 375 60.2002 375 47.2002 373.5 c 128,-1,91
 34.2002 372 34.2002 372 25.2002 372 c 0,92,93
 3.2002 372 3.2002 372 3.2002 385 c 0,0,1
EndSplineSet
Validated: 524289
Substitution2: "'smcp' Lowercase to Small Capitals in Latin lookup 12 subtable" f.sc
AlternateSubs2: "'aalt' Access All Alternates in Latin lookup 1 subtable" f.sc
AlternateSubs2: "'aalt' Access All Alternates lookup 0 subtable" f.sc
EndChar

StartChar: g
Encoding: 103 103 74
Width: 436
GlyphClass: 2
Flags: W
HStem: -207 27<117.876 254.319> -38 73<101.229 320.926> 127 23<156.265 230.102> 411 22<149.094 219.503>
VStem: 11.2002 58<-148.248 -47.6891> 34.2002 72.291<194.619 358.333> 50.2002 42.6914<46.1666 111.879> 276.611 78<201.776 338.315> 331.611 61<-127.369 -51.6357> 378.611 28<415.562 458.872>
LayerCount: 2
Fore
SplineSet
11.2002 -97 m 0,0,1
 11.2002 -70 11.2002 -70 29.2002 -51.5 c 128,-1,2
 47.2002 -33 47.2002 -33 65.2002 -24 c 128,-1,3
 83.2002 -15 83.2002 -15 83.2002 -12 c 0,4,5
 83.2002 -10 83.2002 -10 78.2002 -6 c 128,-1,6
 73.2002 -2 73.2002 -2 66.7002 3 c 128,-1,7
 60.2002 8 60.2002 8 55.2002 20 c 128,-1,8
 50.2002 32 50.2002 32 50.2002 47 c 0,9,10
 50.2002 77 50.2002 77 63.2002 99 c 128,-1,11
 76.2002 121 76.2002 121 87.9453 132 c 128,-1,12
 99.6914 143 99.6914 143 99.6914 146 c 0,13,14
 99.6914 150 99.6914 150 90.4453 159 c 128,-1,15
 81.2002 168 81.2002 168 68.2002 179.5 c 128,-1,16
 55.2002 191 55.2002 191 44.7002 217.5 c 128,-1,17
 34.2002 244 34.2002 244 34.2002 280 c 0,18,19
 34.2002 303 34.2002 303 41.7002 326.5 c 128,-1,20
 49.2002 350 49.2002 350 66.7002 375.5 c 128,-1,21
 84.2002 401 84.2002 401 115.32 417 c 128,-1,22
 146.441 433 146.441 433 188.941 433 c 0,23,24
 222.091 433 222.091 433 248.852 423 c 128,-1,25
 275.611 413 275.611 413 289.111 403 c 128,-1,26
 302.611 393 302.611 393 306.611 393 c 0,27,28
 314.611 393 314.611 393 357.611 411 c 0,29,30
 371.611 417 371.611 417 378.611 438 c 128,-1,31
 385.611 459 385.611 459 393.611 459 c 0,32,33
 406.611 459 406.611 459 406.611 451 c 0,34,35
 406.611 427 406.611 427 399.611 399.5 c 128,-1,36
 392.611 372 392.611 372 384.611 360 c 0,37,38
 372.611 341 372.611 341 343.611 329 c 1,39,40
 354.611 299 354.611 299 354.611 279 c 0,41,42
 354.611 215 354.611 215 306.611 171 c 128,-1,43
 258.611 127 258.611 127 196.591 127 c 0,44,45
 174.491 127 174.491 127 154.517 131.5 c 128,-1,46
 134.541 136 134.541 136 131.142 136 c 0,47,48
 126.892 136 126.892 136 120.091 134 c 128,-1,49
 113.291 132 113.291 132 103.091 120 c 128,-1,50
 92.8916 108 92.8916 108 92.8916 87 c 0,51,52
 92.8916 53 92.8916 53 119.241 44 c 128,-1,53
 145.591 35 145.591 35 206.791 35 c 2,54,-1
 247.611 35 l 2,55,56
 392.611 35 392.611 35 392.611 -53 c 0,57,58
 392.611 -84 392.611 -84 385.611 -100 c 0,59,60
 366.611 -149 366.611 -149 307.611 -178 c 128,-1,61
 248.611 -207 248.611 -207 180.441 -207 c 0,62,63
 142.191 -207 142.191 -207 108.195 -198.5 c 128,-1,64
 74.2002 -190 74.2002 -190 42.7002 -164 c 128,-1,65
 11.2002 -138 11.2002 -138 11.2002 -97 c 0,0,1
69.2002 -91 m 0,66,67
 69.2002 -135 69.2002 -135 101.87 -157.5 c 128,-1,68
 134.541 -180 134.541 -180 180.441 -180 c 0,69,70
 233.142 -180 233.142 -180 282.376 -154.5 c 128,-1,71
 331.611 -129 331.611 -129 331.611 -89 c 0,72,73
 331.611 -71 331.611 -71 323.611 -60 c 128,-1,74
 315.611 -49 315.611 -49 296.611 -44.5 c 128,-1,75
 277.611 -40 277.611 -40 263.111 -39 c 128,-1,76
 248.611 -38 248.611 -38 222.941 -38 c 2,77,-1
 215.291 -38 l 2,78,79
 188.091 -38 188.091 -38 148.991 -31 c 2,80,-1
 110.741 -24 l 1,81,82
 102.241 -24 102.241 -24 85.7207 -44 c 128,-1,83
 69.2002 -64 69.2002 -64 69.2002 -91 c 0,66,67
106.491 290 m 0,84,85
 106.491 230 106.491 230 130.716 190 c 128,-1,86
 154.941 150 154.941 150 191.491 150 c 0,87,88
 229.741 150 229.741 150 253.177 184.5 c 128,-1,89
 276.611 219 276.611 219 276.611 269 c 0,90,91
 276.611 325 276.611 325 249.776 368 c 128,-1,92
 222.941 411 222.941 411 182.142 411 c 0,93,94
 150.691 411 150.691 411 128.591 379.5 c 128,-1,95
 106.491 348 106.491 348 106.491 290 c 0,84,85
EndSplineSet
Validated: 524289
Substitution2: "'smcp' Lowercase to Small Capitals in Latin lookup 12 subtable" g.sc
AlternateSubs2: "'aalt' Access All Alternates in Latin lookup 1 subtable" g.sc
AlternateSubs2: "'aalt' Access All Alternates lookup 0 subtable" g.sc
EndChar

StartChar: h
Encoding: 104 104 75
Width: 532
GlyphClass: 2
Flags: W
HStem: -3 37<434.574 512.312> 0 22.5<166.288 213.304 307.638 339.497> 388 46<195.937 293.51> 687 23.5<-3.83594 41.1973>
VStem: 72 60.9248<49.0509 347.649 360.005 655.037> 351.787 74<38.3467 320.042>
LayerCount: 2
Fore
SplineSet
-4 697 m 0,0,1
 -4 705 -4 705 6.5 710.5 c 128,-1,2
 17 716 17 716 36.5 721 c 128,-1,3
 56 726 56 726 65 730 c 0,4,5
 126.125 758 126.125 758 133.774 758 c 0,6,7
 144.824 758 144.824 758 144.824 735 c 0,8,9
 144.824 730 144.824 730 141.85 711 c 128,-1,10
 138.875 692 138.875 692 138.875 673 c 0,11,12
 138.024 583 138.024 583 136.75 520.5 c 128,-1,13
 135.475 458 135.475 458 134.625 436.5 c 128,-1,14
 133.774 415 133.774 415 133.35 401 c 128,-1,15
 132.925 387 132.925 387 132.925 379 c 0,16,17
 132.925 360 132.925 360 139.725 360 c 0,18,19
 141.425 360 141.425 360 157.149 378.5 c 128,-1,20
 172.875 397 172.875 397 200.5 415.5 c 128,-1,21
 228.125 434 228.125 434 259.574 434 c 0,22,23
 331.888 434 331.888 434 376.888 386 c 128,-1,24
 421.888 338 421.888 338 421.888 237 c 2,25,-1
 425.787 92 l 2,26,27
 425.787 82 425.787 82 427.787 70.5 c 128,-1,28
 429.787 59 429.787 59 437.787 47 c 128,-1,29
 445.787 35 445.787 35 458.787 34 c 0,30,31
 512.787 29 512.787 29 512.787 13 c 128,-1,32
 512.787 -3 512.787 -3 481.787 -3 c 0,33,34
 476.787 -3 476.787 -3 443.287 -0.5 c 128,-1,35
 409.787 2 409.787 2 397.787 2 c 0,36,37
 388.787 2 388.787 2 356.287 0.5 c 128,-1,38
 323.787 -1 323.787 -1 320.787 -1 c 0,39,40
 300.024 -1 300.024 -1 300.024 9 c 0,41,42
 300.024 20 300.024 20 307.406 23.5 c 128,-1,43
 314.787 27 314.787 27 324.787 27 c 128,-1,44
 334.787 27 334.787 27 343.287 38 c 128,-1,45
 351.787 49 351.787 49 351.787 72 c 0,46,47
 351.787 76 351.787 76 352.287 82 c 128,-1,48
 352.787 88 352.787 88 352.787 98.5 c 128,-1,49
 352.787 109 352.787 109 353.287 145 c 128,-1,50
 353.787 181 353.787 181 349.888 238 c 0,51,52
 349.888 299 349.888 299 315.355 343.5 c 128,-1,53
 280.824 388 280.824 388 238.324 388 c 0,54,55
 198.375 388 198.375 388 155.875 349 c 0,56,57
 140.574 335 140.574 335 136.324 303.5 c 128,-1,58
 132.074 272 132.074 272 132.074 164 c 2,59,-1
 132.074 141 l 2,60,61
 132.074 96 132.074 96 138.449 68.5 c 128,-1,62
 144.824 41 144.824 41 166.074 30 c 0,63,64
 172.875 27 172.875 27 186.425 26 c 128,-1,65
 199.975 25 199.975 25 206.649 22.5 c 128,-1,66
 213.324 20 213.324 20 213.324 12 c 0,67,68
 213.324 0 213.324 0 203.975 0 c 2,69,-1
 177.975 1 l 2,70,71
 155.875 2 155.875 2 132.938 3.5 c 128,-1,72
 110 5 110 5 108 5 c 0,73,74
 101 5 101 5 73 2.5 c 128,-1,75
 45 0 45 0 37 0 c 0,76,77
 24 0 24 0 17.5 1.5 c 128,-1,78
 11 3 11 3 10.5 4.5 c 128,-1,79
 10 6 10 6 10 10 c 0,80,81
 10 20 10 20 22 23 c 0,82,83
 51 31 51 31 59.5 48.5 c 128,-1,84
 68 66 68 66 68 100 c 2,85,-1
 72 441 l 1,86,-1
 72 490 l 2,87,88
 72 626 72 626 66 656 c 128,-1,89
 60 686 60 686 30 686 c 0,90,91
 21 686 21 686 17 686 c 2,92,-1
 13 687 l 1,93,94
 -4 687 -4 687 -4 697 c 0,0,1
EndSplineSet
Validated: 524321
Substitution2: "'smcp' Lowercase to Small Capitals in Latin lookup 12 subtable" h.sc
AlternateSubs2: "'aalt' Access All Alternates in Latin lookup 1 subtable" h.sc
AlternateSubs2: "'aalt' Access All Alternates lookup 0 subtable" h.sc
EndChar

StartChar: i
Encoding: 105 105 76
Width: 259
GlyphClass: 2
Flags: W
HStem: -7 30.5<20.8389 61.5186 166.804 234.733> 533 112<83.3033 144.921>
VStem: 65.7998 96<549.657 628.164> 76.7998 72<47.6541 360.872>
LayerCount: 2
Fore
SplineSet
8.7998 381 m 0,0,1
 8.7998 386 8.7998 386 11.2998 389 c 128,-1,2
 13.7998 392 13.7998 392 21.2998 395.5 c 128,-1,3
 28.7998 399 28.7998 399 36.7998 401.5 c 128,-1,4
 44.7998 404 44.7998 404 60.2998 409.5 c 128,-1,5
 75.7998 415 75.7998 415 89.7998 421 c 0,6,7
 100.8 426 100.8 426 110.3 430 c 128,-1,8
 119.8 434 119.8 434 122.8 435.5 c 128,-1,9
 125.8 437 125.8 437 129.8 438 c 128,-1,10
 133.8 439 133.8 439 139.8 439 c 0,11,12
 154.8 439 154.8 439 154.8 420 c 0,13,14
 154.8 415 154.8 415 151.8 398 c 128,-1,15
 148.8 381 148.8 381 148.8 372 c 2,16,-1
 148.8 98 l 2,17,18
 148.8 68 148.8 68 158.3 51 c 128,-1,19
 167.8 34 167.8 34 178.3 30 c 128,-1,20
 188.8 26 188.8 26 204.8 25 c 0,21,22
 216.8 24 216.8 24 220.8 23.5 c 128,-1,23
 224.8 23 224.8 23 229.8 20 c 128,-1,24
 234.8 17 234.8 17 234.8 10 c 0,25,26
 234.8 -7 234.8 -7 217.8 -7 c 0,27,28
 215.8 -7 215.8 -7 210.8 -6.5 c 128,-1,29
 205.8 -6 205.8 -6 202.8 -6 c 0,30,31
 180.8 -6 180.8 -6 165.8 -5 c 128,-1,32
 150.8 -4 150.8 -4 131.8 -4 c 0,33,34
 107.8 -4 107.8 -4 86.7998 -5 c 128,-1,35
 65.7998 -6 65.7998 -6 60.7998 -6 c 0,36,37
 20.7998 -6 20.7998 -6 20.7998 7 c 0,38,39
 20.7998 21 20.7998 21 35.7998 26 c 0,40,41
 36.7998 26 36.7998 26 39.7998 27 c 0,42,43
 62.7998 35 62.7998 35 67.7998 47 c 0,44,45
 76.7998 67 76.7998 67 76.7998 206 c 2,46,-1
 76.7998 294 l 2,47,48
 76.7998 323 76.7998 323 69.7998 340 c 128,-1,49
 62.7998 357 62.7998 357 56.7998 361 c 128,-1,50
 50.7998 365 50.7998 365 36.2998 367.5 c 128,-1,51
 21.7998 370 21.7998 370 18.7998 371 c 0,52,53
 8.7998 375 8.7998 375 8.7998 381 c 0,0,1
65.7998 590 m 0,54,55
 65.7998 602 65.7998 602 83.2998 623.5 c 128,-1,56
 100.8 645 100.8 645 115.8 645 c 0,57,58
 131.8 645 131.8 645 146.8 624.5 c 128,-1,59
 161.8 604 161.8 604 161.8 588 c 128,-1,60
 161.8 572 161.8 572 142.8 552.5 c 128,-1,61
 123.8 533 123.8 533 114.8 533 c 0,62,63
 94.7998 533 94.7998 533 80.2998 554 c 128,-1,64
 65.7998 575 65.7998 575 65.7998 590 c 0,54,55
EndSplineSet
Validated: 524289
Substitution2: "'smcp' Lowercase to Small Capitals in Latin lookup 12 subtable" i.sc
Substitution2: "'locl' Localized Forms in Latin lookup 2 subtable" i.TRK
AlternateSubs2: "'aalt' Access All Alternates in Latin lookup 1 subtable" i.sc i.TRK
AlternateSubs2: "'aalt' Access All Alternates lookup 0 subtable" i.sc
EndChar

StartChar: k
Encoding: 107 107 78
Width: 497
GlyphClass: 2
Flags: W
HStem: -5 29<5.49438 52.1094 151.795 213.478 405.542 482.607> 199 21<145.033 153.957> 399.5 23.5<387.953 446.402> 678 37<-14.6826 19.9054>
VStem: 65.5 68.9561<54.1978 198.33 220.01 672.281> 288.713 158<362.5 418.5>
LayerCount: 2
Fore
SplineSet
-20 689 m 128,-1,1
 -20 700 -20 700 29 715 c 0,2,3
 36 717 36 717 45.5 720 c 128,-1,4
 55 723 55 723 57 723.5 c 128,-1,5
 59 724 59 724 64.5 726 c 128,-1,6
 70 728 70 728 70.5 728.5 c 128,-1,7
 71 729 71 729 75.5 731 c 128,-1,8
 80 733 80 733 82 734.5 c 128,-1,9
 84 736 84 736 90 739.5 c 128,-1,10
 96 743 96 743 102 747 c 0,11,12
 122.557 760 122.557 760 132.756 760 c 0,13,14
 144.656 760 144.656 760 144.656 741 c 0,15,16
 144.656 739 144.656 739 143.807 729.5 c 128,-1,17
 142.956 720 142.956 720 141.682 701.5 c 128,-1,18
 140.406 683 140.406 683 139.557 656.5 c 128,-1,19
 138.706 630 138.706 630 137.856 585.5 c 128,-1,20
 137.006 541 137.006 541 137.006 488 c 0,21,22
 137.006 454 137.006 454 135.731 385.5 c 128,-1,23
 134.456 317 134.456 317 134.456 283 c 2,24,-1
 134.456 262 l 2,25,26
 134.456 220 134.456 220 137.856 220 c 0,27,28
 142.956 220 142.956 220 146.781 223 c 128,-1,29
 150.606 226 150.606 226 156.131 233 c 128,-1,30
 161.656 240 161.656 240 165.057 243 c 0,31,32
 288.713 355 288.713 355 288.713 370 c 0,33,34
 288.713 383 288.713 383 267.26 392 c 128,-1,35
 245.807 401 245.807 401 245.807 409 c 0,36,37
 245.807 419 245.807 419 256.006 419 c 0,38,39
 257.713 419 257.713 419 263.713 418.5 c 128,-1,40
 269.713 418 269.713 418 273.713 418 c 0,41,42
 317.713 419 317.713 419 364.213 421 c 128,-1,43
 410.713 423 410.713 423 420.713 423 c 0,44,45
 446.713 423 446.713 423 446.713 414 c 0,46,47
 446.713 407 446.713 407 440.713 404 c 128,-1,48
 434.713 401 434.713 401 424.713 399.5 c 128,-1,49
 414.713 398 414.713 398 395.713 391 c 128,-1,50
 376.713 384 376.713 384 356.713 371 c 0,51,52
 353.713 369 353.713 369 350.713 367 c 128,-1,53
 347.713 365 347.713 365 344.213 362 c 128,-1,54
 340.713 359 340.713 359 331.213 352 c 128,-1,55
 321.713 345 321.713 345 309.713 336 c 0,56,57
 295.713 325 295.713 325 272.713 308 c 0,58,59
 230.506 272 230.506 272 223.706 265 c 128,-1,60
 216.906 258 216.906 258 216.906 250 c 128,-1,61
 216.906 242 216.906 242 226.256 227 c 1,62,63
 311.713 116 311.713 116 376.713 59 c 0,64,65
 403.713 35 403.713 35 431.213 28 c 128,-1,66
 458.713 21 458.713 21 470.713 21 c 128,-1,67
 482.713 21 482.713 21 482.713 12 c 0,68,69
 482.713 0 482.713 0 474.213 -2.5 c 128,-1,70
 465.713 -5 465.713 -5 441.713 -5 c 0,71,72
 434.713 -5 434.713 -5 388.713 -4.5 c 128,-1,73
 342.713 -4 342.713 -4 337.713 -4 c 0,74,75
 329.713 -4 329.713 -4 311.713 11.5 c 128,-1,76
 293.713 27 293.713 27 269.335 55.5 c 128,-1,77
 244.956 84 244.956 84 229.656 105.5 c 128,-1,78
 214.356 127 214.356 127 192.256 159 c 128,-1,79
 170.156 191 170.156 191 169.307 193 c 0,80,81
 165.906 199 165.906 199 159.956 199 c 0,82,83
 151.456 199 151.456 199 142.531 185 c 128,-1,84
 133.606 171 133.606 171 133.606 153 c 0,85,86
 133.606 151 133.606 151 134.031 145.5 c 128,-1,87
 134.456 140 134.456 140 134.456 136 c 0,88,89
 134.456 125 134.456 125 135.307 108 c 0,90,91
 137.006 60 137.006 60 141.256 54 c 0,92,93
 142.106 53 142.106 53 143.807 50 c 0,94,95
 147.206 45 147.206 45 149.756 41 c 0,96,97
 156.557 30 156.557 30 185.031 24 c 128,-1,98
 213.506 18 213.506 18 213.506 9 c 0,99,100
 213.506 -7 213.506 -7 187.156 -7 c 0,101,102
 185.456 -7 185.456 -7 153.156 -4 c 128,-1,103
 120.856 -1 120.856 -1 102 -1 c 0,104,105
 89 -1 89 -1 70.5 -3 c 128,-1,106
 52 -5 52 -5 29 -5 c 0,107,108
 5 -5 5 -5 5 7 c 0,109,110
 5 17 5 17 30 24 c 1,111,112
 53 33 53 33 59 50 c 128,-1,113
 65 67 65 67 65 116 c 0,114,115
 65 127 65 127 65.5 142 c 128,-1,116
 66 157 66 157 66 160 c 2,117,-1
 67 604 l 2,118,119
 67 679 67 679 20 679 c 0,120,121
 17 679 17 679 10.5 678.5 c 128,-1,122
 4 678 4 678 0 678 c 0,123,0
 -20 678 -20 678 -20 689 c 128,-1,1
EndSplineSet
Validated: 524289
Substitution2: "'smcp' Lowercase to Small Capitals in Latin lookup 12 subtable" k.sc
AlternateSubs2: "'aalt' Access All Alternates in Latin lookup 1 subtable" k.sc
AlternateSubs2: "'aalt' Access All Alternates lookup 0 subtable" k.sc
EndChar

StartChar: l
Encoding: 108 108 79
Width: 255
GlyphClass: 2
Flags: W
HStem: -4 29<11.6421 57.4473 166.362 235.97> 685 22.5<-2.45227 39.5>
VStem: 67 75<40.8359 680.871>
LayerCount: 2
Fore
SplineSet
-4 693 m 0,0,1
 -4 699 -4 699 -2.5 702 c 128,-1,2
 -1 705 -1 705 4 707.5 c 128,-1,3
 9 710 9 710 15.5 711.5 c 128,-1,4
 22 713 22 713 36 717.5 c 128,-1,5
 50 722 50 722 64 728 c 0,6,7
 72 731 72 731 89 739 c 128,-1,8
 106 747 106 747 118.5 751.5 c 128,-1,9
 131 756 131 756 140 756 c 0,10,11
 152 756 152 756 152 737 c 0,12,13
 152 733 152 733 150 713.5 c 128,-1,14
 148 694 148 694 146 659.5 c 128,-1,15
 144 625 144 625 144 585 c 2,16,-1
 144 529 l 2,17,18
 144 482 144 482 143 449.5 c 128,-1,19
 142 417 142 417 142 396 c 2,20,-1
 142 98 l 2,21,22
 142 77 142 77 145.5 63.5 c 128,-1,23
 149 50 149 50 168.5 37.5 c 128,-1,24
 188 25 188 25 223 25 c 0,25,26
 228 25 228 25 232 20 c 128,-1,27
 236 15 236 15 236 10 c 0,28,29
 236 -4 236 -4 205 -4 c 0,30,31
 196 -4 196 -4 158.5 -0.5 c 128,-1,32
 121 3 121 3 104 3 c 0,33,34
 78 3 78 3 54.5 -1 c 128,-1,35
 31 -5 31 -5 23 -5 c 0,36,37
 16 -5 16 -5 11.5 -1.5 c 128,-1,38
 7 2 7 2 7 5 c 0,39,40
 7 13 7 13 11.5 16.5 c 128,-1,41
 16 20 16 20 26.5 22.5 c 128,-1,42
 37 25 37 25 41 27 c 0,43,44
 58 35 58 35 63 49 c 128,-1,45
 68 63 68 63 68 92 c 0,46,47
 68 96 68 96 67.5 104.5 c 128,-1,48
 67 113 67 113 67 118 c 2,49,-1
 67 192 l 2,50,51
 67 229 67 229 69 388.5 c 128,-1,52
 71 548 71 548 71 617 c 0,53,54
 71 640 71 640 63.5 658.5 c 128,-1,55
 56 677 56 677 47 681 c 128,-1,56
 38 685 38 685 7 685 c 0,57,58
 -4 685 -4 685 -4 693 c 0,0,1
EndSplineSet
Validated: 1
Substitution2: "'smcp' Lowercase to Small Capitals in Latin lookup 12 subtable" l.sc
AlternateSubs2: "'aalt' Access All Alternates in Latin lookup 1 subtable" l.sc
AlternateSubs2: "'aalt' Access All Alternates lookup 0 subtable" l.sc
EndChar

